<?xml version="1.0" encoding="iso-8859-1"?>
<!-- Generator: Adobe Illustrator 19.0.0, SVG Export Plug-In . SVG Version: 6.00 Build 0)  -->
<svg version="1.1" id="Layer_1" xmlns="http://www.w3.org/2000/svg" xmlns:xlink="http://www.w3.org/1999/xlink" x="0px" y="0px"
	 viewBox="0 0 511.999 511.999" style="enable-background:new 0 0 511.999 511.999;" xml:space="preserve">
<g>
	<g>
		<path d="M387.905,22.378C370.779,7.947,349.014,0,326.62,0c-5.392,0-10.82,0.464-16.137,1.379l-141.259,24.32
			c-25.923,4.464-49.051,19.647-63.455,41.661c-14.402,22.012-19.051,49.286-12.758,74.828l8.579,34.817l58.496-14.414
			l-8.579-34.816c-2.306-9.363-0.603-19.363,4.677-27.431c5.28-8.07,13.759-13.637,23.262-15.273l141.258-24.319
			c1.95-0.336,3.941-0.506,5.916-0.506c8.209,0,16.188,2.913,22.467,8.204c7.88,6.64,12.4,16.358,12.4,26.664v321.773
			c0,9.867-4.207,19.313-11.54,25.914c-6.414,5.773-14.698,8.953-23.324,8.953c-1.216,0-2.447-0.064-3.657-0.193l-69.777-7.355
			c-14.561-1.534-26.697-12.117-30.199-26.333l-5.214-21.16l-58.496,14.414l5.213,21.159c9.554,38.779,42.659,67.648,82.379,71.834
			l69.779,7.355c3.301,0.348,6.654,0.524,9.971,0.524c23.537,0,46.134-8.673,63.629-24.421
			c20.006-18.008,31.482-43.775,31.482-70.692V95.114C421.732,67.002,409.403,40.49,387.905,22.378z"/>
	</g>
</g>
<g>
	<g>
		<path d="M167.946,194.497l-58.496,14.415l41.965,170.308l58.496-14.414L167.946,194.497z M172.135,351.428
			c-6.878,0-12.454-5.576-12.454-12.454s5.576-12.454,12.454-12.454s12.454,5.576,12.454,12.454S179.013,351.428,172.135,351.428z"
			/>
	</g>
</g>
<g>
</g>
<g>
</g>
<g>
</g>
<g>
</g>
<g>
</g>
<g>
</g>
<g>
</g>
<g>
</g>
<g>
</g>
<g>
</g>
<g>
</g>
<g>
</g>
<g>
</g>
<g>
</g>
<g>
</g>
</svg>
