<svg id="bold" enable-background="new 0 0 24 24" height="512" viewBox="0 0 24 24" width="512" xmlns="http://www.w3.org/2000/svg"><g><path d="m23.25 18h-.842c-.414 0-.75-.336-.75-.75v-2c0-.414.336-.75.75-.75h.842c.414 0 .75.336.75.75v2c0 .414-.336.75-.75.75z"/></g><g><path d="m23.25 13.5h-.842c-.414 0-.75-.336-.75-.75v-2c0-.414.336-.75.75-.75h.842c.414 0 .75.336.75.75v2c0 .414-.336.75-.75.75z"/></g><g><path d="m20.783 8h-6.816c-1.223 0-2.217.995-2.217 2.217v7.566c0 1.222.994 2.217 2.217 2.217h6.816c1.223 0 2.217-.995 2.217-2.217v-7.566c0-1.222-.994-2.217-2.217-2.217zm.467 9.533c0 .395-.321.717-.717.717h-6.316c-.396 0-.717-.322-.717-.717v-7.066c0-.395.321-.717.717-.717h6.316c.396 0 .717.322.717.717z"/></g><g><path d="m20.783 7c.068 0 .131.016.197.02l-.145-1.444c-.089-.899-.837-1.576-1.74-1.576h-3.189c-.903 0-1.652.678-1.741 1.576l-.144 1.424z"/></g><g><path d="m12.174 22.621-.11-1.095c-.685-.35-1.265-.879-1.673-1.525h-8.391v-16.751c0-.689.561-1.25 1.25-1.25h9.5c.464 0 .853.265 1.068.64.593-.397 1.3-.634 2.065-.638-.328-1.152-1.377-2.002-2.633-2.002h-10.5c-1.517 0-2.75 1.233-2.75 2.75v15.75.75 2c0 1.519 1.231 2.75 2.75 2.75h9.839c-.219-.418-.366-.882-.415-1.379z"/></g><g><path d="m20.783 21h-6.762l.143 1.424c.089.898.838 1.576 1.741 1.576h3.189c.903 0 1.652-.678 1.741-1.576l.145-1.444c-.066.004-.129.02-.197.02z"/></g></svg>