<svg height="512pt" viewBox="0 -21 512 512" width="512pt" xmlns="http://www.w3.org/2000/svg"><path d="m213.332031 42.667969h85.335938v21.332031h42.664062v-42.667969c0-11.78125-9.550781-21.332031-21.332031-21.332031h-128c-11.78125 0-21.332031 9.550781-21.332031 21.332031v42.667969h42.664062zm0 0"/><path d="m448 85.332031h-384c-35.289062 0-64 28.714844-64 64v64c0 35.289063 28.710938 64 64 64h85.332031c0-58.816406 47.851563-106.664062 106.667969-106.664062s106.667969 47.847656 106.667969 106.664062h85.332031c35.289062 0 64-28.710937 64-64v-64c0-35.285156-28.710938-64-64-64zm0 0"/><path d="m448 298.667969h-87.480469c-9.910156 48.625-53.007812 85.332031-104.519531 85.332031s-94.609375-36.707031-104.519531-85.332031h-87.480469c-35.289062 0-64-28.714844-64-64v170.664062c0 35.289063 28.710938 64 64 64h384c35.289062 0 64-28.710937 64-64v-170.664062c0 35.285156-28.710938 64-64 64zm0 0"/><path d="m234.667969 213.332031v42.667969h-42.667969v42.667969h42.667969v42.664062h42.664062v-42.664062h42.667969v-42.667969h-42.667969v-42.667969zm0 0"/></svg>