<?xml version="1.0" encoding="iso-8859-1"?>
<!-- Generator: Adobe Illustrator 19.0.0, SVG Export Plug-In . SVG Version: 6.00 Build 0)  -->
<svg version="1.1" id="Capa_1" xmlns="http://www.w3.org/2000/svg" xmlns:xlink="http://www.w3.org/1999/xlink" x="0px" y="0px"
	 viewBox="0 0 512 512" style="enable-background:new 0 0 512 512;" xml:space="preserve">
<g>
	<g>
		<path d="M176,128c-45.6,0-88.736,10.784-121.408,30.4C19.392,179.52,0,208.512,0,240c0,23.904,11.04,46.24,32,65.024V496
			c0,8.832,7.168,16,16,16h256c8.832,0,16-7.168,16-16V305.024c20.96-18.784,32-41.12,32-65.024C352,177.216,274.688,128,176,128z
			 M187.328,443.328C184.192,446.432,180.096,448,176,448s-8.192-1.568-11.328-4.672l-64-64c-6.24-6.24-6.24-16.384,0-22.624
			s16.384-6.24,22.624,0l64,64C193.568,426.944,193.568,437.056,187.328,443.328z M251.328,379.328
			C248.192,382.432,244.096,384,240,384s-8.192-1.568-11.328-4.672l-64-64c-6.24-6.24-6.24-16.384,0-22.624s16.384-6.24,22.624,0
			l64,64C257.568,362.944,257.568,373.056,251.328,379.328z"/>
	</g>
</g>
<g>
	<g>
		<path d="M336,0c-45.6,0-88.736,10.784-121.408,30.4c-29.472,17.696-47.68,40.896-52.864,66.464C166.496,96.64,171.168,96,176,96
			c118.592,0,208,61.92,208,144c0,28.64-11.008,55.456-32,78.368V384h112c8.832,0,16-7.168,16-16V177.024
			c20.96-18.784,32-41.12,32-65.024C512,49.216,434.688,0,336,0z"/>
	</g>
</g>
<g>
</g>
<g>
</g>
<g>
</g>
<g>
</g>
<g>
</g>
<g>
</g>
<g>
</g>
<g>
</g>
<g>
</g>
<g>
</g>
<g>
</g>
<g>
</g>
<g>
</g>
<g>
</g>
<g>
</g>
</svg>
