<svg id="Layer_1" enable-background="new 0 0 512.5 512.5" height="512" viewBox="0 0 512.5 512.5" width="512" xmlns="http://www.w3.org/2000/svg"><g><path d="m272.251 0h-176c-9.08 0-16.35 7.56-15.99 16.64 15.4 384.083 14.378 360.796 14.76 364.1 2.96 11.17 13.08 19.26 25.12 19.26h128.22c12.05 0 22.18-8.1 25.12-19.28.373-3.204-.724 22.114 14.76-364.08.36-9.07-6.9-16.64-15.99-16.64z"/><path d="m136.251 437v59c0 8.837 7.163 16 16 16h64c8.837 0 16-7.163 16-16v-59c0-2.761-2.239-5-5-5h-86c-2.761 0-5 2.239-5 5z"/><path d="m416.251 88c8.836 0 16-7.164 16-16s-7.164-16-16-16h-48v-16h48c8.836 0 16-7.164 16-16s-7.164-16-16-16h-50.158c-8.194-14.144-29.842-8.288-29.842 8 0 132.032-.152 121.134.4 123.556 27.804 121.979 27.703 121.084 27.6 121.084-16.78 7.49-28.5 24.33-28.5 43.86v160c0 26.47 21.53 48 48 48s48-21.53 48-48v-160c0-22.05-14.94-40.67-35.23-46.28-.101 0 .749 3.289-27.86-122.22h47.59c8.836 0 16-7.164 16-16s-7.164-16-16-16h-48v-16z"/></g></svg>