<?xml version="1.0" encoding="iso-8859-1"?>
<!-- Generator: Adobe Illustrator 19.0.0, SVG Export Plug-In . SVG Version: 6.00 Build 0)  -->
<svg version="1.1" id="Capa_1" xmlns="http://www.w3.org/2000/svg" xmlns:xlink="http://www.w3.org/1999/xlink" x="0px" y="0px"
	 viewBox="0 0 512 512" style="enable-background:new 0 0 512 512;" xml:space="preserve">
<g>
	<g>
		<path d="M508.583,109.488c-2.438-2.229-5.771-3.229-9-2.688c-13.333,2.208-33.479,5.344-54.5,6.938
			c-39.771,3.01-58.313-1.542-66.917-5.927c-7.081-3.6-15.505-8.393-24.522-13.804l17.585-23.656
			c3.5-4.719,2.542-11.375-2.167-14.896l-42.667-32.001c-4.667-3.49-11.292-2.583-14.875,2.063l-21.173,27.733
			c-16.307-10.996-27.926-19.124-28.223-19.337c-4.708-3.292-11.188-2.271-14.667,2.344l-64,85.336c-1.708,2.292-2.438,5.167-2,8
			s1.979,5.375,4.292,7.042c0,0,10.896,7.857,26.408,19.08L8.042,423.217C2.854,429.977,0,438.394,0,446.926v4.677
			c0,21.542,17.521,39.064,39.063,39.064c12.292,0,24.021-5.886,31.354-15.75l203.818-274.121
			c10.845,7.917,20.9,15.288,28.745,21.102c7.75,5.729,19.063,20.886,29.125,60.596c5.604,22.147,8.688,43.147,10.021,53.7
			c0.438,3.427,2.5,6.427,5.542,8.052c1.583,0.844,3.313,1.271,5.042,1.271c1.625,0,3.25-0.365,4.729-1.104
			c86.896-43.043,146.104-129.702,154.521-226.163C512.25,114.967,511,111.728,508.583,109.488z M361.104,318.302
			c-1.505-9.449-3.798-21.288-6.667-33.615c53.65-34.061,89.681-88.085,100.427-150.475c12.358-1.161,24.279-2.631,34.281-4.139
			C477.938,208.74,430.188,278.896,361.104,318.302z"/>
	</g>
</g>
<g>
</g>
<g>
</g>
<g>
</g>
<g>
</g>
<g>
</g>
<g>
</g>
<g>
</g>
<g>
</g>
<g>
</g>
<g>
</g>
<g>
</g>
<g>
</g>
<g>
</g>
<g>
</g>
<g>
</g>
</svg>
