<?xml version="1.0" encoding="iso-8859-1"?>
<!-- Generator: Adobe Illustrator 19.0.0, SVG Export Plug-In . SVG Version: 6.00 Build 0)  -->
<svg version="1.1" id="Layer_1" xmlns="http://www.w3.org/2000/svg" xmlns:xlink="http://www.w3.org/1999/xlink" x="0px" y="0px"
	 viewBox="0 0 512.004 512.004" style="enable-background:new 0 0 512.004 512.004;" xml:space="preserve">
<g>
	<g>
		<path d="M268.627,372.087l-97.044-172.723c-1.178-2.098-3.948-2.657-5.851-1.184c-7.409,5.74-14.423,11.483-20.174,16.309
			c-1.45,1.217-1.823,3.292-0.896,4.943l94.934,168.967c4.505,8.019,14.656,10.862,22.671,6.359
			C270.284,390.253,273.131,380.103,268.627,372.087z"/>
	</g>
</g>
<g>
	<g>
		<path d="M480.723,0H273.469c-9.569,0-18.301,5.454-22.499,14.054l-13.997,28.67c-2.781,5.694-3.298,12.232-1.447,18.294
			l10.466,34.293c-7.389-0.216-12.684,0.31-16.595,0.602c-20.253,2.405-35.155,6.533-52.756,12.943
			c-15.357,5.81-29.4,12.234-44.403,20.48l-9.618-17.119c-4.505-8.016-14.655-10.865-22.671-6.359
			c-8.016,4.504-10.863,14.654-6.359,22.67l8.164,14.532l-72.172,25.47c-3.842,1.356-6.889,4.34-8.323,8.154
			c-1.434,3.814-1.111,8.066,0.885,11.618l24.427,43.477c1.996,3.552,5.459,6.041,9.463,6.799c4.004,0.758,8.136-0.292,11.293-2.867
			l47.199-38.523c7.773-6.748,63.085-50.059,76.288-57.791c13.621-7.723,25.238-13.353,42.952-18.64
			c3.606-0.886,10.143-2.687,18.951-3.412l3.894,12.757c2.466,8.082,6.833,15.454,12.735,21.501l62.589,64.13
			c10.294,10.547,15.72,24.911,14.969,39.631l-4.99,97.925c-0.508,9.987,1.824,19.913,6.729,28.629l43.516,77.33
			c5.224,9.283,13.128,16.772,22.679,21.486l61.062,30.145c3.38,1.668,7.383,1.473,10.585-0.516c3.202-1.99,5.148-5.492,5.148-9.263
			V10.906C491.629,4.883,486.747,0,480.723,0z"/>
	</g>
</g>
<g>
</g>
<g>
</g>
<g>
</g>
<g>
</g>
<g>
</g>
<g>
</g>
<g>
</g>
<g>
</g>
<g>
</g>
<g>
</g>
<g>
</g>
<g>
</g>
<g>
</g>
<g>
</g>
<g>
</g>
</svg>
