<?xml version="1.0" encoding="iso-8859-1"?>
<!-- Generator: Adobe Illustrator 16.0.0, SVG Export Plug-In . SVG Version: 6.00 Build 0)  -->
<!DOCTYPE svg PUBLIC "-//W3C//DTD SVG 1.1//EN" "http://www.w3.org/Graphics/SVG/1.1/DTD/svg11.dtd">
<svg version="1.1" id="Capa_1" xmlns="http://www.w3.org/2000/svg" xmlns:xlink="http://www.w3.org/1999/xlink" x="0px" y="0px"
	 width="540.942px" height="540.942px" viewBox="0 0 540.942 540.942" style="enable-background:new 0 0 540.942 540.942;"
	 xml:space="preserve">
<g>
	<path d="M533.02,75.822l-164.953,7.153c-1.415,0.058-2.468-0.019-2.993-0.058l-0.746-0.526c-1.435-1.023-4.37-1.138-6.589-1.042
		l-29.835,1.31c-3.499,0.134-7.975,2.17-10.385,4.724l-2.027,2.152c-1.73,1.826-5.115,4.293-7.382,5.393l-17.213,8.329
		c-1.511,0.765-3.604,1.826-5.288,2.304l-1.118,0.191c-0.144,0.019-0.315,0.077-0.45,0.077c-2.323-0.039-5.077-1.042-7.984-2.955
		c-2.696-1.798-7.334-3.251-10.939-2.648l-65.13,10.997c-5.728,0.985-9.897,5.738-10.749,11.293l-36.605,6.436
		c-4.112-2.267-8.769-3.682-13.799-3.682H86.919c-15.845,0-28.688,12.852-28.688,28.688v133.444L1.029,495.826
		c-4.188,15.28,4.791,31.059,20.072,35.247c2.543,0.708,5.097,1.042,7.612,1.042c12.594,0,24.145-8.367,27.645-21.104
		l51.781-188.658h8.941l47.975,188.152c3.309,12.957,14.975,21.61,27.779,21.61c2.343,0,4.733-0.296,7.105-0.898
		c15.357-3.921,24.623-19.536,20.712-34.884l-53.129-208.387V184.605l133.167-23.428c15.606-2.745,26.039-17.614,23.295-33.229
		c-0.268-1.549-0.756-3.022-1.263-4.457c0.201-0.258,0.574-0.392,0.736-0.679c1.712,0.545,3.528,0.822,5.394,0.746
		c3.557-0.153,6.875-1.473,9.343-3.739c2.581-2.372,3.939-5.47,3.786-8.721c-0.028-0.545-0.152-1.061-0.277-1.587l22.348-3.156
		l166.866-12.718c4.532-0.334,7.506-2.391,7.382-5.116c-0.038-0.861-0.325-1.664-0.812-2.353c2.161-0.966,3.547-2.936,3.452-5.154
		C540.804,77.964,537.198,75.631,533.02,75.822z M334.712,116.032c-1.577,1.454-3.738,2.295-6.101,2.41
		c-1.616,0.057-3.099-0.373-4.446-0.995c-0.173-0.708-0.325-1.415-0.718-2.075l-1.529-2.611c1.797-0.526,3.681-0.975,5.097-1.176
		l9.648-1.367c0.096,0.354,0.172,0.727,0.182,1.1C336.921,113.039,336.175,114.703,334.712,116.032z"/>
	<circle cx="112.872" cy="55.406" r="46.579"/>
</g>
<g>
</g>
<g>
</g>
<g>
</g>
<g>
</g>
<g>
</g>
<g>
</g>
<g>
</g>
<g>
</g>
<g>
</g>
<g>
</g>
<g>
</g>
<g>
</g>
<g>
</g>
<g>
</g>
<g>
</g>
</svg>
