<?xml version="1.0" encoding="iso-8859-1"?>
<!-- Generator: Adobe Illustrator 19.0.0, SVG Export Plug-In . SVG Version: 6.00 Build 0)  -->
<svg version="1.1" id="Layer_1" xmlns="http://www.w3.org/2000/svg" xmlns:xlink="http://www.w3.org/1999/xlink" x="0px" y="0px"
	 viewBox="0 0 511.999 511.999" style="enable-background:new 0 0 511.999 511.999;" xml:space="preserve">
<g>
	<g>
		<path d="M511.442,240.298l-5.609-22.03c-1.755-6.895-8.768-11.061-15.664-9.306l-13.321,3.391l-2.639-10.363l2.738-0.697
			c6.032-1.536,9.678-7.671,8.142-13.705l-4.293-16.862c-1.536-6.032-7.671-9.678-13.705-8.142l-2.739,0.697l-0.788-3.099
			c-4.091-16.07-20.437-25.783-36.507-21.69l-27.884,7.099l-35.784-61.377c-16.461-28.234-50.224-43.361-83.347-34.928
			l-79.569,20.257c-21.161,5.387-33.994,26.986-28.607,48.146l20.506,80.55l-45.132,11.489l-25.927-101.841
			c-2.403-9.435-12-15.137-21.434-12.736c-9.436,2.403-15.137,11.998-12.736,21.434l7.541,29.622l-41.93,87.575l-39.008,9.931
			c-4.657,1.185-7.47,5.922-6.285,10.578l18.544,72.838l-5.352,1.363c-6.895,1.755-11.061,8.769-9.306,15.664l5.609,22.03
			c1.755,6.895,8.768,11.061,15.664,9.306l33.705-8.581c-9.67-37.986,13.242-76.555,51.233-86.228
			c37.726-9.604,76.49,12.983,86.228,51.233l115.349-29.366c-4.674-18.359-1.918-37.438,7.759-53.724
			c9.677-16.287,25.116-27.829,43.475-32.504c37.727-9.604,76.49,12.983,86.228,51.233l32.215-8.201l13.321-3.391
			C509.03,254.207,513.198,247.195,511.442,240.298z M97.277,222.45l10.983-22.938l4.815,18.915L97.277,222.45z M209.173,103.713
			l18.888-4.808l20.692,81.276l-23.095,5.879l-19.621-77.069C205.447,106.671,206.854,104.303,209.173,103.713z M276.324,221.975
			l-46.2,11.761c-5.318,1.357-10.768-1.849-12.131-7.208c-1.353-5.311,1.845-10.767,7.208-12.131l46.2-11.761
			c5.385-1.376,10.784,1.918,12.131,7.208C284.892,215.184,281.663,220.616,276.324,221.975z M282.922,171.482L262.23,90.205
			l26.513-6.75c17.611-4.486,35.485,3.59,44.188,18.519l28.823,49.438L282.922,171.482z"/>
	</g>
</g>
<g>
	<g>
		<path d="M505.662,319.137c-4.016-3.349-9.311-4.741-14.457-3.804l-43.632,7.965l-45.088,8.231l-5.453-0.87
			c0.772-0.155,1.543-0.316,2.315-0.513c24.904-6.341,39.953-31.669,33.612-56.572c-6.342-24.91-31.67-39.953-56.572-33.613
			c-24.905,6.341-39.953,31.669-33.613,56.572c3.257,12.793,11.527,22.977,22.173,29.005l-22.908-3.656
			c-7.863-1.254-15.532,2.96-18.79,10.03l-17.262,37.456l-68.178-17.199c-4.66-1.175-9.598-0.397-13.671,2.153l-20.422,12.792
			l-27.007,16.917l-16.891,4.784c16.648-10.457,25.443-30.803,20.332-50.88c-6.342-24.909-31.668-39.953-56.572-33.613
			c-24.902,6.343-39.952,31.671-33.611,56.575c5.326,20.921,24.049,34.878,44.667,35.055l-40.44,11.454l-81.366,23.046
			c-8.466,2.398-13.868,10.671-12.658,19.388s8.662,15.205,17.462,15.205H494.37c9.737,0,17.629-7.894,17.629-17.629V332.676
			C512,327.446,509.678,322.487,505.662,319.137z M138.659,363.56c-7.814,1.989-15.759-2.732-17.748-10.545
			s2.732-15.759,10.545-17.748c7.816-1.989,15.76,2.733,17.748,10.545C151.193,353.625,146.472,361.571,138.659,363.56z
			 M373.72,288.655c-1.989-7.813,2.733-15.759,10.545-17.748c7.816-1.989,15.76,2.733,17.748,10.545
			c1.989,7.813-2.732,15.759-10.545,17.748C383.654,301.189,375.71,296.467,373.72,288.655z"/>
	</g>
</g>
<g>
</g>
<g>
</g>
<g>
</g>
<g>
</g>
<g>
</g>
<g>
</g>
<g>
</g>
<g>
</g>
<g>
</g>
<g>
</g>
<g>
</g>
<g>
</g>
<g>
</g>
<g>
</g>
<g>
</g>
</svg>
