<svg height="480pt" viewBox="0 0 480 480" width="480pt" xmlns="http://www.w3.org/2000/svg"><path d="m16.542969 255.785156-15.957031 1.109375c.375 5.417969.941406 10.898438 1.6875 16.28125l15.855468-2.191406c-.695312-5.023437-1.234375-10.183594-1.585937-15.199219zm0 0"/><path d="m40.800781 137.414062-14.214843-7.34375c-2.496094 4.800782-4.859376 9.816407-7.019532 14.824219l14.691406 6.34375c2.03125-4.671875 4.238282-9.316406 6.542969-13.824219zm0 0"/><path d="m20.734375 286.039062-15.664063 3.289063c1.121094 5.335937 2.402344 10.679687 3.90625 15.902344l15.390626-4.34375c-1.367188-4.886719-2.589844-9.863281-3.632813-14.847657zm0 0"/><path d="m20.535156 194.929688-15.679687-3.203126c-1.078125 5.304688-2 10.746094-2.71875 16.152344l15.855469 2.121094c.671874-5.046875 1.527343-10.121094 2.542968-15.070312zm0 0"/><path d="m56.664062 111.273438-13.089843-9.21875c-3.117188 4.441406-6.132813 9.058593-8.957031 13.722656l13.679687 8.292968c2.640625-4.359374 5.457031-8.664062 8.367187-12.796874zm0 0"/><path d="m28.6875 165.480469-15.085938-5.3125c-1.816406 5.160156-3.464843 10.398437-4.914062 15.632812l15.425781 4.261719c1.335938-4.863281 2.878907-9.765625 4.574219-14.582031zm0 0"/><path d="m16.488281 225.207031-16-1.039062c-.324219 5.222656-.488281 10.5-.488281 15.832031v.511719l16-.511719c0-4.964844.164062-9.894531.488281-14.792969zm0 0"/><path d="m29.015625 315.449219-15.054687 5.390625c1.839843 5.136718 3.863281 10.25 6.03125 15.199218l14.664062-6.398437c-2.023438-4.632813-3.921875-9.402344-5.640625-14.191406zm0 0"/><path d="m75.910156 87.511719-11.71875-10.886719c-3.703125 4-7.320312 8.152344-10.734375 12.359375l12.429688 10.078125c3.183593-3.933594 6.5625-7.824219 10.023437-11.550781zm0 0"/><path d="m208.800781 18.167969-2.242187-15.855469c-5.359375.742188-10.789063 1.695312-16.132813 2.816406l3.285157 15.671875c4.984374-1.066406 10.058593-1.945312 15.089843-2.632812zm0 0"/><path d="m239.265625 16-.066406-16c-5.472657 0-10.976563.214844-16.359375.601562l1.136718 16c5.050782-.402343 10.144532-.601562 15.289063-.601562zm0 0"/><path d="m178.863281 24.449219-4.34375-15.402344c-5.207031 1.472656-10.464843 3.152344-15.597656 5l5.40625 15.058594c4.792969-1.722657 9.679687-3.28125 14.535156-4.65625zm0 0"/><path d="m98.191406 66.601562-10.128906-12.386718c-4.207031 3.441406-8.351562 7.074218-12.308594 10.792968l10.949219 11.664063c3.695313-3.472656 7.570313-6.863281 11.488281-10.070313zm0 0"/><path d="m150.144531 34.753906-6.402343-14.65625c-4.949219 2.167969-9.910157 4.550782-14.75 7.078125l7.40625 14.175781c4.496093-2.359374 9.121093-4.550781 13.746093-6.597656zm0 0"/><path d="m123.089844 48.886719-8.371094-13.640625c-4.640625 2.851562-9.230469 5.890625-13.648438 9.035156l9.273438 13.039062c4.128906-2.921874 8.410156-5.777343 12.746094-8.433593zm0 0"/><path d="m329.398438 445.449219 6.402343 14.664062c4.984375-2.167969 9.941407-4.546875 14.757813-7.050781l-7.359375-14.191406c-4.511719 2.335937-9.152344 4.554687-13.800781 6.578125zm0 0"/><path d="m403.742188 392.847656 11.699218 10.929688c3.710938-4 7.335938-8.128906 10.765625-12.34375l-12.40625-10.105469c-3.207031 3.9375-6.601562 7.816406-10.058593 11.519531zm0 0"/><path d="m381.425781 413.71875 10.109375 12.402344c4.207032-3.433594 8.351563-7.058594 12.328125-10.761719l-10.917969-11.695313c-3.730468 3.484376-7.570312 6.835938-11.519531 10.054688zm0 0"/><path d="m423.054688 369.136719 13.066406 9.261719c3.136718-4.4375 6.167968-9.039063 8.992187-13.695313l-13.664062-8.320313c-2.648438 4.304688-5.464844 8.609376-8.394531 12.753907zm0 0"/><path d="m356.488281 431.367188 8.3125 13.65625c4.625-2.824219 9.222657-5.847657 13.671875-8.992188l-9.25-13.054688c-4.117187 2.933594-8.421875 5.757813-12.734375 8.390626zm0 0"/><path d="m300.65625 455.6875 4.320312 15.410156c5.222657-1.464844 10.480469-3.136718 15.609376-4.960937l-5.386719-15.074219c-4.800781 1.738281-9.671875 3.265625-14.542969 4.625zm0 0"/><path d="m463.488281 255.289062 15.960938 1.070313c.367187-5.421875.550781-10.925781.550781-16.359375h-16c0 5.136719-.171875 10.230469-.511719 15.289062zm0 0"/><path d="m459.367188 285.550781 15.671874 3.203125c1.097657-5.304687 2.023438-10.746094 2.761719-16.144531l-15.855469-2.152344c-.6875 5.078125-1.554687 10.144531-2.578124 15.09375zm0 0"/><path d="m451.152344 314.976562 15.070312 5.351563c1.832032-5.152344 3.496094-10.398437 4.953125-15.617187l-15.414062-4.304688c-1.363281 4.859375-2.914063 9.761719-4.609375 14.570312zm0 0"/><path d="m438.953125 343.023438 14.207031 7.367187c2.503906-4.796875 4.871094-9.796875 7.039063-14.796875l-14.671875-6.402344c-2.023438 4.679688-4.238282 9.328125-6.574219 13.832032zm0 0"/><path d="m41.238281 343.398438-14.183593 7.410156c2.519531 4.800781 5.234374 9.597656 8.058593 14.230468l13.6875-8.34375c-2.671875-4.3125-5.199219-8.785156-7.5625-13.296874zm0 0"/><path d="m88.800781 426.398438c4.238281 3.449218 8.632813 6.777343 13.054688 9.898437l9.199219-13.097656c-4.164063-2.941407-8.230469-6.019531-12.199219-9.230469zm0 0"/><path d="m144.648438 460.3125c4.96875 2.152344 10.105468 4.175781 15.273437 6.007812l5.335937-15.089843c-4.800781-1.710938-9.601562-3.589844-14.234374-5.597657zm0 0"/><path d="m115.542969 445.246094c4.671875 2.84375 9.480469 5.539062 14.296875 8l7.351562-14.214844c-4.496094-2.320312-8.976562-4.839844-13.34375-7.488281zm0 0"/><path d="m64.800781 404.054688c3.734375 4 7.640625 7.882812 11.589844 11.570312l10.914063-11.714844c-3.695313-3.4375-7.34375-7.070312-10.832032-10.789062zm0 0"/><path d="m57.175781 369.464844-13.054687 9.246094c3.144531 4.433593 6.480468 8.800781 9.917968 13.023437l12.359376-10.132813c-3.199219-3.921874-6.292969-8-9.222657-12.136718zm0 0"/><path d="m270.742188 461.902344 2.167968 15.851562c5.371094-.738281 10.800782-1.664062 16.144532-2.777344l-3.246094-15.664062c-5.007813 1.03125-10.054688 1.902344-15.066406 2.589844zm0 0"/><path d="m207.609375 477.832031c5.351563.71875 10.832031 1.273438 16.292969 1.601563l1.066406-16c-5.113281-.335938-10.226562-.859375-15.199219-1.53125zm0 0"/><path d="m240.238281 464v16c5.480469 0 10.984375-.191406 16.371094-.566406l-1.097656-16c-5.039063.378906-10.128907.566406-15.273438.566406zm0 0"/><path d="m175.542969 471.238281c5.257812 1.464844 10.617187 2.761719 15.921875 3.851563l3.199218-15.675782c-4.953124-1.015624-9.953124-2.222656-14.847656-3.582031zm0 0"/><path d="m454.238281 159.601562c6.253907 6.25 6.253907 16.386719 0 22.636719-6.25 6.253907-16.386719 6.253907-22.636719 0l-11.28125-11.277343-16.960937 28.238281-6.640625-6.640625c-3.027344-2.96875-4.730469-7.035156-4.71875-11.277344v-38.640625l-39.601562-39.601563-28.238282 73.519532-6.878906-6.796875c-6.433594-6.472657-9.808594-15.375-9.28125-24.480469l4.800781-81.839844-28.242187-28.320312c-6.226563-6.230469-6.226563-16.332032 0-22.5625 6.230468-6.226563 16.332031-6.226563 22.5625 0l28.320312 28.242187 81.839844-4.800781c9.105469-.527344 18.007812 2.847656 24.480469 9.28125l6.796875 6.878906-73.519532 28.238282 39.601563 39.601562h38.640625c4.242188-.011719 8.308594 1.691406 11.277344 4.71875l6.640625 6.640625-28.238281 16.960937zm0 0"/><path d="m201.367188 376c2.125 0 4.164062-.839844 5.664062-2.34375l22.625-22.625c1.503906-1.5 2.34375-3.539062 2.34375-5.664062v-36.953126c0-1.441406-.390625-2.855468-1.136719-4.09375l-17.054687-28.527343c-1.457032-2.355469-4.03125-3.792969-6.800782-3.792969h-22.449218c-2.671875 0-5.171875 1.335938-6.65625 3.558594l-8.871094 13.3125c-2.964844 4.453125-7.960938 7.128906-13.3125 7.128906h-19.71875v15.28125c.015625 8.15625-4.128906 15.757812-10.992188 20.167969l-24.449218 15.75c13.6875 17.761719 30.621094 32.769531 49.898437 44.226562l17.0625-11.394531c3.945313-2.628906 8.585938-4.035156 13.328125-4.03125zm0 0"/><path d="m240 64c-10.816406.007812-21.609375 1.019531-32.238281 3.015625l.132812 11.703125c.082031 8.527344-4.351562 16.464844-11.65625 20.867188l-20.140625 12.085937c-3.4375 2.058594-4.820312 6.335937-3.242187 10.015625l13.695312 32c4.234375 9.917969 1.347657 21.441406-7.0625 28.191406l-26.113281 20.890625c-4.253906 3.390625-9.535156 5.234375-14.976562 5.230469h-15.789063l10.191406 35.601562c1.382813 4.832032.414063 10.03125-2.617187 14.042969-3.027344 4.007813-7.765625 6.363281-12.792969 6.355469h-8.445313c-6.058593.027344-11.605468-3.382812-14.3125-8.800781l-9.367187-18.734375c-1.335937-2.734375-4.113281-4.46875-7.152344-4.464844h-13.914062c-.121094 2.65625-.199219 5.320312-.199219 8-.027344 33.332031 9.472656 65.980469 27.375 94.097656l24.960938-16.097656c2.285156-1.472656 3.664062-4.003906 3.664062-6.71875v-15.28125c0-8.835938 7.164062-16 16-16h19.71875l8.875-13.3125c4.449219-6.675781 11.941406-10.6875 19.964844-10.6875h22.449218c8.371094.027344 16.132813 4.390625 20.503907 11.527344l17.089843 28.578125c2.222657 3.71875 3.398438 7.976562 3.398438 12.308593v36.953126c.019531 6.371093-2.515625 12.484374-7.03125 16.976562l-22.625 22.625c-4.492188 4.519531-10.605469 7.050781-16.976562 7.03125h-20.519532c-1.578125 0-3.125.46875-4.441406 1.34375l-9.8125 6.550781c51.640625 23.804688 111.621094 21.089844 160.902344-7.277343l-13.039063-21.289063c-7.257812-11.761719-7.890625-26.449219-1.671875-38.792969l3.640625-7.269531c4.039063-8.152344 12.363281-13.296875 21.460938-13.265625h11.28125c3.273437.011719 6.222656-1.984375 7.425781-5.03125l10.832031-27.082031c.378907-.941407.574219-1.949219.574219-2.964844v-17.601563l-9.601562-9.601562-19.6875 9.839844c-6.761719 3.367187-14.707032 3.367187-21.472657 0l-32-16c-8.136719-4.042969-13.269531-12.359375-13.238281-21.445313v-22.113281c-13.253906 0-24-10.746094-24-24v-8c.019531-7.550781 3.574219-14.65625 9.601562-19.199219l45.398438-37.386719 2.046875-34.839843c-20.679687-8.300781-42.761719-12.570313-65.046875-12.574219zm0 0"/><path d="m392 199.199219c-4.519531-4.488281-7.050781-10.597657-7.03125-16.96875v-35.320313l-28.554688-28.511718-28.269531 73.539062-15.519531-15.503906c-8.078125-8.085938-12.316406-19.234375-11.648438-30.640625l.742188-12.578125-34.519531 28.386718c-2.011719 1.507813-3.199219 3.878907-3.199219 6.398438v8c0 4.417969 3.582031 8 8 8 8.835938 0 16 7.164062 16 16v22.113281c-.007812 3.03125 1.707031 5.804688 4.425781 7.152344l32 16c2.25 1.125 4.898438 1.125 7.148438 0l19.691406-9.851563c6.160156-3.078124 13.601563-1.871093 18.46875 3l9.601563 9.601563c3 2.992187 4.675781 7.058594 4.664062 11.296875v17.597656c.007812 3.058594-.578125 6.085938-1.71875 8.921875l-10.824219 27.070313c-3.621093 9.136718-12.460937 15.128906-22.289062 15.097656h-11.28125c-3.03125-.007812-5.804688 1.707031-7.152344 4.425781l-3.636719 7.269531c-3.730468 7.40625-3.351562 16.21875 1.007813 23.273438l12.886719 21.03125c58.054687-40.5 86.0625-111.9375 71.007812-181.105469l-6.113281 10.175781zm0 0"/><path d="m78.113281 216c9.097657-.03125 17.421875 5.113281 21.460938 13.265625l9.371093 18.734375h8.445313l-10.191406-35.601562c-1.382813-4.832032-.414063-10.03125 2.617187-14.042969 3.027344-4.007813 7.765625-6.363281 12.792969-6.355469h15.789063c1.820312 0 3.582031-.617188 5-1.753906l26.113281-20.886719c2.785156-2.246094 3.738281-6.066406 2.335937-9.359375l-13.695312-32c-4.683594-11.035156-.550782-23.832031 9.703125-30.039062l20.144531-12.097657c2.441406-1.460937 3.917969-4.109375 3.886719-6.953125l-.09375-8.140625c-67.050781 19.222657-116.480469 76.148438-126.113281 145.230469zm0 0"/></svg>