<svg height="512pt" viewBox="0 0 512 512" width="512pt" xmlns="http://www.w3.org/2000/svg"><path d="m512 256c0 10.40625-.617188 20.667969-1.839844 30.742188-.929687 7.742187-2.195312 15.390624-3.800781 22.902343-6.125 28.757813-17.085937 55.714844-31.976563 79.996094-45.003906 73.394531-125.984374 122.359375-218.382812 122.359375s-173.378906-48.964844-218.382812-122.359375c-14.890626-24.28125-25.851563-51.238281-31.976563-79.996094-1.605469-7.511719-2.871094-15.160156-3.800781-22.902343-1.222656-10.074219-1.839844-20.335938-1.839844-30.742188 0-141.386719 114.613281-256 256-256s256 114.613281 256 256zm0 0" fill="#96d6d4"/><path d="m512 256c0 12.863281-.949219 25.515625-2.789062 37.867188-1.371094 9.246093-3.230469 18.328124-5.570313 27.21875-3.1875.753906-6.507813 1.148437-9.925781 1.148437-17.722656 0-32.945313-10.667969-39.613282-25.941406-6.664062 15.273437-21.890624 25.941406-39.632812 25.941406-17.722656 0-32.945312-10.667969-39.613281-25.941406-6.664063 15.273437-21.890625 25.941406-39.609375 25.941406-17.734375 0-32.957032-10.667969-39.632813-25.941406-6.667969 15.273437-21.890625 25.941406-39.613281 25.941406s-32.945312-10.667969-39.613281-25.941406c-6.675781 15.273437-21.898438 25.941406-39.632813 25.941406-17.71875 0-32.945312-10.667969-39.609375-25.941406-6.667969 15.273437-21.890625 25.941406-39.613281 25.941406-17.742188 0-32.96875-10.667969-39.632812-25.941406-6.667969 15.273437-21.890626 25.941406-39.613282 25.941406-3.417968 0-6.738281-.394531-9.925781-1.148437-2.339844-8.890626-4.199219-17.972657-5.570313-27.21875-1.839843-12.351563-2.789062-25.003907-2.789062-37.867188 0-5.507812.175781-10.972656.523438-16.394531 5.421874-2.457031 11.429687-3.8125 17.761718-3.8125 17.722656 0 32.945313 10.675781 39.613282 25.953125 6.664062-15.277344 21.890624-25.953125 39.632812-25.953125 17.722656 0 32.945312 10.675781 39.613281 25.953125 6.664063-15.277344 21.890625-25.953125 39.609375-25.953125 17.734375 0 32.957032 10.675781 39.632813 25.953125 6.667969-15.277344 21.890625-25.953125 39.613281-25.953125s32.945312 10.675781 39.613281 25.953125c6.675781-15.277344 21.898438-25.953125 39.632813-25.953125 17.71875 0 32.945312 10.675781 39.609375 25.953125 6.667969-15.277344 21.890625-25.953125 39.613281-25.953125 17.742188 0 32.96875 10.675781 39.632812 25.953125 6.667969-15.277344 21.890626-25.953125 39.613282-25.953125 6.332031 0 12.339844 1.355469 17.761718 3.8125.347657 5.421875.523438 10.886719.523438 16.394531zm0 0" fill="#0a9327"/><path d="m510.160156 286.742188c-15.171875 126.890624-123.183594 225.257812-254.160156 225.257812s-238.988281-98.367188-254.160156-225.257812zm0 0" fill="#0a9327"/><path d="m506.359375 309.644531c-5.925781 27.835938-16.386719 53.992188-30.566406 77.65625-.457031.785157-.929688 1.570313-1.410157 2.339844-45.003906 73.394531-125.984374 122.359375-218.382812 122.359375s-173.378906-48.964844-218.382812-122.359375c-.480469-.769531-.953126-1.554687-1.410157-2.339844-14.179687-23.664062-24.640625-49.820312-30.566406-77.65625 4.003906-1.222656 8.246094-1.878906 12.644531-1.878906 17.722656 0 32.945313 10.675781 39.613282 25.953125 6.664062-15.277344 21.890624-25.953125 39.632812-25.953125 17.722656 0 32.945312 10.675781 39.613281 25.953125 6.664063-15.277344 21.890625-25.953125 39.609375-25.953125 17.734375 0 32.957032 10.675781 39.632813 25.953125 6.667969-15.277344 21.890625-25.953125 39.613281-25.953125s32.945312 10.675781 39.613281 25.953125c6.675781-15.277344 21.898438-25.953125 39.632813-25.953125 17.71875 0 32.945312 10.675781 39.609375 25.953125 6.667969-15.277344 21.890625-25.953125 39.613281-25.953125 17.742188 0 32.96875 10.675781 39.632812 25.953125 6.667969-15.277344 21.890626-25.953125 39.613282-25.953125 4.398437 0 8.640625.65625 12.644531 1.878906zm0 0" fill="#17aa3d"/><path d="m475.792969 387.300781c-.457031.785157-.929688 1.570313-1.410157 2.339844-45.003906 73.394531-125.984374 122.359375-218.382812 122.359375s-173.378906-48.964844-218.382812-122.359375c-.480469-.769531-.953126-1.554687-1.410157-2.339844 4.15625-.980469 8.503907-1.503906 12.976563-1.503906 23.125 0 42.996094 13.9375 51.703125 33.875 8.691406-19.9375 28.566406-33.875 51.6875-33.875 23.144531 0 43.011719 13.9375 51.722656 33.875 8.707031-19.9375 28.578125-33.875 51.703125-33.875s42.996094 13.9375 51.703125 33.875c8.710937-19.9375 28.578125-33.875 51.722656-33.875 23.121094 0 42.996094 13.9375 51.6875 33.875 8.707031-19.9375 28.578125-33.875 51.703125-33.875 4.472656 0 8.820313.523437 12.976563 1.503906zm0 0" fill="#21bf4a"/><path d="m293.460938 166.457031-.066407-.015625c2.902344-14.542968-3.957031-29.023437-16.363281-36.199218-2.582031-1.5-5.414062-2.675782-8.445312-3.472657-17.5625-4.609375-35.519532 5.339844-41.09375 22.371094l-.066407-.015625c-1.101562-.289062-2.230469.371094-2.519531 1.472656-.289062 1.097656.371094 2.226563 1.472656 2.515625l.066406.019531c-1.84375 9.230469.25 18.429688 5.195313 25.757813.996094 6.53125 2.796875 13.929687 5.890625 21.78125l-.101562-.023437c-1.292969-.339844-2.613282.433593-2.953126 1.722656-.285156 1.082031.21875 2.179687 1.144532 2.707031l-2.210938 8.429687c-.851562 3.242188 1.085938 6.5625 4.328125 7.414063l11.476563 3.011719c3.242187.851562 6.5625-1.089844 7.414062-4.332032l2.210938-8.425781c1.066406-.007812 2.042968-.714843 2.324218-1.796875.339844-1.292968-.433593-2.613281-1.722656-2.953125l-1.15625-.304687c6.054688-4.917969 10.953125-10.039063 14.875-14.894532 8.832032-3.726562 15.996094-11.117187 19.167969-20.800781l.085937.023438c1.101563.289062 2.230469-.371094 2.519532-1.472657.285156-1.101562-.371094-2.230468-1.472656-2.519531zm-58.542969 16.5625c4 4.3125 9.148437 7.632813 15.144531 9.4375l-2.824219 10.765625-6.730469-1.765625c-2.691406-6.492187-4.457031-12.726562-5.589843-18.4375zm20.390625 22.320313-5.675782-1.488282 2.828126-10.773437c2.632812.589844 5.261718.878906 7.851562.851563 2.808594-.03125 5.570312-.414063 8.226562-1.109376-3.652343 4.167969-8.023437 8.441407-13.230468 12.519532zm0 0" fill="#79b7b4"/><path d="m473.496094 116.371094c-10.109375 38.507812-44.65625 64.105468-82.632813 64.527344-7.5625.089843-15.273437-.832032-22.953125-2.847657-46.1875-12.125-73.804687-59.394531-61.679687-105.582031 12.121093-46.191406 59.394531-73.804688 105.582031-61.683594 7.683594 2.019532 14.851562 5 21.394531 8.792969 32.871094 19.019531 50.394531 58.285156 40.289063 96.792969zm0 0" fill="#00657c"/><path d="m473.496094 116.371094c-10.109375 38.507812-44.65625 64.105468-82.632813 64.527344-32.882812-19.011719-50.40625-58.277344-40.296875-96.792969 10.113282-38.515625 44.660156-64.117188 82.640625-64.527344 32.871094 19.019531 50.394531 58.285156 40.289063 96.792969zm0 0" fill="#0084a6"/><g fill="#37323a"><path d="m472.167969 121.425781-167.265625-43.90625c-2.792969-.730469-4.460938-3.589843-3.726563-6.378906.730469-2.792969 3.585938-4.460937 6.378907-3.726563l167.265624 43.902344c2.792969.734375 4.460938 3.589844 3.726563 6.382813-.730469 2.789062-3.589844 4.457031-6.378906 3.726562zm0 0"/><path d="m379.125 215.460938c-.640625-.171876-1.230469-.542969-1.671875-1.101563-1.0625-1.363281-.824219-3.335937.539063-4.402344 57.019531-44.570312 74.929687-98.578125 75.105468-99.117187.53125-1.648438 2.296875-2.546875 3.945313-2.023438 1.648437.53125 2.550781 2.296875 2.019531 3.945313-.734375 2.28125-18.6875 56.390625-77.207031 102.136719-.804688.625-1.816407.800781-2.730469.5625zm0 0"/><path d="m337.09375 204.425781c-.917969-.238281-1.710938-.890625-2.101562-1.828125-28.511719-68.589844-17.574219-124.539062-17.09375-126.890625.34375-1.695312 2-2.789062 3.695312-2.441406 1.703125.347656 2.792969 2 2.445312 3.695313-.109374.554687-10.992187 56.507812 16.742188 123.226562.664062 1.601562-.09375 3.433594-1.691406 4.097656-.660156.277344-1.359375.308594-1.996094.140625zm0 0"/><path d="m358.421875 214.199219c-1.675781-.441407-2.675781-2.152344-2.238281-3.828125l30.644531-116.75c.441406-1.671875 2.152344-2.675782 3.828125-2.234375 1.671875.441406 2.675781 2.152343 2.234375 3.828125l-30.644531 116.746094c-.4375 1.675781-2.152344 2.675781-3.824219 2.238281zm0 0"/></g><path d="m388.683594 218.667969-7.15625 27.265625c-2.15625 8.21875-10.566406 13.132812-18.78125 10.972656l-29.066406-7.628906c-8.21875-2.15625-13.128907-10.5625-10.972657-18.78125l7.15625-27.269532zm0 0" fill="#d81d1d"/><path d="m385.738281 229.894531-4.210937 16.039063c-2.15625 8.21875-10.566406 13.132812-18.78125 10.972656l-10.703125-2.808594c-8.21875-2.15625-13.128907-10.5625-10.972657-18.78125l4.210938-16.039062zm0 0" fill="#f73e3e"/><path d="m385.539062 224.410156-55.753906-14.632812c-3.277344-.859375-5.234375-4.210938-4.371094-7.484375.855469-3.273438 4.207032-5.230469 7.480469-4.371094l55.757813 14.636719c3.273437.859375 5.230468 4.207031 4.371094 7.480468-.863282 3.273438-4.210938 5.230469-7.484376 4.371094zm0 0" fill="#d81d1d"/><path d="m238.292969 168c-12.300781 46.878906-54.359375 78.039062-100.589844 78.554688-9.207031.109374-18.59375-1.011719-27.941406-3.464844-56.226563-14.761719-89.84375-72.308594-75.085938-128.535156 14.757813-56.226563 72.304688-89.84375 128.53125-75.085938 9.351563 2.453125 18.078125 6.085938 26.042969 10.703125 40.019531 23.152344 61.347656 70.953125 49.042969 117.828125zm0 0" fill="#ff931f"/><path d="m238.292969 168c-12.300781 46.878906-54.359375 78.039062-100.589844 78.554688-40.03125-23.144532-61.359375-70.945313-49.054687-117.832032 12.308593-46.886718 54.363281-78.050781 100.601562-78.550781 40.019531 23.152344 61.347656 70.953125 49.042969 117.828125zm0 0" fill="#ffbb16"/><path d="m236.679688 174.152344-203.621094-53.445313c-3.398438-.894531-5.429688-4.371093-4.535156-7.769531.890624-3.398438 4.367187-5.425781 7.765624-4.535156l203.621094 53.445312c3.394532.894532 5.425782 4.371094 4.535156 7.769532-.890624 3.398437-4.367187 5.429687-7.765624 4.535156zm0 0" fill="#37323a"/><path d="m123.417969 288.625c-.78125-.203125-1.5-.652344-2.035157-1.335938-1.300781-1.660156-1.003906-4.058593.65625-5.359374 69.410157-54.257813 91.214844-120.003907 91.425782-120.664063.644531-2.003906 2.796875-3.097656 4.804687-2.457031 2.003907.644531 3.105469 2.796875 2.457031 4.800781-.894531 2.777344-22.75 68.644531-93.988281 124.335937-.976562.761719-2.210937.972657-3.320312.679688zm0 0" fill="#37323a"/><path d="m72.246094 275.195312c-1.113282-.292968-2.082032-1.082031-2.558594-2.226562-34.703125-83.5-21.390625-151.609375-20.808594-154.46875.421875-2.0625 2.4375-3.394531 4.5-2.976562 2.074219.429687 3.398438 2.4375 2.980469 4.5-.136719.679687-13.382813 68.792968 20.375 150.015624.8125 1.945313-.109375 4.175782-2.058594 4.988282-.800781.332031-1.652343.371094-2.429687.167968zm0 0" fill="#37323a"/><path d="m98.210938 287.09375c-2.039063-.535156-3.257813-2.625-2.722657-4.660156l37.304688-142.125c.535156-2.039063 2.621093-3.257813 4.660156-2.722656 2.039063.535156 3.257813 2.621093 2.722656 4.660156l-37.304687 142.121094c-.535156 2.039062-2.621094 3.261718-4.660156 2.726562zm0 0" fill="#37323a"/><path d="m135.050781 292.53125-8.710937 33.195312c-2.628906 10.003907-12.863282 15.984376-22.867188 13.359376l-35.382812-9.289063c-10.003906-2.625-15.984375-12.863281-13.355469-22.867187l8.710937-33.191407zm0 0" fill="#00657c"/><path d="m131.464844 306.199219-5.125 19.527343c-2.628906 10.003907-12.863282 15.980469-22.867188 13.355469l-13.027344-3.417969c-10.003906-2.625-15.980468-12.863281-13.355468-22.867187l5.125-19.523437zm0 0" fill="#0084a6"/><path d="m131.222656 299.523438-67.875-17.816407c-3.984375-1.042969-6.363281-5.121093-5.320312-9.105469 1.046875-3.984374 5.125-6.367187 9.109375-5.320312l67.875 17.8125c3.984375 1.046875 6.363281 5.125 5.320312 9.109375-1.046875 3.984375-5.125 6.367187-9.109375 5.320313zm0 0" fill="#00657c"/></svg>