<svg height="512pt" viewBox="0 0 512 512" width="512pt" xmlns="http://www.w3.org/2000/svg"><path d="m512 256c0 51.429688-15.160156 99.316406-41.273438 139.429688-45.652343 70.175781-124.769531 116.570312-214.726562 116.570312-89.601562 0-168.4375-46.027344-214.183594-115.722656-24.480468-37.300782-39.476562-81.386719-41.554687-128.824219-.1796878-3.792969-.261719-7.617187-.261719-11.453125 0-141.386719 114.613281-256 256-256 119.820312 0 220.410156 82.316406 248.308594 193.484375 5.027344 20.007813 7.691406 40.949219 7.691406 62.515625zm0 0" fill="#96d6d4"/><path d="m512 256c0 51.429688-15.160156 99.316406-41.273438 139.429688-48.828124 65.410156-126.851562 107.761718-214.769531 107.761718-87.53125 0-165.261719-41.984375-214.140625-106.914062-24.480468-37.300782-39.476562-81.386719-41.554687-128.824219 224.234375-2.050781 296.488281-70.542969 504.046875-73.96875 5.027344 20.007813 7.691406 40.949219 7.691406 62.515625zm0 0" fill="#a9e0dd"/><path d="m397.253906 147.882812c2.53125 0 4.585938 2.054688 4.585938 4.585938v9.433594c0 3.0625 2.492187 5.554687 5.554687 5.554687h.722657v-24.160156c0-2.535156 2.054687-4.585937 4.585937-4.585937s4.585937 2.050781 4.585937 4.585937v56.5625c2.964844-.109375 5.347657-2.550781 5.347657-5.542969v-13.710937c0-2.535157 2.050781-4.585938 4.585937-4.585938 2.53125 0 4.585938 2.054688 4.585938 4.585938v13.710937c0 8.050782-6.492188 14.609375-14.519532 14.722656v36.398438c0 2.535156-2.054687 4.585938-4.585937 4.585938s-4.585937-2.050782-4.585937-4.585938v-68.808594h-.722657c-8.121093 0-14.730469-6.605468-14.730469-14.726562v-9.433594c0-2.53125 2.054688-4.585938 4.589844-4.585938zm0 0" fill="#21bf4a"/><path d="m375.503906 179.042969v56.007812h-9.171875v-22.675781h-.722656c-8.117187 0-14.722656-6.601562-14.722656-14.734375v-9.421875c0-2.539062 2.046875-4.589844 4.585937-4.589844 2.53125 0 4.589844 2.050782 4.589844 4.589844v9.421875c0 3.0625 2.484375 5.5625 5.546875 5.5625h.722656v-24.160156c0-2.539063 2.058594-4.585938 4.585938-4.585938 2.539062 0 4.585937 2.046875 4.585937 4.585938zm0 0" fill="#21bf4a"/><path d="m512 256c0 42.339844-10.28125 82.273438-28.472656 117.457031-42.570313 82.296875-128.480469 138.542969-227.527344 138.542969-124.613281 0-228.4375-89.035156-251.308594-206.964844-1.160156-6.015625-2.121094-12.109375-2.863281-18.261718v-.011719c227.664063 0 293.5-70.863281 507.046875-70.863281 2.058594 13.058593 3.125 26.457031 3.125 40.101562zm0 0" fill="#ff931f"/><path d="m117.664062 74.285156c-7.023437 0-12.722656 5.699219-12.722656 12.722656v26.160157c0 8.496093-6.910156 15.40625-15.402344 15.40625h-2.007812v-67.011719c0-7.027344-5.695312-12.722656-12.722656-12.722656s-12.722656 5.695312-12.722656 12.722656v156.894531c-8.222657-.308593-14.824219-7.078125-14.824219-15.375v-38.035156c0-7.027344-5.695313-12.722656-12.722657-12.722656-7.027343 0-12.726562 5.695312-12.726562 12.722656v38.035156c0 22.332031 18.015625 40.527344 40.273438 40.839844v100.953125c0 7.027344 5.695312 12.726562 12.722656 12.726562s12.722656-5.699218 12.722656-12.726562v-190.855469h2.007812c22.523438 0 40.851563-18.324219 40.851563-40.851562v-26.160157c0-7.027343-5.699219-12.722656-12.726563-12.722656zm0 0" fill="#21bf4a"/><path d="m483.527344 373.457031c-42.570313 82.296875-128.480469 138.542969-227.527344 138.542969-77.96875 0-147.789062-34.859375-194.75-89.828125-3.957031-4.640625-7.761719-9.417969-11.378906-14.335937-9.089844-12.320313-17.101563-25.488282-23.894532-39.351563-2.308593-4.703125-4.472656-9.488281-6.488281-14.347656-6.5-15.640625-11.496093-32.066407-14.796875-49.101563.15625-.019531.3125-.039062.46875-.0625 25.707032-3.550781 50.40625-5.160156 74.242188-5.265625 161.457031-.730469 283.019531 67.65625 404.125 73.75zm0 0" fill="#ffbb16"/><path d="m350.457031 447.75c0 17.09375-2.558593 33.570312-7.300781 49.027344-3.136719 1.136718-6.300781 2.214844-9.488281 3.226562-4.035157 1.285156-8.121094 2.464844-12.238281 3.554688-1.355469.355468-2.714844.710937-4.082032 1.042968-1.863281.449219-3.730468.890626-5.601562 1.308594-2.757813.613282-5.527344 1.179688-8.308594 1.703125-.949219-2.445312-1.839844-4.921875-2.664062-7.429687-5.433594-16.449219-8.378907-34.085938-8.378907-52.433594 0-28.378906 7.050781-55.054688 19.445313-78.253906 2.046875-3.835938 5.808594-5.757813 9.589844-5.757813 3.761718-.007812 7.535156 1.914063 9.582031 5.75 6.824219 12.777344 12.039062 26.613281 15.339843 41.207031 2.6875 11.902344 4.105469 24.304688 4.105469 37.054688zm0 0" fill="#21bf4a"/><path d="m321.429688 363.738281v139.820313c-1.355469.355468-2.714844.710937-4.082032 1.042968-1.863281.449219-3.730468.890626-5.601562 1.308594-2.757813.613282-5.527344 1.179688-8.308594 1.703125-.949219-2.445312-1.839844-4.921875-2.664062-7.429687-5.433594-16.449219-8.378907-34.085938-8.378907-52.433594 0-28.378906 7.050781-55.054688 19.445313-78.253906 2.046875-3.835938 5.808594-5.757813 9.589844-5.757813zm0 0" fill="#2cce5a"/><path d="m317.347656 504.601562c-1.863281.449219-3.730468.890626-5.601562 1.308594-5.132813 1.136719-10.3125 2.128906-15.558594 2.957032-2.269531.351562-4.546875.6875-6.824219.980468-3.898437-6.625-7.605469-14.210937-11.085937-22.746094-10.972656-26.949218-18.066406-59.800781-21.296875-94.398437-.488281-5.222656 5.488281-8.640625 9.65625-5.441406.042969.03125.074219.050781.117187.082031 11.859375 9.132812 23.039063 25.253906 32.441406 48.359375 3.292969 8.097656 6.238282 16.714844 8.832032 25.753906 3.886718 13.5625 7 28.066407 9.320312 43.144531zm0 0" fill="#17aa3d"/><path d="m311.746094 505.910156c-5.132813 1.136719-10.3125 2.128906-15.558594 2.957032-10.292969 1.628906-20.792969 2.632812-31.460938 2.988281-2.832031-2.71875-5.59375-5.601563-8.246093-8.664063-16.269531-18.734375-26.886719-41.523437-31.835938-65.558594-.921875-4.4375 3.238281-8.285156 7.605469-7.039062 20.417969 5.851562 39.757812 17.960938 55.714844 36.339844 8.585937 9.894531 15.597656 20.910156 21.03125 32.640625.972656 2.089843 1.890625 4.203125 2.75 6.335937zm0 0" fill="#2cce5a"/><path d="m385.878906 392.714844c-3.226562 34.585937-10.332031 67.4375-21.292968 94.386718-.136719.324219-.273438.65625-.40625.980469-6.84375 3.199219-13.855469 6.101563-21.023438 8.695313-3.136719 1.136718-6.300781 2.214844-9.488281 3.226562-2.582031.824219-5.183594 1.597656-7.804688 2.332032 3.886719-24.273438 9.820313-47.023438 17.804688-66.632813 9.402343-23.105469 20.574219-39.226563 32.441406-48.359375 4.210937-3.238281 10.261719.074219 9.769531 5.371094zm0 0" fill="#17aa3d"/><path d="m418.21875 437.632812c-1.480469 7.199219-3.476562 14.273438-5.976562 21.171876-23.320313 18.003906-49.851563 32.066406-78.574219 41.199218 5.464843-11.890625 12.539062-23.050781 21.230469-33.070312 15.957031-18.378906 35.296874-30.488282 55.714843-36.339844 4.359375-1.246094 8.527344 2.601562 7.605469 7.039062zm0 0" fill="#21bf4a"/><path d="m296.1875 508.867188c-13.09375 2.066406-26.511719 3.132812-40.1875 3.132812-11.765625 0-23.351562-.792969-34.699219-2.332031-11.128906-7.824219-19.269531-16.445313-24.410156-25.441407-2.476563-4.324218 1.136719-9.59375 6.082031-8.976562 27.332032 3.40625 53.257813 10.691406 74.582032 21.871094 7.011718 3.675781 13.230468 7.617187 18.632812 11.746094zm0 0" fill="#21bf4a"/><path d="m360.375 72.4375c0 30.082031-24.382812 54.464844-54.464844 54.464844-30.082031 0-54.46875-24.382813-54.46875-54.464844s24.386719-54.46875 54.46875-54.46875c30.082032 0 54.464844 24.386719 54.464844 54.46875zm0 0" fill="#f73e3e"/><g fill="#ff931f"><path d="m66.59375 363.640625c0 5.78125-4.683594 10.46875-10.464844 10.46875s-10.46875-4.6875-10.46875-10.46875 4.6875-10.46875 10.46875-10.46875 10.464844 4.6875 10.464844 10.46875zm0 0"/><path d="m84.050781 394.023438c0 5.78125-4.6875 10.46875-10.46875 10.46875s-10.464843-4.6875-10.464843-10.46875 4.683593-10.46875 10.464843-10.46875 10.46875 4.6875 10.46875 10.46875zm0 0"/><path d="m96.265625 363.871094c0 5.78125-4.6875 10.46875-10.46875 10.46875s-10.464844-4.6875-10.464844-10.46875 4.683594-10.46875 10.464844-10.46875 10.46875 4.6875 10.46875 10.46875zm0 0"/></g></svg>