<svg height="512pt" viewBox="0 0 512.00004 512" width="512pt" xmlns="http://www.w3.org/2000/svg"><path d="m512 256c0 141.382812-114.613281 255.996094-256 255.996094-141.382812 0-255.99609375-114.613282-255.99609375-255.996094 0-18.183594 1.89062475-35.925781 5.50390575-53.039062 24.421876-115.933594 127.300782-202.960938 250.492188-202.960938 34.410156 0 67.230469 6.792969 97.199219 19.101562 40.75 16.738282 76.234375 43.6875 103.253906 77.664063 24.261719 30.503906 41.710937 66.664063 50.039063 106.195313 3.617187 17.113281 5.507812 34.855468 5.507812 53.039062zm0 0" fill="#96d6d4"/><path d="m338.589844 183.09375-.035156 5.011719-5.945313-.042969.070313-9.675781-6.621094-.046875.070312-9.328125-5.441406-.039063-.070312 9.328125-4.535157-.035156.070313-9.328125-5.441406-.039062-.070313 9.328124-3.367187-.023437-.070313 9.671875-5.652344-.039062 1.792969 19.359374 41.804688.300782 9.507812-24.285156zm0 0" fill="#2f373b"/><path d="m512 256c0 141.382812-114.613281 255.996094-256 255.996094-141.382812 0-255.99609375-114.613282-255.99609375-255.996094 0-18.183594 1.89062475-35.925781 5.50390575-53.039062h500.984376c3.617187 17.113281 5.507812 34.855468 5.507812 53.039062zm0 0" fill="#0084a6"/><path d="m477.632812 281.933594c0 27.6875-145.238281 7.261718-145.238281 7.261718l-8.171875-2.269531c0-38.574219-78.085937-6.695312-74.898437-34.492187 3.199219-27.792969 86.695312-8.167969 86.695312-23.152344 0-14.972656-73.078125 4.179688-73.078125-10.792969 0-14.984375 83.976563-4.179687 82.210938-10.992187-1.546875-5.957032-44.542969-1.496094-55.285156-4.535156h87.007812c34.722656 0 26.320312 10.886718-.910156 10.886718-27.238282 0-29.046875 15.433594 15.882812 15.433594 44.929688 0 64 4.085938 64 14.523438s-91.6875-7.710938-93.957031 7.261718c-2.265625 14.984375 115.742187 3.175782 115.742187 30.867188zm0 0" fill="#69b8d4"/><path d="m472.722656 392.316406c-6.132812 9.714844-12.894531 19.003906-20.238281 27.78125-46.949219 56.175782-117.542969 91.898438-196.484375 91.898438-132.46875 0-241.441406-100.621094-254.660156-229.605469-.21875-2.121094-.40625-4.25-.5625-6.394531 36.914062-12.117188 75.878906-19.851563 116.023437-23.015625 40.164063-3.167969 80.027344-1.609375 118.511719 4.617187 101.886719 16.476563 187.902344 64.84375 235.988281 132.710938zm0 0" fill="#f1eee9"/><path d="m452.484375 420.097656c-.09375.117188-.1875.230469-.285156.347656-46.957031 55.972657-117.421875 91.550782-196.199219 91.550782-132.46875 0-241.441406-100.621094-254.660156-229.605469 39.269531-10.894531 81.910156-16.863281 126.472656-16.863281 39.457031 0 77.398438 4.683594 112.828125 13.324218 95.222656 23.195313 172.3125 74.96875 211.84375 141.246094zm0 0" fill="#ffbb16"/><path d="m240.640625 278.851562c-68.773437-11.316406-171.632813 49.882813-140.953125 179.898438-54.085938-41.753906-91-104.679688-98.347656-176.359375 39.269531-10.894531 81.910156-16.863281 126.472656-16.863281 39.457031 0 77.398438 4.683594 112.828125 13.324218zm0 0" fill="#ff931f"/><path d="m163.164062 335.234375-29.96875-5.863281-21.304687-4.167969c12.871094-65.820313 9.046875-120.257813 3.574219-154.34375-5.96875-37.09375-15.121094-58.855469-15.214844-59.078125l16.96875-7.332031 30.992188-13.398438c1.753906 4.066407 42.914062 101.21875 14.953124 244.183594zm0 0" fill="#ab5816"/><path d="m133.195312 329.371094-21.304687-4.167969c12.871094-65.820313 9.046875-120.257813 3.574219-154.34375-5.96875-37.09375-15.121094-58.855469-15.214844-59.078125l16.96875-7.332031c7.535156 19.632812 35.957031 104.675781 15.976562 224.921875zm0 0" fill="#8c3e09"/><path d="m137.011719 142.226562c0 15.328126-12.425781 27.753907-27.753907 27.753907-15.324218 0-27.75-12.425781-27.75-27.753907 0-15.328124 12.425782-27.753906 27.75-27.753906 15.328126 0 27.753907 12.425782 27.753907 27.753906zm0 0" fill="#2f373b"/><path d="m184.035156 131.777344c0 15.328125-12.425781 27.753906-27.753906 27.753906-15.324219 0-27.75-12.425781-27.75-27.753906s12.425781-27.753906 27.75-27.753906c15.328125 0 27.753906 12.425781 27.753906 27.753906zm0 0" fill="#2f373b"/><path d="m134.226562 119.839844c-27.117187-38.085938-38.570312-76.265625-.488281-103.675782 24.644531-17.742187 55.519531-20.519531 81.792969-10.097656 8.679688 3.441406 9.394531 15.371094 1.183594 19.820313-50.566406 27.386719-44.371094 84.257812-82.488282 93.953125zm0 0" fill="#17aa3d"/><path d="m134.226562 119.839844c-.246093-46.75-13.257812-84.429688-60.175781-84.429688-30.367187 0-57.042969 15.785156-72.28125 39.59375-5.035156 7.863282 1.359375 17.960938 10.617188 16.773438 57.042969-7.3125 85.234375 42.460937 121.839843 28.0625zm0 0" fill="#21bf4a"/><path d="m134.226562 119.839844c-4.757812 16.992187-18.796874 24.84375-35.417968 32.835937-4.652344 2.238281-10.203125 1.210938-13.773438-2.519531-6.085937-6.359375-15.8125-13.101562-29.699218-13.101562 0 0 7.0625 10.140624 11.578124 21.566406 1.980469 5.019531.257813 10.703125-4.070312 13.925781-9.117188 6.792969-17.636719 15.480469-24.527344 27.5-4.636718 8.101563-16.550781 7.097656-19.78125-1.65625-9.789062-26.523437-6.273437-57.316406 12.058594-81.523437 28.320312-37.417969 66.207031-25.046876 103.632812 2.972656zm0 0" fill="#2cce5a"/><path d="m256.0625 91.777344c-2.4375-.316406-4.816406-.523438-7.152344-.632813-4.078125-.199219-7.703125-2.613281-9.492187-6.285156-2.53125-5.195313-5.984375-10.65625-10.644531-15.3125.066406.269531 1.300781 4.984375 2.441406 11.421875 1.023437 5.746094-2.519532 11.363281-8.183594 12.777344-36.460938 9.089844-60.039062 37.410156-88.804688 26.097656.238282-46.75 13.25-84.429688 60.171876-84.429688 30.371093 0 57.042968 15.78125 72.28125 39.59375 5.03125 7.859376-1.351563 17.960938-10.617188 16.769532zm0 0" fill="#21bf4a"/><path d="m134.226562 119.839844c34.878907-31.125 71.578126-46.691406 102.996094-11.847656 20.335938 22.554687 26.476563 52.9375 19 80.195312-2.46875 9.003906-14.25 11.019531-19.570312 3.347656-32.765625-47.257812-88.613282-34.867187-102.425782-71.695312zm0 0" fill="#2cce5a"/><g fill="#ff931f"><path d="m418.875 421.109375c0 4.796875-3.886719 8.683594-8.679688 8.683594-4.792968 0-8.679687-3.886719-8.679687-8.683594 0-4.792969 3.886719-8.679687 8.679687-8.679687 4.792969 0 8.679688 3.886718 8.679688 8.679687zm0 0"/><path d="m397.582031 399.636719c0 4.792969-3.886719 8.679687-8.683593 8.679687-4.792969 0-8.679688-3.886718-8.679688-8.679687s3.886719-8.679688 8.679688-8.679688c4.796874 0 8.683593 3.886719 8.683593 8.679688zm0 0"/><path d="m394.125 427.09375c0 4.792969-3.882812 8.679688-8.679688 8.679688-4.792968 0-8.679687-3.886719-8.679687-8.679688s3.886719-8.679688 8.679687-8.679688c4.796876 0 8.679688 3.886719 8.679688 8.679688zm0 0"/><path d="m170.203125 413.449219c0 4.796875-3.886719 8.683593-8.683594 8.683593-4.792969 0-8.679687-3.886718-8.679687-8.683593 0-4.792969 3.886718-8.679688 8.679687-8.679688 4.796875 0 8.683594 3.886719 8.683594 8.679688zm0 0"/><path d="m178.371094 440.515625c0 4.792969-3.886719 8.679687-8.679688 8.679687-4.792968 0-8.679687-3.886718-8.679687-8.679687 0-4.796875 3.886719-8.683594 8.679687-8.683594 4.792969 0 8.679688 3.886719 8.679688 8.683594zm0 0"/><path d="m196.65625 421.984375c0 4.792969-3.886719 8.679687-8.683594 8.679687-4.792968 0-8.679687-3.886718-8.679687-8.679687s3.886719-8.679687 8.679687-8.679687c4.796875 0 8.683594 3.886718 8.683594 8.679687zm0 0"/></g><path d="m350.460938 447.746094c0 17.09375-2.5625 33.574218-7.304688 49.027344-3.136719 1.136718-6.300781 2.214843-9.488281 3.226562-4.03125 1.285156-8.117188 2.46875-12.234375 3.554688-1.359375.355468-2.71875.710937-4.085938 1.042968-1.859375.449219-3.730468.890625-5.601562 1.308594-2.757813.617188-5.527344 1.179688-8.304688 1.703125-.953125-2.445313-1.839844-4.921875-2.667968-7.429687-5.433594-16.445313-8.378907-34.085938-8.378907-52.433594 0-28.378906 7.054688-55.054688 19.445313-78.25 2.046875-3.835938 5.808594-5.757813 9.59375-5.757813 3.761718-.011719 7.53125 1.910157 9.582031 5.746094 6.820313 12.777344 12.035156 26.613281 15.335937 41.210937 2.6875 11.902344 4.109376 24.304688 4.109376 37.050782zm0 0" fill="#21bf4a"/><path d="m321.433594 363.738281v139.816407c-1.359375.355468-2.71875.710937-4.085938 1.042968-1.859375.449219-3.730468.890625-5.601562 1.308594-2.757813.617188-5.527344 1.179688-8.304688 1.703125-.953125-2.445313-1.839844-4.921875-2.667968-7.429687-5.433594-16.445313-8.378907-34.085938-8.378907-52.433594 0-28.378906 7.054688-55.054688 19.445313-78.25 2.046875-3.835938 5.808594-5.757813 9.59375-5.757813zm0 0" fill="#2cce5a"/><path d="m317.347656 504.597656c-1.859375.449219-3.730468.890625-5.601562 1.308594-5.128906 1.136719-10.3125 2.128906-15.558594 2.957031-2.265625.355469-4.542969.6875-6.824219.980469-3.894531-6.625-7.605469-14.210938-11.085937-22.746094-10.96875-26.949218-18.066406-59.800781-21.292969-94.394531-.492187-5.226563 5.484375-8.644531 9.652344-5.445313.042969.03125.074219.050782.117187.082032 11.859375 9.132812 23.039063 25.257812 32.445313 48.359375 3.289062 8.097656 6.234375 16.71875 8.828125 25.757812 3.886718 13.5625 7 28.0625 9.320312 43.140625zm0 0" fill="#17aa3d"/><path d="m311.746094 505.90625c-5.128906 1.136719-10.3125 2.128906-15.558594 2.957031-10.292969 1.628907-20.792969 2.632813-31.460938 2.988281-2.832031-2.71875-5.589843-5.601562-8.246093-8.664062-16.265625-18.734375-26.882813-41.523438-31.835938-65.554688-.917969-4.441406 3.238281-8.285156 7.605469-7.042968 20.417969 5.851562 39.757812 17.960937 55.714844 36.339844 8.589844 9.894531 15.601562 20.910156 21.035156 32.644531.96875 2.089843 1.890625 4.199219 2.746094 6.332031zm0 0" fill="#2cce5a"/><path d="m385.882812 392.710938c-3.230468 34.585937-10.335937 67.4375-21.296874 94.386718-.136719.324219-.269532.65625-.40625.980469-6.84375 3.199219-13.855469 6.101563-21.023438 8.695313-3.136719 1.136718-6.300781 2.214843-9.488281 3.226562-2.582031.828125-5.183594 1.601562-7.804688 2.332031 3.886719-24.273437 9.820313-47.019531 17.804688-66.632812 9.402343-23.101563 20.574219-39.226563 32.445312-48.359375 4.210938-3.238282 10.257813.074218 9.769531 5.371094zm0 0" fill="#17aa3d"/><path d="m418.222656 437.632812c-1.484375 7.199219-3.480468 14.273438-5.976562 21.167969-23.324219 18.003907-49.855469 32.070313-78.578125 41.199219 5.464843-11.890625 12.539062-23.046875 21.234375-33.070312 15.953125-18.378907 35.292968-30.488282 55.710937-36.339844 4.359375-1.242188 8.527344 2.601562 7.609375 7.042968zm0 0" fill="#21bf4a"/><path d="m296.1875 508.863281c-13.09375 2.066407-26.507812 3.132813-40.1875 3.132813-11.765625 0-23.351562-.792969-34.699219-2.328125-11.128906-7.828125-19.269531-16.449219-24.410156-25.445313-2.476563-4.324218 1.140625-9.589844 6.082031-8.972656 27.335938 3.40625 53.257813 10.6875 74.585938 21.867188 7.011718 3.679687 13.226562 7.617187 18.628906 11.746093zm0 0" fill="#21bf4a"/><path d="m105.023438 325.117188c0 12.644531-8.472657 23.324218-20.039063 26.65625-2.445313.722656-5.035156 1.097656-7.710937 1.097656-15.328126 0-27.753907-12.433594-27.753907-27.753906 0-15.328126 12.425781-27.75 27.753907-27.75 2.675781 0 5.265624.375 7.710937 1.097656 11.566406 3.332031 20.039063 14 20.039063 26.652344zm0 0" fill="#2f373b"/><path d="m105.023438 325.117188c0 12.644531-8.472657 23.324218-20.039063 26.65625-11.566406-3.332032-20.042969-14.011719-20.042969-26.65625 0-12.652344 8.476563-23.320313 20.042969-26.652344 11.566406 3.332031 20.039063 14 20.039063 26.652344zm0 0" fill="#757177"/><path d="m92.359375 316.320312c0 2.035157-1.652344 3.6875-3.6875 3.6875s-3.6875-1.652343-3.6875-3.6875c0-2.039062 1.652344-3.6875 3.6875-3.6875s3.6875 1.648438 3.6875 3.6875zm0 0" fill="#2f373b"/><path d="m99.800781 324.65625c0 2.035156-1.648437 3.6875-3.6875 3.6875-2.035156 0-3.6875-1.652344-3.6875-3.6875 0-2.039062 1.652344-3.6875 3.6875-3.6875 2.039063 0 3.6875 1.648438 3.6875 3.6875zm0 0" fill="#2f373b"/><path d="m89.375 327.148438c0 2.039062-1.648438 3.6875-3.683594 3.6875-2.039062 0-3.6875-1.648438-3.6875-3.6875 0-2.035157 1.648438-3.6875 3.6875-3.6875 2.035156 0 3.683594 1.652343 3.683594 3.6875zm0 0" fill="#2f373b"/><path d="m456.453125 96.765625c-2.003906 41.304687-36.121094 74.1875-77.925781 74.1875-43.09375 0-78.035156-34.941406-78.035156-78.03125 0-34.230469 22.046874-63.300781 52.707031-73.820313 40.75 16.738282 76.234375 43.6875 103.253906 77.664063zm0 0" fill="#bdefec"/><path d="m433.792969 92.957031c0 30.078125-24.386719 54.464844-54.46875 54.464844-30.078125 0-54.464844-24.386719-54.464844-54.464844 0-30.082031 24.386719-54.46875 54.464844-54.46875 30.082031 0 54.46875 24.386719 54.46875 54.46875zm0 0" fill="#ffbb16"/></svg>