<svg height="512pt" viewBox="0 0 512 512" width="512pt" xmlns="http://www.w3.org/2000/svg"><path d="m512 255.738281v.261719c0 2.9375-.050781 5.863281-.144531 8.777344-.03125 1.023437-.074219 2.058594-.128907 3.082031-.039062 1.085937-.101562 2.171875-.164062 3.25-.542969 9.414063-1.601562 18.691406-3.148438 27.816406-.636718 3.75-1.355468 7.480469-2.152343 11.179688-.207031.980469-.425781 1.964843-.644531 2.933593-.222657.972657-.449219 1.945313-.679688 2.917969-1.964844 8.203125-4.328125 16.257813-7.074219 24.136719-.816406 2.339844-1.664062 4.671875-2.550781 6.980469-4.648438 12.203125-10.199219 23.96875-16.582031 35.203125-44 77.46875-127.269531 129.722656-222.730469 129.722656-107.175781 0-198.96875-65.859375-237.109375-159.316406-1.691406-4.148438-3.28125-8.335938-4.753906-12.589844-9.164063-26.34375-14.136719-54.636719-14.136719-84.09375 0-20.144531 2.332031-39.738281 6.730469-58.546875 26.476562-113.171875 128.03125-197.453125 249.269531-197.453125 103.882812 0 193.316406 61.878906 233.449219 150.789062 9.667969 21.410157 16.46875 44.378907 19.929687 68.429688v.054688c1.722656 11.910156 2.609375 24.082031 2.621094 36.464843zm0 0" fill="#96d6d4"/><path d="m392.832031 84.839844c0 20.871094-16.917969 37.789062-37.785156 37.789062s-37.785156-16.917968-37.785156-37.789062c0-20.867188 16.917969-37.785156 37.785156-37.785156s37.785156 16.917968 37.785156 37.785156zm0 0" fill="#ffbb16"/><path d="m118.117188 197.453125v155.230469h-99.226563c-1.691406-4.148438-3.28125-8.335938-4.753906-12.589844-9.164063-26.34375-14.136719-54.636719-14.136719-84.09375 0-20.144531 2.332031-39.738281 6.730469-58.546875zm0 0" fill="#0084a6"/><path d="m198.589844 233.753906c34.898437 8.34375 69.800781 8.34375 104.707031 0 .496094-9.726562.925781-19.453125 1.292969-29.191406.238281-6.203125.445312-12.410156.625-18.613281.085937-3.070313.171875-6.148438.25-9.234375.15625-6.207032.285156-12.410156.386718-18.617188.058594-3.074218.101563-6.152344.144532-9.222656.070312-6.214844.128906-12.417969.148437-18.625.023438-3.078125.03125-6.148438.03125-9.226562v-.003907c.003907-6.207031-.023437-12.410156-.074219-18.617187-.023437-3.078125-.050781-6.15625-.09375-9.234375-.070312-6.203125-.164062-12.410157-.292968-18.613281-.0625-3.070313-.128906-6.148438-.207032-9.226563-.144531-6.214844-.324218-12.417969-.523437-18.625-.101563-3.074219-.207031-6.152344-.324219-9.222656-.230468-6.214844-.480468-12.417969-.761718-18.625-.066407-1.511719-.132813-3.019531-.207032-4.53125-.226562-4.835938-3.726562-8.875-8.476562-9.832031-29.515625-5.96875-59.027344-5.96875-88.539063-.003907-4.738281.957031-8.253906 4.984375-8.480469 9.816407-3.441406 73.148437-3.308593 146.300781.394532 219.449218zm0 0" fill="#969087"/><path d="m174.6875 353.0625c50.832031 12.148438 101.667969 12.148438 152.511719 0 .722656-14.171875 1.347656-28.339844 1.882812-42.519531.34375-9.039063.648438-18.074219.910157-27.113281.125-4.472657.25-8.957032.363281-13.449219.230469-9.039063.417969-18.078125.566406-27.113281.082031-4.484376.144531-8.964844.207031-13.4375.105469-9.050782.1875-18.089844.21875-27.128907.03125-4.480469.042969-8.953125.042969-13.433593v-.011719c.011719-9.039063-.03125-18.078125-.105469-27.117188-.03125-4.480469-.074218-8.964843-.136718-13.445312-.101563-9.039063-.238282-18.078125-.425782-27.117188-.09375-4.472656-.1875-8.953125-.304687-13.4375-.207031-9.046875-.46875-18.085937-.761719-27.125-.148438-4.480469-.304688-8.964843-.46875-13.4375-.335938-9.046875-.703125-18.085937-1.109375-27.125-.132813-2.996093-.273437-5.988281-.414063-8.980469-.265624-5.546874-4.207031-10.265624-9.644531-11.410156-44.71875-9.398437-89.433593-9.402344-134.144531 0-5.425781 1.140625-9.382812 5.84375-9.648438 11.378906-5.125 107.339844-4.972656 214.679688.460938 322.023438zm0 0" fill="#b1aba2"/><g fill="#37323a"><path d="m233 40.050781v27.125h-60.300781c.335937-9.046875.703125-18.085937 1.109375-27.125zm0 0"/><path d="m233 80.613281v27.125h-61.53125c.207031-9.046875.46875-18.085937.761719-27.125zm0 0"/><path d="m233 121.175781v27.117188h-62.265625c.105469-9.039063.242187-18.078125.429687-27.117188zm0 0"/><path d="m233 161.738281v27.117188h-62.503906c-.011719-9.039063.03125-18.078125.105468-27.117188zm0 0"/><path d="m233 161.738281v27.128907h-62.503906v-.011719c-.011719-9.039063.03125-18.078125.105468-27.117188zm0 0"/><path d="m233 202.300781v27.128907h-62.242188c-.105468-9.050782-.1875-18.089844-.21875-27.128907zm0 0"/><path d="m233 242.867188v27.113281h-61.46875c-.230469-9.039063-.417969-18.078125-.566406-27.113281zm0 0"/><path d="m233 283.429688v27.113281h-60.195312c-.34375-9.039063-.648438-18.074219-.910157-27.113281zm0 0"/><path d="m268.882812 40.050781v27.125h60.304688c-.335938-9.046875-.703125-18.085937-1.109375-27.125zm0 0"/><path d="m268.882812 80.613281v27.125h61.535157c-.207031-9.046875-.46875-18.085937-.761719-27.125zm0 0"/><path d="m268.882812 121.175781v27.117188h62.265626c-.101563-9.039063-.238282-18.078125-.425782-27.117188zm0 0"/><path d="m268.882812 161.738281v27.128907h62.507813v-.011719c.011719-9.039063-.03125-18.078125-.105469-27.117188zm0 0"/><path d="m268.882812 202.300781v27.128907h62.246094c.105469-9.050782.1875-18.089844.21875-27.128907zm0 0"/><path d="m268.882812 242.867188v27.113281h61.472657c.230469-9.039063.417969-18.078125.566406-27.113281zm0 0"/><path d="m268.882812 283.429688v27.113281h60.199219c.34375-9.039063.648438-18.074219.910157-27.113281zm0 0"/></g><path d="m508.414062 298.925781c-2.390624 14.148438-5.933593 27.90625-10.550781 41.167969-.816406 2.339844-1.664062 4.671875-2.550781 6.980469-67.1875 6.246093-134.363281 5.953125-201.539062-.859375-7.03125-58.992188-7.648438-117.988282-1.851563-176.984375.554687-5.683594 1.171875-11.367188 1.851563-17.050781 65.222656-6.613282 130.445312-7.085938 195.675781-1.390626 4.902343.429688 9.804687.886719 14.703125 1.390626.679687 5.683593 1.296875 11.367187 1.851562 17.050781 1.640625 16.667969 2.765625 33.332031 3.375 49.988281v.054688c.980469 26.550781.65625 53.101562-.964844 79.652343zm0 0" fill="#ffbb16"/><path d="m187.75 120.308594c-23.292969-16.746094-46.242188-33.578125-68.523438-49.101563-7.097656-4.945312-16.535156-4.945312-23.632812 0-22.28125 15.523438-45.230469 32.355469-68.523438 49.101563-5.203124 3.742187-8.414062 9.667968-8.640624 16.074218-2.425782 67.816407-1.660157 135.636719 2.296874 203.453126.570313 9.796874 7.914063 17.894531 17.621094 19.332031 46.042969 6.804687 92.082032 6.804687 138.125 0 9.707032-1.4375 17.046875-9.535157 17.621094-19.332031 3.957031-67.816407 4.722656-135.636719 2.296875-203.453126-.226563-6.40625-3.4375-12.332031-8.640625-16.074218zm0 0" fill="#f73e3e"/><path d="m57.410156 214.15625c-3.441406 0-6.929687-.28125-10.367187-.839844-5.992188-.972656-10.527344-6.117187-10.785157-12.238281-.742187-17.453125-.742187-35.15625 0-52.609375.257813-6.121094 4.796876-11.265625 10.789063-12.238281 3.433594-.558594 6.921875-.839844 10.367187-.839844 3.355469 0 6.757813.269531 10.109376.800781 6.140624.96875 10.785156 6.132813 11.046874 12.28125.738282 17.457032.738282 35.15625-.003906 52.609375-.257812 6.117188-4.792968 11.261719-10.785156 12.234375-3.441406.558594-6.925781.839844-10.371094.839844zm0 0" fill="#d81d1d"/><path d="m66.640625 206.292969c-6.152344 1-12.304687 1-18.457031 0-2.703125-.4375-4.703125-2.777344-4.820313-5.515625-.734375-17.335938-.734375-34.671875 0-52.007813.117188-2.738281 2.117188-5.078125 4.820313-5.515625 6.074218-.984375 12.152344-1 18.226562-.035156 2.789063.4375 4.929688 2.730469 5.046875 5.554688.734375 17.335937.734375 34.667968 0 52.003906-.113281 2.738281-2.113281 5.078125-4.816406 5.515625zm0 0" fill="#37323a"/><path d="m53.742188 139.292969h7.339843v72.632812h-7.339843zm0 0" fill="#d81d1d"/><path d="m75.957031 171.941406v7.339844h-37.089843v-7.339844zm0 0" fill="#d81d1d"/><path d="m107.410156 214.15625c-3.441406 0-6.929687-.28125-10.367187-.839844-5.992188-.972656-10.53125-6.117187-10.789063-12.238281-.738281-17.453125-.738281-35.15625 0-52.609375.257813-6.121094 4.796875-11.265625 10.789063-12.238281 3.4375-.558594 6.925781-.839844 10.367187-.839844 3.355469 0 6.757813.269531 10.113282.800781 6.136718.96875 10.785156 6.132813 11.042968 12.28125.738282 17.457032.738282 35.15625 0 52.609375-.257812 6.117188-4.796875 11.261719-10.789062 12.234375-3.4375.558594-6.925782.839844-10.367188.839844zm0 0" fill="#d81d1d"/><path d="m116.640625 206.292969c-6.152344 1-12.304687 1-18.457031 0-2.703125-.4375-4.703125-2.777344-4.820313-5.515625-.734375-17.335938-.734375-34.671875 0-52.007813.117188-2.738281 2.117188-5.078125 4.820313-5.515625 6.074218-.984375 12.148437-1 18.226562-.035156 2.789063.4375 4.925782 2.730469 5.046875 5.554688.734375 17.335937.734375 34.667968 0 52.003906-.113281 2.738281-2.117187 5.078125-4.816406 5.515625zm0 0" fill="#37323a"/><path d="m103.742188 139.292969h7.339843v72.632812h-7.339843zm0 0" fill="#d81d1d"/><path d="m125.957031 171.941406v7.339844h-37.089843v-7.339844zm0 0" fill="#d81d1d"/><path d="m157.410156 214.15625c-3.441406 0-6.929687-.28125-10.367187-.839844-5.992188-.972656-10.53125-6.117187-10.789063-12.238281-.738281-17.453125-.738281-35.15625 0-52.609375.257813-6.121094 4.796875-11.265625 10.789063-12.238281 3.4375-.558594 6.925781-.839844 10.367187-.839844 3.355469 0 6.757813.269531 10.113282.800781 6.136718.96875 10.78125 6.132813 11.042968 12.28125.738282 17.457032.738282 35.15625 0 52.609375-.261718 6.117188-4.796875 11.261719-10.789062 12.234375-3.4375.558594-6.925782.839844-10.367188.839844zm0 0" fill="#d81d1d"/><path d="m166.636719 206.292969c-6.152344 1-12.304688 1-18.457031 0-2.699219-.4375-4.703126-2.777344-4.816407-5.515625-.734375-17.335938-.734375-34.671875 0-52.007813.113281-2.738281 2.113281-5.078125 4.816407-5.515625 6.078124-.984375 12.152343-1 18.230468-.035156 2.789063.4375 4.925782 2.730469 5.046875 5.554688.734375 17.335937.734375 34.667968 0 52.003906-.117187 2.738281-2.117187 5.078125-4.820312 5.515625zm0 0" fill="#37323a"/><path d="m153.738281 139.292969h7.339844v72.632812h-7.339844zm0 0" fill="#d81d1d"/><path d="m175.953125 171.941406v7.339844h-37.085937v-7.339844zm0 0" fill="#d81d1d"/><path d="m57.410156 304.238281c-3.441406 0-6.929687-.28125-10.367187-.839843-5.992188-.972657-10.527344-6.117188-10.785157-12.238282-.742187-17.453125-.742187-35.152344 0-52.609375.257813-6.121093 4.796876-11.265625 10.789063-12.238281 3.433594-.558594 6.921875-.839844 10.367187-.839844 3.355469 0 6.757813.269532 10.109376.800782 6.140624.96875 10.785156 6.136718 11.046874 12.28125.738282 17.457031.738282 35.15625-.003906 52.609374-.257812 6.117188-4.792968 11.265626-10.785156 12.234376-3.441406.558593-6.925781.839843-10.371094.839843zm0 0" fill="#d81d1d"/><path d="m66.640625 296.375c-6.152344.996094-12.304687.996094-18.457031 0-2.703125-.4375-4.703125-2.78125-4.820313-5.515625-.734375-17.335937-.734375-34.671875 0-52.007813.117188-2.738281 2.117188-5.078124 4.820313-5.515624 6.074218-.984376 12.152344-1 18.226562-.039063 2.789063.441406 4.929688 2.734375 5.046875 5.558594.734375 17.332031.734375 34.667969 0 52.003906-.113281 2.734375-2.113281 5.078125-4.816406 5.515625zm0 0" fill="#37323a"/><path d="m53.742188 229.378906h7.339843v72.628906h-7.339843zm0 0" fill="#d81d1d"/><path d="m75.957031 262.023438v7.339843h-37.089843v-7.339843zm0 0" fill="#d81d1d"/><path d="m107.410156 304.238281c-3.441406 0-6.929687-.28125-10.367187-.839843-5.992188-.972657-10.53125-6.117188-10.789063-12.238282-.738281-17.453125-.738281-35.152344 0-52.609375.257813-6.121093 4.796875-11.265625 10.789063-12.238281 3.4375-.558594 6.925781-.839844 10.367187-.839844 3.355469 0 6.757813.269532 10.113282.800782 6.136718.96875 10.785156 6.136718 11.042968 12.28125.738282 17.457031.738282 35.15625 0 52.609374-.257812 6.117188-4.796875 11.265626-10.789062 12.234376-3.4375.558593-6.925782.839843-10.367188.839843zm0 0" fill="#d81d1d"/><path d="m116.640625 296.375c-6.152344.996094-12.304687.996094-18.457031 0-2.703125-.4375-4.703125-2.78125-4.820313-5.515625-.734375-17.335937-.734375-34.671875 0-52.007813.117188-2.738281 2.117188-5.078124 4.820313-5.515624 6.074218-.984376 12.148437-1 18.226562-.039063 2.789063.441406 4.925782 2.734375 5.046875 5.558594.734375 17.332031.734375 34.667969 0 52.003906-.113281 2.734375-2.117187 5.078125-4.816406 5.515625zm0 0" fill="#37323a"/><path d="m103.742188 229.378906h7.339843v72.628906h-7.339843zm0 0" fill="#d81d1d"/><path d="m125.953125 262.023438v7.339843h-37.085937v-7.339843zm0 0" fill="#d81d1d"/><path d="m157.410156 304.238281c-3.441406 0-6.929687-.28125-10.367187-.839843-5.992188-.972657-10.53125-6.117188-10.789063-12.238282-.738281-17.453125-.738281-35.152344 0-52.609375.257813-6.121093 4.796875-11.265625 10.789063-12.238281 3.4375-.558594 6.925781-.839844 10.367187-.839844 3.355469 0 6.757813.269532 10.113282.800782 6.136718.96875 10.78125 6.136718 11.042968 12.28125.738282 17.457031.738282 35.15625 0 52.609374-.261718 6.117188-4.796875 11.265626-10.789062 12.234376-3.4375.558593-6.925782.839843-10.367188.839843zm0 0" fill="#d81d1d"/><path d="m166.636719 296.375c-6.152344.996094-12.304688.996094-18.457031 0-2.699219-.4375-4.703126-2.78125-4.816407-5.515625-.734375-17.335937-.734375-34.671875 0-52.007813.113281-2.738281 2.113281-5.078124 4.816407-5.515624 6.078124-.984376 12.152343-1 18.230468-.039063 2.789063.441406 4.925782 2.734375 5.046875 5.558594.734375 17.332031.734375 34.667969 0 52.003906-.117187 2.734375-2.117187 5.078125-4.820312 5.515625zm0 0" fill="#37323a"/><path d="m153.738281 229.378906h7.339844v72.628906h-7.339844zm0 0" fill="#d81d1d"/><path d="m175.953125 262.023438v7.339843h-37.089844v-7.339843zm0 0" fill="#d81d1d"/><path d="m329.992188 322.375c-6.535157 0-13.160157-.53125-19.691407-1.578125l-4.613281-5.019531c-.945312-12.570313-1.253906-25.316406-.917969-37.894532.367188-13.484374 11.589844-24.476562 25.023438-24.5h.398437c13.433594.023438 24.65625 11.011719 25.023438 24.5.335937 12.570313.03125 25.320313-.917969 37.894532l-4.613281 5.015625c-6.53125 1.050781-13.15625 1.582031-19.691406 1.582031zm0 0" fill="#ff931f"/><path d="m330.179688 258.886719c-.125 0-.25 0-.375 0-10.589844.015625-19.25 8.5625-19.535157 19.144531-.335937 12.445312-.035156 24.886719.902344 37.332031 12.546875 2.015625 25.09375 2.015625 37.640625 0 .9375-12.445312 1.238281-24.886719.898438-37.332031-.28125-10.582031-8.945313-19.128906-19.53125-19.144531zm0 0" fill="#37323a"/><path d="m326.769531 257.375h6.441407v63.738281h-6.441407zm0 0" fill="#ff931f"/><path d="m353.34375 286.023438v6.441406h-46.703125v-6.441406zm0 0" fill="#ff931f"/><path d="m355.066406 309.671875h-50.148437c-2.320313 0-4.203125 1.882813-4.203125 4.203125v5.9375c0 2.320312 1.882812 4.199219 4.203125 4.199219h50.148437c2.320313 0 4.199219-1.878907 4.199219-4.199219v-5.9375c0-2.320312-1.878906-4.203125-4.199219-4.203125zm0 0" fill="#fff"/><path d="m398.960938 322.375c-6.535157 0-13.160157-.53125-19.691407-1.578125l-4.613281-5.019531c-.949219-12.570313-1.253906-25.316406-.917969-37.894532.367188-13.484374 11.589844-24.476562 25.023438-24.5h.398437c13.433594.023438 24.65625 11.011719 25.023438 24.5.335937 12.570313.03125 25.320313-.917969 37.894532l-4.613281 5.015625c-6.53125 1.050781-13.15625 1.582031-19.691406 1.582031zm0 0" fill="#ff931f"/><path d="m399.148438 258.886719c-.125 0-.25 0-.375 0-10.589844.015625-19.25 8.5625-19.535157 19.144531-.335937 12.445312-.035156 24.886719.902344 37.332031 12.546875 2.015625 25.09375 2.015625 37.640625 0 .933594-12.445312 1.238281-24.886719.898438-37.332031-.28125-10.582031-8.941407-19.128906-19.53125-19.144531zm0 0" fill="#37323a"/><path d="m395.742188 257.375h6.441406v63.738281h-6.441406zm0 0" fill="#ff931f"/><path d="m422.3125 286.023438v6.441406h-46.703125v-6.441406zm0 0" fill="#ff931f"/><path d="m424.035156 309.671875h-50.148437c-2.320313 0-4.203125 1.882813-4.203125 4.203125v5.9375c0 2.320312 1.882812 4.199219 4.203125 4.199219h50.148437c2.320313 0 4.199219-1.878907 4.199219-4.199219v-5.9375c0-2.320312-1.878906-4.203125-4.199219-4.203125zm0 0" fill="#fff"/><path d="m467.929688 322.375c-6.535157 0-13.160157-.53125-19.691407-1.578125l-4.613281-5.019531c-.949219-12.570313-1.257812-25.316406-.917969-37.894532.363281-13.484374 11.589844-24.476562 25.023438-24.5h.394531c13.4375.023438 24.660156 11.011719 25.027344 24.5.335937 12.570313.03125 25.320313-.917969 37.894532l-4.613281 5.015625c-6.53125 1.050781-13.15625 1.582031-19.691406 1.582031zm0 0" fill="#ff931f"/><path d="m468.117188 258.886719c-.125 0-.25 0-.375 0-10.589844.015625-19.25 8.5625-19.535157 19.144531-.335937 12.445312-.035156 24.886719.902344 37.332031 12.546875 2.015625 25.09375 2.015625 37.636719 0 .9375-12.445312 1.238281-24.886719.902344-37.332031-.28125-10.582031-8.941407-19.128906-19.53125-19.144531zm0 0" fill="#37323a"/><path d="m464.707031 257.375h6.445313v63.738281h-6.445313zm0 0" fill="#ff931f"/><path d="m491.28125 286.023438v6.441406h-46.703125v-6.441406zm0 0" fill="#ff931f"/><path d="m493.003906 309.671875h-50.148437c-2.320313 0-4.199219 1.882813-4.199219 4.203125v5.9375c0 2.320312 1.878906 4.199219 4.199219 4.199219h50.148437c2.320313 0 4.203125-1.878907 4.203125-4.199219v-5.9375c0-2.320312-1.882812-4.203125-4.203125-4.203125zm0 0" fill="#fff"/><path d="m159.648438 334.867188c0 20.304687-16.464844 36.773437-36.769532 36.773437-16.863281 0-31.074218-11.371094-35.398437-26.867187-4.328125 15.496093-18.539063 26.867187-35.402344 26.867187-9.957031 0-18.996094-3.960937-25.609375-10.398437-6.886719-6.675782-11.160156-16.027344-11.160156-26.375 0-19.976563 15.945312-36.226563 35.808594-36.738282 2.621093-17.730468 17.898437-31.34375 36.363281-31.34375 9.476562 0 18.105469 3.582032 24.617187 9.484375 6.183594 5.570313 10.457032 13.21875 11.742188 21.859375 19.863281.511719 35.808594 16.761719 35.808594 36.738282zm0 0" fill="#2cce5a"/><path d="m445.195312 298.128906c-2.621093-17.734375-17.902343-31.34375-36.363281-31.34375-18.460937 0-33.742187 13.609375-36.363281 31.34375-19.859375.507813-35.804688 16.757813-35.804688 36.738282 0 20.304687 16.460938 36.765624 36.765626 36.765624 16.871093 0 31.078124-11.367187 35.402343-26.859374 4.328125 15.492187 18.535157 26.859374 35.402344 26.859374 20.304687 0 36.765625-16.460937 36.765625-36.765624.003906-19.980469-15.941406-36.230469-35.804688-36.738282zm0 0" fill="#2cce5a"/><path d="m112.097656 276.269531c-15.464844-10.007812-41.398437 11.191407-30.523437 35.226563 0 0-29.496094 7.261718-17.699219 36.320312 6.25 15.371094-15.527344 16.121094-37.40625 13.425782-6.886719-6.675782-11.160156-16.027344-11.160156-26.375 0-19.976563 15.945312-36.226563 35.808594-36.738282 2.621093-17.730468 17.898437-31.34375 36.363281-31.34375 9.476562 0 18.105469 3.582032 24.617187 9.484375zm0 0" fill="#21bf4a"/><path d="m433.453125 276.269531c-15.464844-10.007812-41.398437 11.191407-30.523437 35.226563 0 0-29.496094 7.261718-17.699219 36.320312 6.25 15.371094-15.527344 16.121094-37.40625 13.425782-6.886719-6.675782-11.160157-16.027344-11.160157-26.375 0-19.976563 15.945313-36.226563 35.808594-36.738282 2.621094-17.730468 17.898438-31.34375 36.363282-31.34375 9.476562 0 18.105468 3.582032 24.617187 9.484375zm0 0" fill="#21bf4a"/><path d="m497.863281 340.09375c-.503906 1.429688-1.015625 2.863281-1.535156 4.285156-.753906 2.058594-1.539063 4.105469-2.34375 6.140625-1.253906 3.136719-2.558594 6.25-3.925781 9.324219-.492188 1.105469-.992188 2.214844-1.507813 3.320312-.46875 1.023438-.960937 2.046876-1.449219 3.0625-.410156.867188-.816406 1.714844-1.246093 2.570313-.113281.238281-.230469.492187-.355469.730469-2.140625 4.328125-4.398438 8.570312-6.769531 12.75 0 0 0 .007812-.011719.007812-.8125 1.441406-1.648438 2.863282-2.496094 4.285156-.617187 1.054688-1.253906 2.101563-1.890625 3.144532-.585937.953125-1.179687 1.902344-1.789062 2.851562-2.453125 3.890625-5.015625 7.714844-7.667969 11.453125-1.640625 2.332031-3.324219 4.621094-5.046875 6.886719-3.550781 4.671875-7.261719 9.207031-11.128906 13.613281-46.914063 53.625-115.859375 87.480469-192.699219 87.480469-48.554688 0-93.945312-13.511719-132.628906-37-13.78125-8.359375-26.707032-17.984375-38.621094-28.722656-1.023438-.929688-2.046875-1.863282-3.058594-2.8125l-.011718-.011719c-1.128907-1.042969-2.257813-2.109375-3.363282-3.183594-2.769531-2.65625-5.464844-5.382812-8.097656-8.171875-2.375-2.476562-4.671875-5.007812-6.917969-7.578125-3.867187-4.40625-7.578125-8.941406-11.128906-13.613281-11.941406-15.703125-22.121094-32.820312-30.230469-51.0625-2.863281-6.449219-5.472656-13.03125-7.804687-19.75zm0 0" fill="#757177"/><path d="m52.171875 410.90625h200.734375v13.613281h-189.605469c-3.867187-4.40625-7.578125-8.941406-11.128906-13.613281zm0 0" fill="#f1eee9"/><path d="m285.925781 410.90625h85.785157v13.613281h-85.785157zm0 0" fill="#f1eee9"/><path d="m459.828125 410.90625c-3.550781 4.671875-7.261719 9.207031-11.128906 13.613281h-43.96875v-13.613281zm0 0" fill="#f1eee9"/><path d="m329.992188 235.667969c-6.535157 0-13.160157-.535157-19.691407-1.582031l-4.613281-5.019532c-.945312-12.570312-1.253906-25.316406-.917969-37.890625.367188-13.488281 11.589844-24.480469 25.023438-24.503906h.398437c13.433594.023437 24.65625 11.015625 25.023438 24.503906.335937 12.570313.03125 25.316407-.917969 37.890625l-4.613281 5.019532c-6.53125 1.046874-13.15625 1.582031-19.691406 1.582031zm0 0" fill="#ff931f"/><path d="m330.179688 172.175781c-.125 0-.25 0-.375 0-10.589844.015625-19.25 8.5625-19.535157 19.148438-.335937 12.445312-.035156 24.886719.902344 37.328125 12.546875 2.015625 25.09375 2.015625 37.640625 0 .9375-12.441406 1.238281-24.882813.898438-37.328125-.28125-10.585938-8.945313-19.132813-19.53125-19.148438zm0 0" fill="#37323a"/><path d="m326.769531 170.664062h6.441407v63.738282h-6.441407zm0 0" fill="#ff931f"/><path d="m353.34375 199.3125v6.441406h-46.703125v-6.441406zm0 0" fill="#ff931f"/><path d="m355.066406 222.964844h-50.148437c-2.320313 0-4.203125 1.878906-4.203125 4.203125v5.933593c0 2.320313 1.882812 4.203126 4.203125 4.203126h50.148437c2.320313 0 4.199219-1.882813 4.199219-4.203126v-5.933593c0-2.324219-1.878906-4.203125-4.199219-4.203125zm0 0" fill="#fff"/><path d="m398.960938 235.667969c-6.535157 0-13.160157-.535157-19.691407-1.582031l-4.613281-5.019532c-.949219-12.570312-1.253906-25.316406-.917969-37.890625.367188-13.488281 11.589844-24.480469 25.023438-24.503906h.398437c13.433594.023437 24.65625 11.015625 25.023438 24.503906.335937 12.570313.03125 25.316407-.917969 37.890625l-4.613281 5.019532c-6.53125 1.046874-13.15625 1.582031-19.691406 1.582031zm0 0" fill="#ff931f"/><path d="m399.148438 172.175781c-.125 0-.25 0-.375 0-10.589844.015625-19.25 8.5625-19.535157 19.148438-.335937 12.445312-.035156 24.886719.902344 37.328125 12.546875 2.015625 25.09375 2.015625 37.640625 0 .933594-12.441406 1.238281-24.882813.898438-37.328125-.28125-10.585938-8.941407-19.132813-19.53125-19.148438zm0 0" fill="#37323a"/><path d="m395.742188 170.664062h6.441406v63.738282h-6.441406zm0 0" fill="#ff931f"/><path d="m422.3125 199.3125v6.441406h-46.703125v-6.441406zm0 0" fill="#ff931f"/><path d="m424.035156 222.964844h-50.148437c-2.320313 0-4.203125 1.878906-4.203125 4.203125v5.933593c0 2.320313 1.882812 4.203126 4.203125 4.203126h50.148437c2.320313 0 4.199219-1.882813 4.199219-4.203126v-5.933593c0-2.324219-1.878906-4.203125-4.199219-4.203125zm0 0" fill="#fff"/><path d="m467.929688 235.667969c-6.535157 0-13.160157-.535157-19.691407-1.582031l-4.613281-5.019532c-.949219-12.570312-1.257812-25.316406-.917969-37.890625.363281-13.488281 11.589844-24.480469 25.023438-24.503906h.394531c13.4375.023437 24.660156 11.015625 25.027344 24.503906.335937 12.570313.03125 25.316407-.917969 37.890625l-4.613281 5.019532c-6.53125 1.046874-13.15625 1.582031-19.691406 1.582031zm0 0" fill="#ff931f"/><path d="m468.117188 172.175781c-.125 0-.25 0-.375 0-10.589844.015625-19.25 8.5625-19.535157 19.148438-.335937 12.445312-.035156 24.886719.902344 37.328125 12.546875 2.015625 25.09375 2.015625 37.636719 0 .9375-12.441406 1.238281-24.882813.902344-37.328125-.28125-10.585938-8.941407-19.132813-19.53125-19.148438zm0 0" fill="#37323a"/><path d="m464.707031 170.664062h6.445313v63.738282h-6.445313zm0 0" fill="#ff931f"/><path d="m491.28125 199.3125v6.441406h-46.703125v-6.441406zm0 0" fill="#ff931f"/><path d="m493.003906 222.964844h-50.148437c-2.320313 0-4.199219 1.878906-4.199219 4.203125v5.933593c0 2.320313 1.878906 4.203126 4.199219 4.203126h50.148437c2.320313 0 4.203125-1.882813 4.203125-4.203126v-5.933593c0-2.324219-1.882812-4.203125-4.203125-4.203125zm0 0" fill="#fff"/><path d="m506.003906 169.230469h-214.082031c.554687-5.683594 1.171875-11.367188 1.851563-17.050781 70.121093-7.117188 140.246093-7.117188 210.378906 0 .679687 5.683593 1.296875 11.367187 1.851562 17.050781zm0 0" fill="#ff931f"/><path d="m503.402344 138.566406h-208.882813c-4.738281 0-8.578125 3.839844-8.578125 8.578125v6.015625c0 4.738282 3.839844 8.578125 8.578125 8.578125h208.882813c4.738281 0 8.578125-3.839843 8.578125-8.578125v-6.015625c0-4.738281-3.84375-8.578125-8.578125-8.578125zm0 0" fill="#f73e3e"/><path d="m123.75 103.503906c0 9.023438-7.316406 16.339844-16.339844 16.339844-9.023437 0-16.339844-7.316406-16.339844-16.339844 0-9.023437 7.316407-16.339844 16.339844-16.339844 9.023438 0 16.339844 7.316407 16.339844 16.339844zm0 0" fill="#37323a"/><path d="m497.863281 340.09375c-2.332031 6.71875-4.941406 13.300781-7.804687 19.75h-468.117188c-2.863281-6.449219-5.472656-13.03125-7.804687-19.75zm0 0" fill="#37323a"/><path d="m265.214844 393.332031v41.34375c0 4.851563-3.925782 8.777344-8.777344 8.777344h-174.757812c-3.949219-3.65625-7.773438-7.449219-11.460938-11.355469v-48.921875c0-4.902343 3.96875-8.871093 8.878906-8.871093h62.621094v-49.613282c0-4.324218 3.5-7.824218 7.816406-7.824218h43.113282c8.367187 0 15.703124 5.535156 18.003906 13.570312l2.769531 9.65625 9.789063 34.210938 31.472656 6.207031c6.121094 1.210937 10.53125 6.582031 10.53125 12.820312zm0 0" fill="#69b8d4"/><path d="m265.214844 421.199219v13.476562c0 4.851563-3.925782 8.789063-8.777344 8.789063h-174.746094c-3.949218-3.65625-7.785156-7.460938-11.472656-11.367188v-10.992187c0 4.898437 3.96875 8.871093 8.878906 8.871093h177.339844c4.851562 0 8.777344-3.929687 8.777344-8.777343zm0 0" fill="#0084a6"/><path d="m256.105469 443.460938h-77.320313c0-21.351563 17.3125-38.664063 38.660156-38.664063 21.351563 0 38.660157 17.3125 38.660157 38.664063zm0 0" fill="#0084a6"/><path d="m155.492188 443.464844h-73.800782l-.011718-.011719c-1.128907-1.042969-2.257813-2.109375-3.363282-3.183594 1.617188-19.867187 18.242188-35.464843 38.523438-35.464843 21.347656 0 38.652344 17.304687 38.652344 38.660156zm0 0" fill="#0084a6"/><path d="m249.648438 443.460938c0 17.785156-14.417969 32.203124-32.203126 32.203124-17.785156 0-32.203124-14.417968-32.203124-32.203124 0-17.789063 14.417968-32.207032 32.203124-32.207032 17.785157 0 32.203126 14.417969 32.203126 32.207032zm0 0" fill="#37323a"/><path d="m233.570312 443.460938c0 8.90625-7.21875 16.125-16.125 16.125s-16.125-7.21875-16.125-16.125 7.21875-16.125 16.125-16.125 16.125 7.21875 16.125 16.125zm0 0" fill="#e6e6e6"/><path d="m217.445312 462.570312c-10.539062 0-19.109374-8.574218-19.109374-19.109374 0-10.539063 8.570312-19.109376 19.109374-19.109376 10.539063 0 19.109376 8.570313 19.109376 19.109376 0 10.535156-8.570313 19.109374-19.109376 19.109374zm0-32.25c-7.246093 0-13.140624 5.894532-13.140624 13.140626 0 7.246093 5.894531 13.140624 13.140624 13.140624 7.246094 0 13.140626-5.894531 13.140626-13.140624 0-7.246094-5.894532-13.140626-13.140626-13.140626zm0 0" fill="#5b565e"/><path d="m149.042969 443.453125c0 15.550781-11.011719 28.527344-25.671875 31.546875-13.78125-8.359375-26.707032-17.984375-38.621094-28.722656-.082031-.929688-.125-1.871094-.125-2.824219 0-17.78125 14.421875-32.203125 32.203125-32.203125 17.796875 0 32.214844 14.421875 32.214844 32.203125zm0 0" fill="#37323a"/><path d="m132.960938 443.460938c0 8.90625-7.21875 16.125-16.125 16.125s-16.125-7.21875-16.125-16.125 7.21875-16.125 16.125-16.125 16.125 7.21875 16.125 16.125zm0 0" fill="#e6e6e6"/><path d="m116.835938 462.570312c-10.539063 0-19.109376-8.574218-19.109376-19.109374 0-10.539063 8.570313-19.109376 19.109376-19.109376 10.539062 0 19.109374 8.570313 19.109374 19.109376 0 10.535156-8.574218 19.109374-19.109374 19.109374zm0-32.25c-7.246094 0-13.140626 5.894532-13.140626 13.140626 0 7.246093 5.894532 13.140624 13.140626 13.140624 7.246093 0 13.140624-5.894531 13.140624-13.140624 0-7.246094-5.894531-13.140626-13.140624-13.140626zm0 0" fill="#5b565e"/><path d="m265.214844 394.371094v18.621094c-1.921875 2.855468-4.957032 4.914062-8.558594 5.550781-.675781.128906-1.476562.203125-2.289062.203125h-3.492188c-7.207031 0-13.070312-5.863282-13.070312-13.074219v-3.96875c0-7.210937 5.863281-13.082031 13.070312-13.082031h3.492188c.8125 0 1.613281.074218 2.371093.222656 3.554688.617188 6.566407 2.675781 8.476563 5.527344zm0 0" fill="#0084a6"/><path d="m261.910156 401.703125v3.96875c0 3.710937-2.6875 6.796875-6.214844 7.414063-.433593.082031-.875.121093-1.328124.121093h-3.492188c-4.160156 0-7.53125-3.371093-7.53125-7.535156v-3.96875c0-4.164063 3.371094-7.542969 7.53125-7.542969h3.492188c.453124 0 .894531.035156 1.328124.121094 3.527344.617188 6.214844 3.710938 6.214844 7.421875zm0 0" fill="#ff931f"/><path d="m261.910156 401.703125v3.96875c0 3.710937-2.6875 6.796875-6.214844 7.414063-3.535156-.617188-6.222656-3.703126-6.222656-7.414063v-3.96875c0-3.710937 2.6875-6.804687 6.222656-7.421875 3.527344.617188 6.214844 3.710938 6.214844 7.421875zm0 0" fill="#ffbb16"/><path d="m199.304688 374.304688h-37c-4.777344 0-8.652344-3.878907-8.652344-8.664063v-28.179687c0-4.785157 3.875-8.652344 8.652344-8.652344h30.34375c3.019531 0 5.695312 2.015625 6.53125 4.910156l8.453124 29.539062c1.578126 5.539063-2.570312 11.046876-8.328124 11.046876zm0 0" fill="#96d6d4"/><path d="m192.480469 328.808594-28.921875 45.496094h-1.253906c-4.777344 0-8.652344-3.878907-8.652344-8.664063v-28.179687c0-4.785157 3.875-8.652344 8.652344-8.652344zm0 0" fill="#fff"/><path d="m199.308594 377.285156h-37.003906c-6.417969 0-11.636719-5.222656-11.636719-11.640625v-28.1875c0-6.417969 5.21875-11.640625 11.636719-11.640625h30.347656c4.335937 0 8.199218 2.914063 9.390625 7.082032l8.457031 29.542968c1.011719 3.542969.320312 7.265625-1.898438 10.207032-2.21875 2.949218-5.605468 4.636718-9.292968 4.636718zm-37.003906-45.496094c-3.125 0-5.667969 2.542969-5.667969 5.667969v28.1875c0 3.128907 2.542969 5.671875 5.667969 5.671875h37.003906c1.796875 0 3.445312-.824218 4.527344-2.257812 1.078124-1.433594 1.417968-3.246094.921874-4.972656l-8.453124-29.539063c-.464844-1.625-1.96875-2.757813-3.652344-2.757813zm0 0" fill="#0084a6"/><path d="m153.714844 385.203125v4.589844c0 3.765625 3.050781 6.820312 6.816406 6.820312h13.332031c3.765625 0 6.820313-3.054687 6.820313-6.820312v-4.589844h-18.152344" fill="#0084a6"/><path d="m81.835938 413.625h-3.695313c-1.609375 0-2.917969-1.304688-2.917969-2.917969v-17.996093c0-1.609376 1.308594-2.914063 2.917969-2.914063h3.695313c1.613281 0 2.917968 1.304687 2.917968 2.914063v17.996093c0 1.613281-1.304687 2.917969-2.917968 2.917969zm0 0" fill="#f73e3e"/><path d="m265.789062 442.402344h-13.367187v-15.425782h13.367187c3.949219 0 7.148438 3.199219 7.148438 7.148438v1.125c0 3.949219-3.199219 7.152344-7.148438 7.152344zm0 0" fill="#f1eee9"/><path d="m512 255.738281v.261719c0 14.617188-1.222656 28.964844-3.585938 42.925781-2.390624 14.148438-5.933593 27.90625-10.550781 41.167969-.816406 2.339844-1.664062 4.671875-2.550781 6.980469-4.648438 12.203125-10.199219 23.96875-16.582031 35.203125h-29.078125c-4.851563 0-8.777344-3.929688-8.777344-8.777344v-41.347656c0-6.238282 4.410156-11.609375 10.53125-12.820313l31.472656-6.207031 9.789063-34.210938 2.769531-9.65625c2.164062-7.574218 8.800781-12.921874 16.5625-13.519531zm0 0" fill="#f73e3e"/><path d="m485.855469 368.796875c-.113281.238281-.230469.492187-.355469.730469-2.140625 4.328125-4.398438 8.570312-6.769531 12.75 0 0 0 .007812-.011719.007812h-29.066406c-4.851563 0-8.777344-3.9375-8.777344-8.785156v-13.480469c0 4.847657 3.925781 8.777344 8.777344 8.777344zm0 0" fill="#d81d1d"/><path d="m496.328125 344.378906c-.753906 2.058594-1.539063 4.105469-2.34375 6.140625-1.253906 3.136719-2.558594 6.25-3.925781 9.324219-.492188 1.105469-.992188 2.214844-1.507813 3.320312-.46875 1.023438-.960937 2.046876-1.449219 3.0625-.523437 1.105469-1.058593 2.203126-1.601562 3.300782-2.140625 4.328125-4.398438 8.570312-6.769531 12.75h-28.753907c0-21.347656 17.3125-38.664063 38.660157-38.664063 2.632812 0 5.203125.261719 7.691406.765625zm0 0" fill="#d81d1d"/><path d="m493.984375 350.519531c-1.253906 3.136719-2.558594 6.25-3.925781 9.324219-6.941406 15.609375-15.394532 30.394531-25.183594 44.175781-5.246094-5.726562-8.441406-13.351562-8.441406-21.742187 0-17.785156 14.417968-32.207032 32.203125-32.207032 1.816406 0 3.605469.148438 5.347656.449219zm0 0" fill="#37323a"/><path d="m487.101562 366.226562c-3.847656 8.078126-8.109374 15.914063-12.769531 23.488282-1.160156-2.226563-1.820312-4.753906-1.820312-7.4375 0-8.382813 6.40625-15.277344 14.589843-16.050782zm0 0" fill="#e6e6e6"/><path d="m469.523438 382.277344c0 3.78125 1.109374 7.324218 3.019531 10.289062.609375-.949218 1.203125-1.898437 1.789062-2.851562.636719-1.042969 1.273438-2.089844 1.890625-3.144532-.46875-1.347656-.722656-2.789062-.722656-4.292968 0-6.167969 4.265625-11.347656 10-12.75.542969-1.097656 1.078125-2.195313 1.601562-3.300782.488282-1.015624.980469-2.039062 1.449219-3.0625-10.488281.042969-19.027343 8.609376-19.027343 19.113282zm0 0" fill="#5b565e"/><path d="m440.871094 333.191406v18.621094c1.921875 2.855469 4.957031 4.914062 8.558594 5.550781.671874.128907 1.476562.203125 2.289062.203125h3.488281c7.210938 0 13.074219-5.863281 13.074219-13.074218v-3.96875c0-7.210938-5.863281-13.082032-13.074219-13.082032h-3.488281c-.8125 0-1.617188.074219-2.375.222656-3.550781.617188-6.5625 2.675782-8.472656 5.527344zm0 0" fill="#d81d1d"/><path d="m444.175781 340.523438v3.96875c0 3.710937 2.6875 6.796874 6.210938 7.414062.4375.082031.878906.121094 1.332031.121094h3.488281c4.164063 0 7.535157-3.371094 7.535157-7.535156v-3.96875c0-4.164063-3.371094-7.542969-7.535157-7.542969h-3.488281c-.453125 0-.894531.035156-1.332031.121093-3.523438.617188-6.210938 3.710938-6.210938 7.421876zm0 0" fill="#ff931f"/><path d="m444.175781 340.523438v3.96875c0 3.710937 2.6875 6.796874 6.210938 7.414062 3.539062-.617188 6.222656-3.703125 6.222656-7.414062v-3.96875c0-3.710938-2.683594-6.804688-6.222656-7.421876-3.523438.617188-6.210938 3.710938-6.210938 7.421876zm0 0" fill="#ffbb16"/><path d="m511.726562 267.859375c-.039062 1.085937-.101562 2.171875-.164062 3.25-.542969 9.414063-1.601562 18.691406-3.148438 27.816406-.636718 3.75-1.355468 7.480469-2.152343 11.179688-.207031.980469-.425781 1.964843-.644531 2.933593-5.132813-.675781-8.632813-5.808593-7.160157-10.960937l8.453125-29.539063c.671875-2.328124 2.539063-4.09375 4.816406-4.679687zm0 0" fill="#96d6d4"/><path d="m504.039062 271.726562-8.453124 29.539063c-1.015626 3.542969-.324219 7.261719 1.902343 10.207031 1.835938 2.445313 4.492188 4.023438 7.449219 4.484375.46875-1.945312.90625-3.898437 1.324219-5.851562-1.597657-.136719-3.039063-.929688-4.011719-2.226563-1.085938-1.429687-1.421875-3.25-.929688-4.972656l8.464844-29.539062c.269532-.972657.929688-1.777344 1.777344-2.257813.125-2.101563.21875-4.210937.292969-6.332031-3.667969.605468-6.773438 3.292968-7.816407 6.949218zm0 0" fill="#d81d1d"/><path d="m440.296875 381.21875h13.367187v-15.421875h-13.367187c-3.949219 0-7.148437 3.199219-7.148437 7.148437v1.125c-.003907 3.949219 3.199218 7.148438 7.148437 7.148438zm0 0" fill="#f1eee9"/></svg>