<svg height="512pt" viewBox="0 0 512 512" width="512pt" xmlns="http://www.w3.org/2000/svg"><path d="m512 256c0 30.019531-5.171875 58.847656-14.671875 85.617188-2.507813 7.085937-5.328125 14.035156-8.429687 20.816406-1.734376 3.792968-3.5625 7.542968-5.488282 11.230468-5.210937 10.074219-11.085937 19.75-17.554687 28.988282-3.707031 5.296875-7.605469 10.4375-11.699219 15.433594-8.445312 10.3125-17.679688 19.957031-27.617188 28.835937-1.640624 1.476563-3.3125 2.925781-4.996093 4.359375-4.609375 3.90625-9.351563 7.648438-14.222657 11.230469-9.621093 7.054687-19.746093 13.460937-30.320312 19.144531-3.6875 1.984375-7.441406 3.875-11.234375 5.683594-1.484375.699218-2.976563 1.402344-4.472656 2.070312-4.984375 2.257813-10.0625 4.355469-15.210938 6.289063-3.886719 1.464843-7.816406 2.832031-11.789062 4.105469-20.65625 6.636718-42.453125 10.710937-65.035157 11.851562-4.386718.230469-8.804687.34375-13.257812.34375-1.714844 0-3.417969-.019531-5.121094-.050781-1.042968-.023438-2.089844-.054688-3.125-.085938-28.011718-.875-54.886718-6.269531-79.933594-15.472656-3.480468-1.265625-6.917968-2.613281-10.324218-4.035156-6.789063-2.832031-13.445313-5.957031-19.925782-9.339844-.363281-.1875-.71875-.378906-1.074218-.566406-4.253906-2.246094-8.445313-4.617188-12.550782-7.105469-2.265624-1.355469-4.503906-2.746094-6.707031-4.1875-4.652343-2.988281-9.183593-6.136719-13.617187-9.4375-2.265625-1.671875-4.503906-3.382812-6.707032-5.152344-1.523437-1.199218-3.03125-2.421875-4.523437-3.664062-5.464844-4.546875-10.742187-9.320313-15.808594-14.304688-4.722656-4.640625-9.269531-9.46875-13.617187-14.464844-7.375-8.453124-14.210938-17.394531-20.425782-26.777343-26.886718-40.5-42.539062-89.101563-42.539062-141.355469 0-28.515625 4.660156-55.945312 13.269531-81.566406 34.054688-101.394532 129.859375-174.433594 242.730469-174.433594 98.628906 0 184.238281 55.777344 226.984375 137.507812 18.535156 35.433594 29.015625 75.746094 29.015625 118.492188zm0 0" fill="#96d6d4"/><path d="m512 256c0 30.019531-5.171875 58.847656-14.671875 85.617188-2.507813 7.085937-5.328125 14.035156-8.429687 20.816406-1.734376 3.792968-3.5625 7.542968-5.488282 11.230468-5.210937 10.074219-11.085937 19.75-17.554687 28.988282-3.707031 5.296875-7.605469 10.4375-11.699219 15.433594-8.445312 10.3125-17.679688 19.957031-27.617188 28.835937-1.640624 1.476563-3.3125 2.925781-4.996093 4.359375-4.609375 3.90625-9.351563 7.648438-14.222657 11.230469-9.621093 7.054687-19.746093 13.460937-30.320312 19.144531-3.6875 1.984375-7.441406 3.875-11.234375 5.683594-1.484375.699218-2.976563 1.402344-4.472656 2.070312-4.984375 2.257813-10.0625 4.355469-15.210938 6.289063-3.886719 1.464843-7.816406 2.832031-11.789062 4.105469-20.65625 6.636718-42.453125 10.710937-65.035157 11.851562-4.386718.230469-8.804687.34375-13.257812.34375-1.714844 0-3.417969-.019531-5.121094-.050781-1.042968-.023438-2.089844-.054688-3.125-.085938-28.011718-.875-54.886718-6.269531-79.933594-15.472656-3.480468-1.265625-6.917968-2.613281-10.324218-4.035156-6.789063-2.832031-13.445313-5.957031-19.925782-9.339844-.363281-.1875-.71875-.378906-1.074218-.566406-4.253906-2.246094-8.445313-4.617188-12.550782-7.105469-2.265624-1.355469-4.503906-2.746094-6.707031-4.1875-4.652343-2.988281-9.183593-6.136719-13.617187-9.4375-2.265625-1.671875-4.503906-3.382812-6.707032-5.152344-1.523437-1.199218-3.03125-2.421875-4.523437-3.664062-5.464844-4.546875-10.742187-9.320313-15.808594-14.304688-4.722656-4.640625-9.269531-9.46875-13.617187-14.464844-7.375-8.453124-14.210938-17.394531-20.425782-26.777343-26.886718-40.5-42.539062-89.101563-42.539062-141.355469 0-28.515625 4.660156-55.945312 13.269531-81.566406h13.09375c4.042969 0 7.3125-3.269532 7.3125-7.3125v-26.886719c0-4.042969 3.273438-7.3125 7.316407-7.3125h21.941406c4.042968 0 7.316406 3.269531 7.316406 7.3125v52.246094c0 4.042969 3.269531 7.316406 7.3125 7.316406h16.71875c4.042969 0 7.3125-3.273437 7.3125-7.316406v-28.210938c0-4.042969 3.273438-7.316406 7.316406-7.316406h44.929688c4.042968 0 7.316406-3.269531 7.316406-7.3125v-40.75c0-4.046875 3.269531-7.316406 7.3125-7.316406h21.941406c4.046875 0 7.316406 3.269531 7.316406 7.316406v73.140625c0 4.042969 3.269532 7.316406 7.3125 7.316406h15.675782c4.042968 0 7.3125-3.273437 7.3125-7.316406v-17.761719c0-4.042969 3.269531-7.316406 7.316406-7.316406h33.433594c3.617187 0 6.617187 2.613281 7.199218 6.0625.074219.40625.117188.824219.117188 1.253906v4.179688c0 4.042969 3.269531 7.3125 7.3125 7.3125h11.496094c4.042968 0 7.3125 3.269531 7.3125 7.316406v6.269531c0 4.042969 3.273437 7.3125 7.316406 7.3125h21.941406c4.042969 0 7.316406-3.269531 7.316406-7.3125v-43.886718c0-4.042969 3.269532-7.316407 7.3125-7.316407h18.808594c4.042969 0 7.3125-3.269531 7.3125-7.3125v-10.449219c0-4.042968 3.273438-7.3125 7.316406-7.3125h6.269532c4.042968 0 7.3125 3.269532 7.3125 7.3125v11.492188c0 4.046875 3.269531 7.316406 7.316406 7.316406 2.015625 0 3.855469.816406 5.171875 2.140625 1.324219 1.328125 2.140625 3.144531 2.140625 5.171875v12.539063c0 4.042969 3.269531 7.316406 7.316406 7.316406h15.671875c4.042969 0 7.3125 3.269531 7.3125 7.3125v15.675781c0 4.042969 3.273438 7.3125 7.316407 7.3125h30.300781c4.042969 0 7.316406-3.269531 7.316406-7.3125v-51.839844c18.535156 35.433594 29.015625 75.746094 29.015625 118.492188zm0 0" fill="#79b7b4"/><path d="m230.785156 0h-55.8125c-6.71875 0-12.167968 5.449219-12.167968 12.167969v279.914062h80.148437v-279.914062c0-6.71875-5.445313-12.167969-12.167969-12.167969zm0 0" fill="#757177"/><path d="m426.539062 149.796875v297.125c-1.640624 1.476563-3.3125 2.925781-4.996093 4.359375-4.609375 3.90625-9.351563 7.648438-14.222657 11.230469-9.621093 7.054687-19.746093 13.460937-30.320312 19.144531-3.6875 1.984375-7.441406 3.875-11.234375 5.683594-6.414063 3.050781-12.988281 5.839844-19.683594 8.359375-3.886719 1.464843-7.816406 2.832031-11.789062 4.105469-24.679688 7.921874-50.980469 12.195312-78.292969 12.195312-2.757812 0-5.507812-.042969-8.246094-.136719v-382.546875h158.304688c11.304687 0 20.480468 9.164063 20.480468 20.480469zm0 0" fill="#2f373b"/><path d="m167.820312 194.519531v301.871094c-3.480468-1.265625-6.917968-2.613281-10.324218-4.035156-7.167969-2.988281-14.179688-6.300781-21-9.90625-37.992188-20.09375-70.324219-49.464844-93.957032-85.09375v-184.75c0-9.988281 8.097657-18.085938 18.085938-18.085938zm0 0" fill="#ff931f"/><g fill="#fff"><path d="m62.96875 229.921875h13.617188v42.214844h-13.617188zm0 0"/><path d="m123.949219 229.921875h13.617187v42.214844h-13.617187zm0 0"/><path d="m103.621094 229.921875h13.617187v42.214844h-13.617187zm0 0"/><path d="m83.296875 229.921875h13.617187v42.214844h-13.617187zm0 0"/><path d="m62.96875 285.667969h13.617188v42.210937h-13.617188zm0 0"/><path d="m123.949219 285.667969h13.617187v42.210937h-13.617187zm0 0"/><path d="m103.621094 285.667969h13.617187v42.210937h-13.617187zm0 0"/><path d="m83.296875 285.667969h13.617187v42.210937h-13.617187zm0 0"/><path d="m62.96875 341.410156h13.617188v42.210938h-13.617188zm0 0"/><path d="m123.949219 341.410156h13.617187v42.210938h-13.617187zm0 0"/><path d="m103.621094 341.410156h13.617187v42.210938h-13.617187zm0 0"/><path d="m83.296875 341.410156h13.617187v42.210938h-13.617187zm0 0"/><path d="m76.582031 397.15625v41.441406c-4.722656-4.640625-9.269531-9.46875-13.617187-14.464844v-26.976562zm0 0"/><path d="m123.949219 397.152344h13.617187v42.214844h-13.617187zm0 0"/><path d="m103.621094 397.152344h13.617187v42.214844h-13.617187zm0 0"/><path d="m83.296875 397.152344h13.617187v42.214844h-13.617187zm0 0"/><path d="m137.570312 452.902344v30.113281c-.363281-.1875-.71875-.378906-1.074218-.566406-4.253906-2.246094-8.445313-4.617188-12.550782-7.105469v-22.441406zm0 0"/><path d="m117.238281 452.902344v18.253906c-4.652343-2.988281-9.183593-6.136719-13.617187-9.4375v-8.816406zm0 0"/><path d="m96.914062 452.902344v3.664062c-1.523437-1.199218-3.03125-2.421875-4.523437-3.664062zm0 0"/></g><path d="m250.878906 168.988281h149.785156v24.570313h-149.785156zm0 0" fill="#e6e6e6"/><path d="m250.878906 260.539062h149.785156v24.570313h-149.785156zm0 0" fill="#e6e6e6"/><path d="m250.878906 214.761719h149.785156v24.570312h-149.785156zm0 0" fill="#e6e6e6"/><path d="m250.878906 306.3125h149.785156v24.570312h-149.785156zm0 0" fill="#e6e6e6"/><path d="m250.878906 397.863281h149.785156v24.570313h-149.785156zm0 0" fill="#e6e6e6"/><path d="m250.878906 352.085938h149.785156v24.570312h-149.785156zm0 0" fill="#e6e6e6"/><path d="m250.878906 443.636719h149.785156v24.570312h-149.785156zm0 0" fill="#e6e6e6"/><path d="m361.292969 489.410156c-4.984375 2.257813-10.0625 4.355469-15.210938 6.289063-3.886719 1.464843-7.816406 2.832031-11.789062 4.105469-24.679688 7.921874-50.980469 12.195312-78.292969 12.195312-1.714844 0-3.417969-.019531-5.121094-.050781v-22.539063zm0 0" fill="#e6e6e6"/><path d="m269.257812 61.148438v450.507812c-4.386718.230469-8.804687.34375-13.257812.34375-1.714844 0-3.417969-.019531-5.121094-.050781-1.042968-.023438-2.089844-.054688-3.125-.085938-40.089844-1.261719-77.863281-11.753906-111.257812-29.414062v-421.300781c0-11.140626 9.027344-20.15625 20.15625-20.15625h92.453125c11.136719 0 20.152343 9.015624 20.152343 20.15625zm0 0" fill="#757177"/><path d="m136.5 65.5h132.761719v21.132812h-132.761719zm0 0" fill="#69b8d4"/><path d="m136.5 108.1875h132.761719v21.132812h-132.761719zm0 0" fill="#69b8d4"/><path d="m136.5 150.871094h132.761719v21.132812h-132.761719zm0 0" fill="#69b8d4"/><path d="m136.5 193.558594h132.761719v21.132812h-132.761719zm0 0" fill="#69b8d4"/><path d="m136.5 236.242188h132.761719v21.132812h-132.761719zm0 0" fill="#69b8d4"/><path d="m136.5 278.929688h132.761719v21.132812h-132.761719zm0 0" fill="#69b8d4"/><path d="m136.5 321.617188h132.761719v21.132812h-132.761719zm0 0" fill="#69b8d4"/><path d="m136.5 364.300781h132.761719v21.132813h-132.761719zm0 0" fill="#69b8d4"/><path d="m136.5 406.988281h132.761719v21.132813h-132.761719zm0 0" fill="#69b8d4"/><path d="m136.5 449.675781h132.761719v21.128907h-132.761719zm0 0" fill="#69b8d4"/><path d="m269.257812 492.355469v19.300781c-4.386718.230469-8.804687.34375-13.257812.34375-1.714844 0-3.417969-.019531-5.121094-.050781-1.042968-.023438-2.089844-.054688-3.125-.085938-31.898437-1.003906-62.328125-7.855469-90.257812-19.507812zm0 0" fill="#69b8d4"/><path d="m497.328125 335.089844v6.527344c-2.507813 7.085937-5.328125 14.035156-8.429687 20.816406-1.734376 3.792968-3.5625 7.542968-5.488282 11.230468-5.210937 10.074219-11.085937 19.75-17.554687 28.988282-3.707031 5.296875-7.605469 10.4375-11.699219 15.433594-9.84375 12.027343-20.765625 23.132812-32.613281 33.195312-4.609375 3.90625-9.351563 7.648438-14.222657 11.230469-9.621093 7.054687-19.746093 13.460937-30.320312 19.144531-3.6875 1.984375-7.441406 3.875-11.234375 5.683594-6.414063 3.050781-12.988281 5.839844-19.683594 8.359375-3.886719 1.464843-7.816406 2.832031-11.789062 4.105469v-164.714844c0-7.878906 6.394531-14.273438 14.285156-14.273438h134.46875c7.886719 0 14.28125 6.394532 14.28125 14.273438zm0 0" fill="#69b8d4"/><path d="m334.292969 495.699219v4.105469c3.972656-1.273438 7.902343-2.640626 11.789062-4.105469zm131.5625-133.265625v-41.617188h-11.242188v41.617188h-33.183593v-41.617188h-11.234376v41.617188h-33.195312v-41.617188h-11.234375v41.617188h-31.472656v11.230468h31.472656v33.1875h-31.472656v11.234376h31.472656v33.195312h-31.472656v11.230469h31.472656v24.828125c3.792969-1.808594 7.546875-3.699219 11.234375-5.683594v-19.144531h30.320312c4.871094-3.582031 9.613282-7.324219 14.222657-11.230469h-.113281v-33.195312h32.726562c4.09375-4.996094 7.992188-10.136719 11.699219-15.433594v-28.988282h17.554687c1.925782-3.6875 3.753906-7.4375 5.488282-11.230468zm-55.660157 88.847656h-33.195312v-33.195312h33.195312zm0-44.429688h-33.195312v-33.1875h33.195312zm44.417969 0h-33.183593v-33.1875h33.183593zm0 0" fill="#0084a6"/></svg>