<svg height="512pt" viewBox="0 0 512 512" width="512pt" xmlns="http://www.w3.org/2000/svg"><path d="m512 256c0 141.386719-114.613281 256-256 256-127.925781 0-233.933594-93.832031-252.960938-216.429688-2.003906-12.894531-3.039062-26.113281-3.039062-39.570312 0-3.875.0820312-7.730469.261719-11.554688.398437-8.957031 1.253906-17.785156 2.550781-26.480468 1.355469-9.140625 3.207031-18.136719 5.503906-26.9375 10.386719-39.714844 30.082032-75.671875 56.601563-105.386719 46.875-52.546875 115.117187-85.640625 191.082031-85.640625 118.929688 0 218.925781 81.105469 247.671875 191.027344 2.308594 8.800781 4.160156 17.796875 5.515625 26.9375 1.296875 8.695312 2.152344 17.523437 2.550781 26.480468.179688 3.824219.261719 7.679688.261719 11.554688zm0 0" fill="#ffbb16"/><path d="m511.738281 244.445312h-511.476562c.398437-8.957031 1.253906-17.785156 2.550781-26.480468 1.355469-9.140625 3.207031-18.136719 5.503906-26.9375h495.355469c2.308594 8.800781 4.160156 17.796875 5.515625 26.9375 1.296875 8.695312 2.152344 17.523437 2.550781 26.480468zm0 0" fill="#ff931f"/><path d="m460.136719 201.058594-.035157 5.011718-5.941406-.042968.070313-9.675782-6.621094-.046874.066406-9.328126-5.441406-.042968-.066406 9.332031-4.535157-.035156.066407-9.328125-5.441407-.039063-.066406 9.328125-3.371094-.023437-.070312 9.671875-5.648438-.039063 1.792969 19.359375 41.804688.300782 9.503906-24.285157zm0 0" fill="#2f373b"/><path d="m512 256c0 42.214844-10.21875 82.035156-28.328125 117.144531-3.5 6.800781-7.304687 13.4375-11.398437 19.871094-5.746094 9.070313-12.058594 17.746094-18.871094 25.988281-10.273438 12.425782-21.691406 23.855469-34.105469 34.148438-7.722656 6.402344-15.820313 12.359375-24.261719 17.835937-19.53125 12.664063-40.898437 22.738281-63.625 29.714844-2.683594.828125-5.382812 1.609375-8.109375 2.351563-3.894531 1.054687-7.824219 2.027343-11.785156 2.90625-17.878906 3.949218-36.457031 6.039062-55.515625 6.039062-32.578125 0-63.738281-6.082031-92.390625-17.179688-9.320313-3.601562-18.367187-7.742187-27.113281-12.371093-3.3125-1.753907-6.59375-3.582031-9.824219-5.472657-60.121094-35.265624-104.574219-94.355468-120.371094-164.3125-1.660156-7.335937-3.007812-14.785156-4.011719-22.351562-1.515624-11.21875-2.289062-22.671875-2.289062-34.3125 0-12.925781.960938-25.621094 2.8125-38.035156h506.375c1.316406 8.808594 2.175781 17.765625 2.570312 26.84375.160157 3.710937.242188 7.441406.242188 11.191406zm0 0" fill="#0084a6"/><path d="m511.757812 244.808594h-486.199218v-26.84375h483.628906c1.316406 8.808594 2.175781 17.765625 2.570312 26.84375zm0 0" fill="#69b8d4"/><path d="m155.105469 224.476562-15.320313 23.550782c-1.222656 1.890625-3.050781 3.300781-5.179687 4.003906l-66.40625 21.972656-.007813.011719-27.503906 9.097656-37.648438 12.457031c-2.003906-12.894531-3.039062-26.113281-3.039062-39.570312v-157.226562l42.539062-20.332032c.761719-.367187 1.546876-.628906 2.351563-.785156 2.183594-.429688 4.46875-.113281 6.488281.929688l13.539063 7.054687 27.972656 14.566406c2.027344 1.054688 3.625 2.777344 4.523437 4.878907l14.703126 34.3125c.5 1.160156 1.210937 2.214843 2.101562 3.105468l9.015625 9.015625c2.058594 2.058594 3.019531 4.796875 2.894531 7.492188-.125 2.363281-1.085937 4.703125-2.894531 6.511719-1.933594 1.933593-2.902344 4.460937-2.902344 7 0 2.433593.898438 4.859374 2.683594 6.769531l5.964844 6.355469 25.039062 26.652343c3.121094 3.324219 3.570313 8.351563 1.085938 12.175781zm0 0" fill="#757177"/><path d="m128.980469 185.648438-28.246094-21.144532c-3.382813-2.535156-1.316406-7.917968 2.894531-7.535156l22.480469 2.042969h.019531c-.125 2.363281-1.085937 4.703125-2.894531 6.511719-1.933594 1.933593-2.902344 4.460937-2.902344 7 0 2.433593.898438 4.859374 2.683594 6.769531zm0 0" fill="#2f373b"/><path d="m115.167969 247.429688-12.648438-2.992188c-4.023437-.953125-4.066406-6.660156-.0625-7.675781l7.855469-1.992188c5.71875-1.449219 5.675781-9.59375-.0625-10.980469l-18.75-4.535156c-4.902344-1.1875-7.894531-6.144531-6.65625-11.03125l3.417969-13.523437c1.574219-6.214844-1.140625-12.722657-6.660157-15.980469l-20.523437-12.105469c-6.570313-3.878906-8.992187-12.199219-5.523437-19l8.164062-16.003906c1.71875-3.371094 2.046875-7.285156.910156-10.894531l-13.25-42.128906-6.488281-.929688c-.804687.15625-1.589844.417969-2.351563.785156l-42.539062 20.332032v157.226562c0 13.457031 1.035156 26.675781 3.039062 39.570312l37.648438-12.457031 27.503906-9.097656.007813-.011719 47.441406-15.699218c5.414063-1.792969 5.074219-9.5625-.472656-10.875zm0 0" fill="#2f373b"/><path d="m38.386719 120.007812 3.085937 13.191407c.632813 2.710937-.8125 5.480469-3.402344 6.503906l-13.472656 5.332031c-4.914062 1.949219-9.554687-3.359375-6.96875-7.96875l10.386719-18.523437c2.503906-4.472657 9.203125-3.527344 10.371094 1.464843zm0 0" fill="#757177"/><path d="m73.875 207.421875-5.691406 16.210937c-1.152344 3.285157-4.539063 5.230469-7.957032 4.570313l-18.042968-3.480469c-6.488282-1.253906-7.8125-9.960937-1.988282-13.082031l23.730469-12.730469c5.648438-3.03125 12.070313 2.464844 9.949219 8.511719zm0 0" fill="#757177"/><path d="m150.414062 252.992188-144.113281 59.671874c-1.660156-7.335937-3.007812-14.785156-4.011719-22.351562l144.886719-47.25c2.734375-.898438 5.683594.597656 6.582031 3.34375.898438 2.75-.605468 5.695312-3.34375 6.585938zm0 0" fill="#fff"/><path d="m373.007812 186.933594h74.898438c2.128906 0 3.855469-1.722656 3.855469-3.855469 0-2.128906-1.726563-3.855469-3.855469-3.855469h-74.898438c-2.128906 0-3.855468 1.726563-3.855468 3.855469 0 2.132813 1.726562 3.855469 3.855468 3.855469zm0 0" fill="#f1eee9"/><path d="m483.671875 373.144531c-3.5 6.800781-7.304687 13.4375-11.398437 19.871094-15.769532 2.582031-37.542969-9.453125-44.941407 4.410156-4.253906 7.972657 9.695313 14.683594 26.070313 21.578125-10.273438 12.425782-21.691406 23.855469-34.105469 34.148438-7.722656 6.402344-15.820313 12.359375-24.261719 17.835937-21.839844 14.15625-45.976562 25.078125-71.734375 32.066407-108.472656 8.945312-100.945312-19.664063-94.40625-31.929688 12.414063-23.238281-103.933593-25.898438-89.636719-52.699219 14.261719-26.757812 84.289063-14.519531 94.214844-33.140625 9.914063-18.640625-37.273437-19.863281-21.746094-48.964844 15.496094-29.121093 81.875-32.859374 44.632813-52.699218-28.808594-15.359375-8.164063-30.820313 22.136719-40.703125 8.902344-2.925781 19.082031-4.285157 29.84375-3.375.019531-.011719.082031-.019531.113281 0 49.632813-5.003907 99.109375-6.992188 148.230469-6.113281-14.179688 26.582031-48.460938 14.753906-59.015625 34.554687-10.554688 19.800781 87.453125 6.980469 87.453125 34.699219 0 16.339844-63.242188 9.59375-73.796875 29.394531-8.808594 16.519531 57.425781 25.140625 72.347656 41.066406zm0 0" fill="#69b8d4"/><g fill="#0084a6"><path d="m396.890625 428.585938c0-6.628907-18.109375-12-40.449219-12s-40.449218 5.371093-40.449218 12c0 6.628906 18.109374 12.003906 40.449218 12.003906s40.449219-5.375 40.449219-12.003906zm0 0"/><path d="m369.71875 342.851562c0-6.203124-21.945312-11.230468-49.019531-11.230468s-49.019531 5.027344-49.019531 11.230468c0 6.207032 21.945312 11.234376 49.019531 11.234376s49.019531-5.027344 49.019531-11.234376zm0 0"/><path d="m330.914062 258.601562c0-1.976562-11.203124-3.578124-25.023437-3.578124-13.816406 0-25.019531 1.601562-25.019531 3.578124 0 1.972657 11.203125 3.574219 25.019531 3.574219 13.820313 0 25.023437-1.601562 25.023437-3.574219zm0 0"/><path d="m386.570312 282.597656c0-2.820312-11.660156-5.105468-26.039062-5.105468-14.382812 0-26.042969 2.285156-26.042969 5.105468 0 2.820313 11.660157 5.109375 26.042969 5.109375 14.378906 0 26.039062-2.289062 26.039062-5.109375zm0 0"/></g><path d="m331.410156 500.703125c-2.683594.828125-5.382812 1.609375-8.109375 2.351563-3.894531 1.054687-7.824219 2.027343-11.785156 2.90625-17.878906 3.949218-36.457031 6.039062-55.515625 6.039062-32.578125 0-63.738281-6.082031-92.390625-17.179688-9.320313-3.601562-18.367187-7.742187-27.113281-12.371093 31.847656-3.550781 81.648437-.574219 92.398437-11.324219zm0 0" fill="#69b8d4"/></svg>