<svg height="512pt" viewBox="0 0 512 512" width="512pt" xmlns="http://www.w3.org/2000/svg"><path d="m511.996094 256c0 141.382812-114.613282 255.996094-255.996094 255.996094-141.386719 0-256-114.613282-256-255.996094 0-141.386719 114.613281-256 256-256 141.382812 0 255.996094 114.613281 255.996094 256zm0 0" fill="#96d6d4"/><path d="m512 255.996094c0 141.386718-114.613281 256-256 256-22.066406 0-43.488281-2.800782-63.914062-8.054688-37.273438-9.574218-71.273438-27.335937-99.945313-51.253906-1.492187-11.796875-2.265625-23.8125-2.265625-36.015625 0-42.171875 9.203125-82.191406 25.722656-118.15625 40.367188-87.878906 124.375-151.550781 224.265625-163.277344 10.953125-1.292969 22.101563-1.953125 33.40625-1.953125 42.925781 0 83.621094 9.539063 120.078125 26.625 11.109375 27.417969 17.609375 57.175782 18.539063 88.34375.070312 2.570313.113281 5.152344.113281 7.742188zm0 0" fill="#ff931f"/><path d="m192.085938 503.941406c-44.1875-11.347656-83.769532-34.210937-115.347657-65.183594-31.042969-30.457031-54.355469-68.761718-66.746093-111.699218l29.832031-130.265625 160.671875-44.929688c17.703125 66.714844 80.34375 137.519531 153.871094 156.585938 58.746093 15.226562-97.207032 144.25-162.28125 195.492187zm0 0" fill="#ffbb16"/><path d="m196.410156 245.808594c12.257813 29.957031-104.84375 62.640625-90.550781 132.765625 6.835937 33.550781-9.851563 51.054687-29.121094 60.183593-47.351562-46.464843-76.73437475-111.183593-76.73437475-182.761718 0-38.09375 8.31640575-74.25 23.23828175-106.734375 72.316406-15.445313 169.910156-26.78125 177.253906 2.601562 8.171875 32.675781-140.246094 36.757813-132.082032 73.527344 8.167969 36.761719 115.742188-9.539063 127.996094 20.417969zm0 0" fill="#ff931f"/><path d="m510.277344 285.789062c-6.386719 55.210938-30.367188 105.082032-66.175782 143.847657-46.769531 50.648437-113.726562 82.359375-188.101562 82.359375-22.066406 0-43.488281-2.800782-63.914062-8.054688-12.007813-3.085937-23.667969-7.011718-34.929688-11.746094l197.210938-183.746093c49.601562 15.613281 117.183593-6.570313 155.910156-22.660157zm0 0" fill="#ffbb16"/><path d="m511.886719 248.253906c-27.679688 18.160156-63.5625 35.683594-98.964844 35.683594-73.539063 0-133.441406-108.929688-73.058594-148.699219 10.953125-1.292969 22.101563-1.953125 33.40625-1.953125 42.925781 0 83.621094 9.539063 120.078125 26.625 11.109375 27.417969 17.609375 57.175782 18.539063 88.34375zm0 0" fill="#ffbb16"/><path d="m400.898438 44.941406c-12.121094 21.441406-35.132813 35.910156-61.515626 35.910156-38.996093 0-70.601562-31.605468-70.601562-70.601562 0-3.355469.230469-6.667969.6875-9.894531 48.640625 2.515625 93.695312 18.617187 131.429688 44.585937zm0 0" fill="#ffbb16"/><g fill="#ff931f"><path d="m192.328125 313.898438c19.0625 38.125 40.851563 98.039062 140.253906 140.25 0 0-129.359375 12.253906-140.253906-140.25zm0 0"/><path d="m468.675781 199.152344c0 4.796875-3.886719 8.683594-8.679687 8.683594-4.792969 0-8.679688-3.886719-8.679688-8.683594 0-4.792969 3.886719-8.679688 8.679688-8.679688 4.792968 0 8.679687 3.886719 8.679687 8.679688zm0 0"/><path d="m476.847656 226.21875c0 4.792969-3.886718 8.679688-8.683594 8.679688-4.792968 0-8.679687-3.886719-8.679687-8.679688 0-4.796875 3.886719-8.683594 8.679687-8.683594 4.796876 0 8.683594 3.886719 8.683594 8.683594zm0 0"/><path d="m495.128906 207.6875c0 4.792969-3.886718 8.679688-8.679687 8.679688-4.796875 0-8.683594-3.886719-8.683594-8.679688 0-4.796875 3.886719-8.679688 8.683594-8.679688 4.792969 0 8.679687 3.882813 8.679687 8.679688zm0 0"/><path d="m151.988281 426.574219c0 4.792969-3.886719 8.679687-8.679687 8.679687-4.792969 0-8.679688-3.886718-8.679688-8.679687s3.886719-8.679688 8.679688-8.679688c4.792968 0 8.679687 3.886719 8.679687 8.679688zm0 0"/><path d="m160.160156 453.636719c0 4.796875-3.886718 8.683593-8.679687 8.683593-4.796875 0-8.683594-3.886718-8.683594-8.683593 0-4.792969 3.886719-8.679688 8.683594-8.679688 4.792969 0 8.679687 3.886719 8.679687 8.679688zm0 0"/><path d="m178.441406 435.109375c0 4.792969-3.886718 8.679687-8.679687 8.679687s-8.679688-3.886718-8.679688-8.679687c0-4.796875 3.886719-8.683594 8.679688-8.683594s8.679687 3.886719 8.679687 8.683594zm0 0"/></g></svg>