<svg height="512pt" viewBox="0 0 512.00025 512" width="512pt" xmlns="http://www.w3.org/2000/svg"><path d="m512 256c0 6.351562-.230469 12.640625-.6875 18.878906-1.957031 26.769532-8.015625 52.402344-17.578125 76.246094-13.226563 33.0625-33.175781 62.714844-58.125 87.289062-3.019531 2.980469-6.113281 5.875-9.289063 8.695313-5.171874 4.628906-10.542968 9.039063-16.09375 13.226563-3.089843 2.34375-6.238281 4.609374-9.445312 6.804687-4.960938 3.414063-10.050781 6.65625-15.265625 9.714844-3 1.769531-6.039063 3.480469-9.121094 5.121093-5.160156 2.757813-10.429687 5.339844-15.800781 7.742188-1.878906.847656-3.769531 1.671875-5.671875 2.46875-1.472656.613281-2.945313 1.222656-4.429687 1.804688-1.535157.617187-3.082032 1.214843-4.628907 1.789062-.628906.238281-1.253906.46875-1.882812.6875-2.976563 1.097656-5.984375 2.132812-9.003907 3.113281-4.441406 1.445313-8.9375 2.761719-13.46875 3.953125-.023437.007813-.042968.019532-.0625.019532-2.863281.75-5.75 1.460937-8.652343 2.121093-.148438.03125-.292969.074219-.449219.09375-9.863281 2.226563-19.949219 3.867188-30.21875 4.921875-1.441406.136719-2.886719.269532-4.328125.386719-1.472656.125-2.945313.238281-4.417969.332031-1.179687.085938-2.363281.160156-3.542968.210938-4.578126.25-9.195313.375-13.835938.375-4.636719 0-9.257812-.125-13.84375-.375-1.179688-.050782-2.359375-.125-3.542969-.210938-1.472656-.09375-2.945312-.207031-4.417969-.332031-1.441406-.117187-2.882812-.25-4.316406-.386719-10.269531-1.054687-20.355468-2.695312-30.226562-4.921875-.148438-.03125-.292969-.0625-.441406-.09375-2.902344-.660156-5.789063-1.371093-8.652344-2.121093-.019532 0-.050782-.011719-.070313-.019532-4.535156-1.191406-9.027343-2.519531-13.46875-3.953125-3.019531-.980469-6.03125-2.015625-9.007812-3.113281-.628907-.21875-1.253907-.457031-1.882813-.6875-1.542968-.585938-3.089844-1.183594-4.628906-1.789062-1.480469-.59375-2.957031-1.191407-4.429688-1.816407-1.902343-.792969-3.78125-1.609375-5.664062-2.457031-5.367188-2.402344-10.644531-4.984375-15.808594-7.75-3.082031-1.640625-6.109375-3.34375-9.109375-5.113281-5.214843-3.058594-10.3125-6.300781-15.277343-9.714844-3.195313-2.195313-6.34375-4.460937-9.433594-6.804687-5.550782-4.1875-10.921875-8.609376-16.101563-13.238282-3.167969-2.808594-6.261719-5.714844-9.28125-8.683594-24.949219-24.574218-44.898437-54.226562-58.125-87.289062-9.5625-23.84375-15.621093-49.476562-17.578125-76.246094-.457031-6.238281-.68749975-12.527344-.68749975-18.878906 0-8.339844.39843775-16.574219 1.17968775-24.703125 1.234375-12.902344 3.429687-25.535156 6.511718-37.8125 2.714844-10.835937 6.121094-21.402344 10.175782-31.628906 2.195312-5.550781 4.578125-10.992188 7.136718-16.34375 2.988282-6.226563 6.21875-12.320313 9.675782-18.253907 44.367187-76.109374 126.871094-127.257812 221.316406-127.257812 94.449219 0 176.953125 51.148438 221.320312 127.257812 3.457032 5.933594 6.6875 12.027344 9.675782 18.253907 2.558594 5.351562 4.941406 10.792969 7.136718 16.34375 4.054688 10.226562 7.460938 20.792969 10.175782 31.628906 3.082031 12.277344 5.277344 24.910156 6.511718 37.8125.78125 8.128906 1.179688 16.363281 1.179688 24.703125zm0 0" fill="#ffcf64"/><path d="m494.132812 161.851562h-476.261718c2.195312-5.546874 4.578125-10.992187 7.136718-16.339843h461.988282c2.558594 5.347656 4.941406 10.792969 7.136718 16.339843zm0 0" fill="#fca651"/><path d="m511.3125 274.878906c-1.957031 26.769532-8.015625 52.402344-17.578125 76.246094h-475.464844c-9.5625-23.84375-15.621093-49.476562-17.578125-76.246094zm0 0" fill="#fca651"/><path d="m510.820312 231.296875h-509.636718c1.234375-12.90625 3.429687-25.539063 6.511718-37.816406h496.613282c3.082031 12.277343 5.277344 24.914062 6.511718 37.816406zm0 0" fill="#fca651"/><path d="m111.210938 467.140625c-3.195313-2.195313-6.34375-4.464844-9.433594-6.804687-3.867188-67.1875-14.734375-133.796876-32.507813-198.988282l8.722657-2.382812c18.589843 68.171875 29.699218 137.882812 33.21875 208.175781zm0 0" fill="#ff931f"/><path d="m63.027344 224.027344c-12.964844 25.960937-4.539063 56.871094 19.792968 72.589844 15.265626-24.789063 5.960938-58.910157-19.792968-72.589844zm0 0" fill="#ff931f"/><path d="m104.449219 434.277344c-1.210938-25.582032 4.597656-97.96875 3.894531-98.214844 1.753906-.394531 17.464844 110.335938-1.746094 129.789062" fill="#ff931f"/><path d="m97.882812 376.863281c-2.898437-26.304687-34.328124-90.65625-34.875-90.179687 1.703126-.191406 20.898438 104.738281 38.890626 121.554687" fill="#ff931f"/><g fill="#ffbb16"><path d="m85.675781 447.097656c-3.167969-2.808594-6.261719-5.714844-9.28125-8.683594-1.285156-18.804687-3.699219-37.5625-7.230469-56.183593-9.519531-50.246094-26.9375-98.394531-51.785156-143.097657l7.660156-4.25c25.296876 45.515626 43.039063 94.539063 52.726563 145.71875 4.167969 22.027344 6.8125 44.230469 7.910156 66.496094zm0 0"/><path d="m.785156 203.535156c-4.519531 29.316406 10.800782 56.917969 37.972656 68.289063 9.996094-28.023438-8.722656-61.738281-37.972656-68.289063zm0 0"/><path d="m77.972656 409.824219c-1.273437-26.183594-4.976562-101.546875-6.554687-101.847657-.171875-.148437 10.308593 27.632813 14.609375 58.890626 4.945312 31.097656 3.710937 65.671874-5 75.503906"/><path d="m66.753906 351.292969c-5.117187-27.449219-48.625-86.660157-49.585937-85.46875-.105469.085937 12.191406 24.429687 23.476562 51.855469 11.867188 27.246093 22.722657 57.574218 33.144531 65.464843"/><path d="m135.597656 481.96875c-3.082031-1.640625-6.109375-3.34375-9.109375-5.113281-1.277343-80.800781-12.664062-161.058594-33.980469-239.246094l8.726563-2.382813c21.984375 80.621094 33.496094 163.410157 34.363281 246.742188zm0 0"/><path d="m86.265625 200.285156c-12.96875 25.960938-4.542969 56.871094 19.792969 72.589844 15.265625-24.789062 5.960937-58.910156-19.792969-72.589844zm0 0"/><path d="m127.6875 410.535156c-1.214844-25.582031 4.597656-97.96875 3.894531-98.214844 1.753907-.394531 17.464844 110.335938-1.746093 129.789063"/><path d="m121.121094 353.125c-2.898438-26.308594-34.328125-90.660156-34.875-90.183594 1.703125-.191406 20.898437 104.742188 38.890625 121.554688"/><path d="m161.5 493.992188c-1.480469-.59375-2.957031-1.191407-4.429688-1.816407-.070312-14.261719-.457031-28.527343-1.167968-42.777343-1.359375-27.167969-3.855469-54.304688-7.503906-81.367188l8.976562-1.210938c5.777344 42.859376 8.691406 85.921876 8.753906 128.960938-1.542968-.585938-3.089844-1.183594-4.628906-1.789062zm0 0"/><path d="m147.136719 330.214844c-16.273438 24.023437-11.996094 55.773437 10.054687 74.5625 18.398438-22.5625 13.671875-57.609375-10.054687-74.5625zm0 0"/><path d="m177.019531 499.582031c-3.019531-.980469-6.03125-2.015625-9.007812-3.113281 4.671875-25.066406 9.664062-49.023438 9.277343-49.222656.835938-.085938 1.496094 24.492187-.269531 52.335937zm0 0"/><path d="m161.542969 486.3125-.042969 7.679688c-1.480469-.59375-2.957031-1.191407-4.429688-1.816407-1.902343-.796875-3.78125-1.609375-5.664062-2.457031-7.804688-36.832031-11.0625-93.664062-12.421875-97.226562 1.265625 2.488281 10.648437 30.53125 16.917969 56.90625 3.375 14.21875 5.839844 27.949218 5.640625 36.914062zm0 0"/></g><path d="m199.652344 505.769531c-.148438-.03125-.292969-.0625-.441406-.09375-2.902344-.660156-5.789063-1.371093-8.652344-2.121093 0 .21875-.019532.449218-.039063.667968-.011719-.230468-.023437-.460937-.03125-.6875-3.429687-69.945312-14.441406-139.316406-32.945312-207.152344l8.734375-2.382812c12.433594 45.601562 21.523437 91.898438 27.21875 138.59375 2.8125 22.90625 4.796875 45.914062 5.964844 68.976562.066406 1.398438.136718 2.800782.191406 4.199219zm0 0" fill="#ff931f"/><path d="m151.304688 259.0625c-12.964844 25.960938-4.539063 56.871094 19.792968 72.589844 15.265625-24.792969 5.960938-58.910156-19.792968-72.589844zm0 0" fill="#ff931f"/><path d="m192.730469 469.3125c-1.214844-25.585938 4.59375-97.972656 3.894531-98.21875 1.753906-.394531 17.460938 110.335938-1.75 129.789062" fill="#ff931f"/><path d="m186.164062 411.898438c-2.902343-26.304688-34.332031-90.65625-34.875-90.179688 1.699219-.191406 20.898438 104.738281 38.890626 121.550781" fill="#ff931f"/><path d="m199.460938 501.570312c-.082032 1.367188-.164063 2.734376-.25 4.105469-2.902344-.660156-5.789063-1.371093-8.652344-2.121093 1.464844-23.613282 2.445312-47.28125 2.9375-70.960938 1.179687-55.398438-.25-110.882812-4.285156-165.949219l8.738281-.636719c5.722656 78.15625 6.226562 157.140626 1.511719 235.5625zm0 0" fill="#ffbb16"/><path d="m190.46875 229.277344c-18.195312 22.378906-15.828125 54.667968 5.433594 74.140625 19.285156-21.53125 16.785156-55.636719-5.433594-74.140625zm0 0" fill="#ffbb16"/><path d="m197.691406 441.351562c1.167969-25.460937 17.226563-95.28125 16.875-95.472656.953125-.082031 2.007813 109.402344-17.972656 126.753906" fill="#ffbb16"/><path d="m198.257812 384.167969c.328126-25.960938-19.742187-94.144531-20.078124-93.941407.933593.046876 3.265624 106.671876 19.996093 125.238282" fill="#ffbb16"/><path d="m239.640625 460.710938c-.105469 16.90625-.441406 33.8125-1.027344 50.699218-1.472656-.09375-2.945312-.207031-4.417969-.332031-1.441406-.117187-2.882812-.253906-4.316406-.386719 2.164063-63.03125.953125-126.253906-3.644531-188.949218l8.722656-.648438c3.398438 46.351562 4.964844 92.988281 4.683594 139.617188zm0 0" fill="#ffbb16"/><path d="m227.488281 284.367188c-18.195312 22.382812-15.828125 54.671874 5.433594 74.140624 19.285156-21.527343 16.785156-55.632812-5.433594-74.140624zm0 0" fill="#ffbb16"/><path d="m242.15625 511.621094c-1.179688-.050782-2.359375-.125-3.542969-.210938-1.472656-.09375-2.945312-.207031-4.417969-.332031l.511719-14.640625c.386719-8.421875 2.414063-21.710938 4.933594-35.722656 5.066406-28.328125 12.179687-59.613282 11.941406-59.746094.792969-.066406 1.660157 74.988281-9.425781 110.652344zm0 0" fill="#ffbb16"/><path d="m235.277344 439.261719c.324218-25.960938-19.742188-94.148438-20.078125-93.941407.933593.046876 3.261719 106.671876 19.996093 125.238282" fill="#ffbb16"/><path d="m442.734375 261.347656c-17.785156 65.191406-28.652344 131.8125-32.507813 198.988282-3.089843 2.34375-6.238281 4.609374-9.445312 6.804687 3.523438-70.289063 14.628906-140.003906 33.21875-208.175781zm0 0" fill="#ff931f"/><path d="m448.96875 224.027344c12.96875 25.960937 4.542969 56.871094-19.792969 72.589844-15.261719-24.789063-5.957031-58.910157 19.792969-72.589844zm0 0" fill="#ff931f"/><path d="m407.546875 434.277344c1.214844-25.582032-4.59375-97.96875-3.894531-98.214844-1.753906-.394531-17.464844 110.335938 1.746094 129.789062" fill="#ff931f"/><path d="m414.113281 376.863281c2.898438-26.304687 34.328125-90.65625 34.875-90.179687-1.703125-.191406-20.898437 104.738281-38.890625 121.554687" fill="#ff931f"/><path d="m494.613281 239.132812c-24.835937 44.699219-42.265625 92.847657-51.785156 143.097657-3.519531 18.621093-5.933594 37.375-7.21875 56.183593-3.019531 2.980469-6.113281 5.871094-9.289063 8.695313 1.097657-22.269531 3.738282-44.472656 7.910157-66.507813 9.695312-51.179687 27.425781-100.207031 52.722656-145.722656zm0 0" fill="#ffbb16"/><path d="m511.214844 203.535156c4.515625 29.316406-10.804688 56.917969-37.972656 68.289063-10-28.023438 8.71875-61.738281 37.972656-68.289063zm0 0" fill="#ffbb16"/><path d="m434.023438 409.824219c1.273437-26.183594 4.980468-101.546875 6.554687-101.847657.175781-.148437-10.308594 27.632813-14.609375 58.890626-4.945312 31.097656-3.710938 65.671874 5 75.503906" fill="#ffbb16"/><path d="m445.242188 351.292969c5.117187-27.449219 48.628906-86.660157 49.589843-85.46875.105469.085937-12.191406 24.429687-23.480469 51.855469-11.867187 27.246093-22.722656 57.574218-33.144531 65.464843" fill="#ffbb16"/><path d="m419.496094 237.605469c-21.328125 78.203125-32.707032 158.449219-33.980469 239.25-3 1.765625-6.039063 3.480469-9.121094 5.121093.855469-83.332031 12.382813-166.128906 34.367188-246.75zm0 0" fill="#ffbb16"/><path d="m425.734375 200.285156c12.964844 25.960938 4.539063 56.871094-19.792969 72.589844-15.265625-24.789062-5.960937-58.910156 19.792969-72.589844zm0 0" fill="#ffbb16"/><path d="m384.308594 410.535156c1.214844-25.582031-4.59375-97.96875-3.894532-98.214844-1.753906-.394531-17.460937 110.335938 1.746094 129.789063" fill="#ffbb16"/><path d="m390.875 353.125c2.902344-26.308594 34.332031-90.660156 34.875-90.183594-1.703125-.191406-20.898438 104.742188-38.890625 121.554688" fill="#ffbb16"/><path d="m363.59375 368.03125c-3.644531 27.0625-6.144531 54.210938-7.5 81.375-.710938 14.265625-1.097656 28.515625-1.171875 42.78125-1.472656.613281-2.945313 1.222656-4.429687 1.804688-1.535157.617187-3.082032 1.214843-4.628907 1.789062.0625-43.050781 2.988281-86.101562 8.765625-128.960938zm0 0" fill="#ffbb16"/><path d="m364.859375 330.214844c16.277344 24.023437 11.996094 55.773437-10.050781 74.5625-18.398438-22.5625-13.675782-57.609375 10.050781-74.5625zm0 0" fill="#ffbb16"/><path d="m343.980469 496.46875c-2.976563 1.097656-5.984375 2.132812-9.003907 3.113281-1.769531-27.84375-1.109374-52.421875-.273437-52.335937-.386719.199218 4.609375 24.15625 9.277344 49.222656zm0 0" fill="#ffbb16"/><path d="m373.007812 392.492188c-1.355468 3.5625-4.617187 60.394531-12.414062 97.226562-1.878906.847656-3.769531 1.671875-5.671875 2.464844-1.472656.617187-2.945313 1.222656-4.429687 1.808594l-.03125-7.679688c-.199219-8.964844 2.265624-22.695312 5.632812-36.90625 6.277344-26.371094 15.660156-54.425781 16.914062-56.914062zm0 0" fill="#ffbb16"/><path d="m354.453125 296.382812c-18.507813 67.835938-29.519531 137.203126-32.945313 207.148438-.011718.210938-.023437.410156-.03125.605469-.023437-.195313-.03125-.386719-.03125-.582031-2.863281.75-5.75 1.460937-8.652343 2.121093-.148438.03125-.292969.070313-.449219.09375.050781-1.433593.125-2.855469.195312-4.285156 1.171876-23.0625 3.15625-46.058594 5.96875-68.953125 5.695313-46.675781 14.785157-92.953125 27.207032-138.53125zm0 0" fill="#ff931f"/><path d="m360.691406 259.0625c12.964844 25.960938 4.539063 56.871094-19.792968 72.589844-15.265626-24.792969-5.960938-58.910156 19.792968-72.589844zm0 0" fill="#ff931f"/><path d="m319.269531 469.3125c1.210938-25.585938-4.597656-97.972656-3.894531-98.21875-1.753906-.394531-17.464844 110.335938 1.746094 129.789062" fill="#ff931f"/><path d="m325.835938 411.898438c2.898437-26.304688 34.328124-90.65625 34.875-90.179688-1.703126-.191406-20.898438 104.738281-38.890626 121.550781" fill="#ff931f"/><path d="m318.507812 432.53125c.492188 23.699219 1.472657 47.386719 2.9375 71.023438-2.863281.75-5.75 1.460937-8.652343 2.121093-.09375-1.390625-.179688-2.789062-.253907-4.191406-4.710937-78.386719-4.21875-157.339844 1.515626-235.476563l8.738281.636719c-4.035157 55.054688-5.464844 110.507813-4.285157 165.886719zm0 0" fill="#ffbb16"/><path d="m321.53125 229.277344c18.195312 22.378906 15.824219 54.667968-5.4375 74.140625-19.285156-21.53125-16.785156-55.636719 5.4375-74.140625zm0 0" fill="#ffbb16"/><path d="m314.308594 441.351562c-1.171875-25.460937-17.230469-95.28125-16.875-95.472656-.957032-.082031-2.011719 109.402344 17.972656 126.753906" fill="#ffbb16"/><path d="m313.738281 384.167969c-.324219-25.960938 19.742188-94.144531 20.078125-93.941407-.933594.046876-3.261718 106.671876-19.996094 125.238282" fill="#ffbb16"/><path d="m282.125 510.691406c-1.441406.136719-2.886719.269532-4.328125.386719-1.472656.125-2.945313.238281-4.417969.332031-.585937-16.90625-.929687-33.820312-1.023437-50.738281-.273438-46.621094 1.285156-93.246094 4.679687-139.578125l8.734375.648438c-4.597656 62.695312-5.808593 125.921874-3.644531 188.949218zm0 0" fill="#ffbb16"/><path d="m284.511719 284.367188c18.195312 22.382812 15.824219 54.671874-5.4375 74.140624-19.285157-21.527343-16.785157-55.632812 5.4375-74.140624zm0 0" fill="#ffbb16"/><path d="m277.796875 511.078125c-1.472656.125-2.945313.238281-4.417969.332031-1.179687.085938-2.363281.160156-3.542968.210938-11.074219-35.664063-10.207032-110.71875-9.425782-110.652344-.238281.132812 6.867188 31.386719 11.945313 59.703125 2.527343 14.03125 4.542969 27.335937 4.929687 35.765625zm0 0" fill="#ffbb16"/><path d="m276.71875 439.261719c-.324219-25.960938 19.746094-94.148438 20.078125-93.941407-.933594.046876-3.261719 106.671876-19.996094 125.238282" fill="#ffbb16"/><path d="m477.320312 127.257812h-442.636718c4.691406-8.054687 9.820312-15.832031 15.339844-23.289062 46.621093-63.070312 121.53125-103.96875 205.976562-103.96875 84.449219 0 159.359375 40.898438 205.980469 103.96875 5.519531 7.457031 10.648437 15.234375 15.339843 23.289062zm0 0" fill="#96d6d4"/><path d="m477.320312 127.257812h-442.636718c4.691406-8.054687 9.820312-15.832031 15.339844-23.289062.1875-.011719.386718-.011719.574218-.011719 10.207032 0 18.976563 6.152344 22.820313 14.953125 3.835937-8.800781 12.613281-14.953125 22.820312-14.953125s18.984375 6.152344 22.832031 14.953125c3.832032-8.800781 12.609376-14.953125 22.820313-14.953125 10.207031 0 18.972656 6.152344 22.808594 14.953125 3.84375-8.800781 12.621093-14.953125 22.832031-14.953125 10.207031 0 18.984375 6.152344 22.820312 14.953125 3.84375-8.800781 12.609376-14.953125 22.820313-14.953125 10.21875 0 18.984375 6.152344 22.828125 14.953125 3.847656-8.800781 12.613281-14.953125 22.832031-14.953125 10.210938 0 18.976563 6.152344 22.820313 14.953125 3.835937-8.800781 12.613281-14.953125 22.820312-14.953125 10.210938 0 18.988282 6.152344 22.832032 14.953125 3.835937-8.800781 12.601562-14.953125 22.808593-14.953125 10.210938 0 18.988281 6.152344 22.820313 14.953125 3.847656-8.800781 12.625-14.953125 22.832031-14.953125s18.984375 6.152344 22.820313 14.953125c3.84375-8.800781 12.613281-14.953125 22.820312-14.953125.1875 0 .386719 0 .574219.011719 5.519531 7.457031 10.648437 15.234375 15.339843 23.289062zm0 0" fill="#ff931f"/></svg>