<svg height="512pt" viewBox="0 0 512.00028 512" width="512pt" xmlns="http://www.w3.org/2000/svg"><path d="m512 256c0 9.632812-.53125 19.140625-1.578125 28.492188-.679687 6.1875-1.578125 12.308593-2.707031 18.359374-22.003906 119.011719-126.335938 209.144532-251.714844 209.144532-15.003906 0-29.714844-1.292969-44.007812-3.769532-5.894532-1.015624-11.714844-2.238281-17.449219-3.648437-3.460938-.867187-6.898438-1.785156-10.292969-2.777344-7.441406-2.164062-14.734375-4.652343-21.871094-7.460937-.011718 0-.011718-.011719-.011718-.011719-3.644532-1.421875-7.238282-2.9375-10.792969-4.523437h-.007813c-22.820312-10.21875-43.875-23.679688-62.578125-39.800782-4.296875-3.6875-8.453125-7.523437-12.488281-11.484375l-.011719-.007812c-13.699219-13.480469-25.878906-28.484375-36.277343-44.753907-1.921876-2.980468-3.761719-6-5.546876-9.058593-9.582031-16.457031-17.378906-34.066407-23.136718-52.570313-1.023438-3.289062-1.984375-6.59375-2.871094-9.9375v-.007812c-.117188-.410156-.21875-.804688-.324219-1.214844-.011719-.0625-.03125-.113281-.042969-.175781-3.125-11.921875-5.402343-24.179688-6.761718-36.71875-.050782-.460938-.09375-.929688-.144532-1.398438-.917968-8.769531-1.37890575-17.671875-1.37890575-26.675781 0-.441406 0-.867188.01171875-1.308594 0-.007812 0-.007812 0-.007812.132813-27.429688 4.574219-53.835938 12.703125-78.566406 33.550781-102.265626 129.796875-176.117188 243.28125-176.117188 113.488281 0 209.734375 73.851562 243.285156 176.117188 8.253906 25.128906 12.714844 51.984374 12.714844 79.882812zm0 0" fill="#0a9327"/><path d="m499.285156 176.117188h-486.566406c33.550781-102.265626 129.796875-176.117188 243.28125-176.117188 113.488281 0 209.734375 73.851562 243.285156 176.117188zm0 0" fill="#96d6d4"/><path d="m147.617188 170.671875h25.765624v46.335937h-25.765624zm0 0" fill="#ab5816"/><path d="m147.617188 170.671875h11.359374v46.335937h-11.359374zm0 0" fill="#8c3e09"/><path d="m173.382812 170.671875v27.492187c-8.589843.308594-17.179687.308594-25.765624 0v-27.492187zm0 0" fill="#8c3e09"/><path d="m216.132812 186.867188c-36.867187 5.75-74.398437 5.75-111.257812 0-9.214844-1.433594-12.621094-12.945313-5.722656-19.226563 5.863281-5.34375 11.480468-10.835937 16.847656-16.464844 13.300781-13.949219 25.050781-28.699219 35.1875-44.011719 4.429688-6.691406 14.199219-6.691406 18.628906 0 10.136719 15.304688 21.878906 30.0625 35.1875 44.003907 5.359375 5.628906 10.980469 11.128906 16.847656 16.472656 6.898438 6.28125 3.496094 17.792969-5.71875 19.226563zm0 0" fill="#21bf4a"/><path d="m134.527344 186.871094c8.605468 2.871094 17.289062 4.3125 25.972656 4.3125-18.59375 0-37.199219-1.441406-55.628906-4.3125-9.214844-1.433594-12.617188-12.945313-5.722656-19.230469 20.414062-18.597656 37.824218-38.992187 52.039062-60.476563 2.214844-3.34375 5.765625-5.019531 9.3125-5.019531-1.652344 0-3.308594 1.675781-4.347656 5.019531-6.636719 21.484376-14.769532 41.878907-24.296875 60.476563-3.21875 6.285156-1.632813 17.796875 2.671875 19.230469zm0 0" fill="#17aa3d"/><path d="m205.003906 151.167969c-29.515625 4.234375-59.480468 4.234375-89 .007812 13.296875-13.949219 25.050782-28.699219 35.183594-44.011719 4.429688-6.691406 14.199219-6.691406 18.628906 0 10.136719 15.304688 21.878906 30.0625 35.1875 44.003907zm0 0" fill="#17aa3d"/><path d="m205.769531 145.363281c-30.019531 4.378907-60.511719 4.378907-90.539062 0-9.242188-1.347656-12.757813-12.824219-5.910157-19.1875 5.421876-5.042969 10.597657-10.234375 15.515626-15.550781 9.84375-10.640625 18.671874-21.804688 26.429687-33.332031 4.417969-6.5625 14.058594-6.5625 18.476563 0 7.757812 11.527343 16.582031 22.691406 26.425781 33.332031 4.917969 5.316406 10.09375 10.507812 15.515625 15.550781 6.84375 6.363281 3.335937 17.839844-5.914063 19.1875zm0 0" fill="#21bf4a"/><path d="m139.367188 145.367188c7.003906 2.183593 14.070312 3.28125 21.132812 3.28125-15.132812 0-30.257812-1.097657-45.265625-3.28125-9.25-1.347657-12.757813-12.824219-5.914063-19.1875 16.277344-15.132813 30.300782-31.589844 41.941407-48.882813 2.207031-3.285156 5.722656-4.921875 9.238281-4.921875-1.644531 0-3.285156 1.636719-4.316406 4.921875-5.429688 17.292969-11.980469 33.75-19.582032 48.882813-3.191406 6.363281-1.554687 17.839843 2.765626 19.1875zm0 0" fill="#17aa3d"/><path d="m196.167969 110.625c-1.703125 2.039062-4.171875 3.515625-7.226563 3.882812-18.890625 2.273438-37.984375 2.273438-56.882812 0-3.054688-.367187-5.519532-1.84375-7.21875-3.882812 9.84375-10.644531 18.667968-21.804688 26.425781-33.332031 4.417969-6.5625 14.058594-6.5625 18.476563 0 7.757812 11.527343 16.582031 22.6875 26.425781 33.332031zm0 0" fill="#17aa3d"/><path d="m148.503906 63.121094c-6.738281 9.148437-14.382812 17.941406-22.898437 26.25-6.71875 6.554687-2.863281 17.933594 6.457031 19.054687 18.890625 2.273438 37.988281 2.273438 56.878906 0 9.320313-1.121093 13.175782-12.5 6.457032-19.054687-8.515626-8.308594-16.160157-17.101563-22.898438-26.25-5.976562-8.113282-18.019531-8.113282-23.996094 0zm0 0" fill="#21bf4a"/><path d="m147.222656 108.425781c4.40625 1.136719 8.84375 1.703125 13.277344 1.703125-9.492188 0-18.988281-.566406-28.4375-1.703125-9.320312-1.121093-13.171875-12.503906-6.457031-19.054687 8.515625-8.308594 16.15625-17.105469 22.898437-26.25 2.984375-4.058594 7.496094-6.085938 11.996094-6.085938-2.097656 0-4.207031 2.027344-5.601562 6.085938-3.144532 9.144531-6.714844 17.941406-10.6875 26.25-3.140626 6.550781-1.339844 17.933594 3.011718 19.054687zm0 0" fill="#17aa3d"/><path d="m52.121094 170.671875h25.765625v46.335937h-25.765625zm0 0" fill="#ab5816"/><path d="m52.121094 170.671875h11.359375v46.335937h-11.359375zm0 0" fill="#8c3e09"/><path d="m77.886719 170.671875v27.492187c-8.589844.308594-17.179688.308594-25.765625 0v-27.492187zm0 0" fill="#8c3e09"/><path d="m120.632812 186.867188c-36.863281 5.75-74.394531 5.75-111.253906 0-9.214844-1.433594-12.621094-12.945313-5.726562-19.226563 5.867187-5.34375 11.484375-10.835937 16.851562-16.464844 13.300782-13.949219 25.050782-28.699219 35.1875-44.011719 4.429688-6.691406 14.199219-6.691406 18.628906 0 10.132813 15.304688 21.878907 30.0625 35.1875 44.003907 5.359376 5.628906 10.980469 11.128906 16.847657 16.472656 6.898437 6.28125 3.492187 17.792969-5.722657 19.226563zm0 0" fill="#21bf4a"/><path d="m39.03125 186.871094c8.605469 2.871094 17.289062 4.3125 25.972656 4.3125-18.59375 0-37.199218-1.441406-55.628906-4.3125-9.214844-1.433594-12.617188-12.945313-5.722656-19.230469 20.410156-18.597656 37.820312-38.992187 52.039062-60.476563 2.214844-3.34375 5.761719-5.019531 9.3125-5.019531-1.65625 0-3.308594 1.675781-4.347656 5.019531-6.636719 21.484376-14.769531 41.878907-24.300781 60.476563-3.214844 6.285156-1.628907 17.796875 2.675781 19.230469zm0 0" fill="#17aa3d"/><path d="m109.507812 151.167969c-29.515624 4.234375-59.480468 4.234375-89.003906.007812 13.300782-13.949219 25.050782-28.699219 35.1875-44.011719 4.429688-6.691406 14.199219-6.691406 18.628906 0 10.136719 15.304688 21.878907 30.0625 35.1875 44.003907zm0 0" fill="#17aa3d"/><path d="m110.269531 145.363281c-30.015625 4.378907-60.511719 4.378907-90.535156 0-9.242187-1.347656-12.757813-12.824219-5.910156-19.1875 5.421875-5.042969 10.597656-10.234375 15.515625-15.550781 9.84375-10.640625 18.671875-21.804688 26.425781-33.332031 4.417969-6.5625 14.0625-6.5625 18.476563 0 7.761718 11.527343 16.585937 22.691406 26.429687 33.332031 4.917969 5.316406 10.09375 10.507812 15.515625 15.550781 6.84375 6.363281 3.332031 17.839844-5.917969 19.1875zm0 0" fill="#21bf4a"/><path d="m43.867188 145.367188c7.007812 2.183593 14.074218 3.28125 21.136718 3.28125-15.132812 0-30.257812-1.097657-45.265625-3.28125-9.25-1.347657-12.757812-12.824219-5.917969-19.1875 16.28125-15.132813 30.304688-31.589844 41.945313-48.882813 2.207031-3.285156 5.722656-4.921875 9.234375-4.921875-1.640625 0-3.28125 1.636719-4.3125 4.921875-5.429688 17.292969-11.984375 33.75-19.582031 48.882813-3.195313 6.363281-1.554688 17.839843 2.761719 19.1875zm0 0" fill="#17aa3d"/><path d="m100.671875 110.625c-1.703125 2.039062-4.171875 3.515625-7.226563 3.882812-18.890624 2.273438-37.988281 2.273438-56.882812 0-3.054688-.367187-5.519531-1.84375-7.21875-3.882812 9.84375-10.644531 18.667969-21.804688 26.425781-33.332031 4.417969-6.5625 14.058594-6.5625 18.476563 0 7.757812 11.527343 16.582031 22.6875 26.425781 33.332031zm0 0" fill="#17aa3d"/><path d="m53.007812 63.121094c-6.738281 9.148437-14.382812 17.941406-22.898437 26.25-6.71875 6.554687-2.863281 17.933594 6.453125 19.054687 18.894531 2.273438 37.992188 2.273438 56.882812 0 9.320313-1.121093 13.171876-12.5 6.457032-19.054687-8.515625-8.308594-16.160156-17.101563-22.898438-26.25-5.976562-8.113282-18.023437-8.113282-23.996094 0zm0 0" fill="#21bf4a"/><path d="m51.726562 108.425781c4.40625 1.136719 8.84375 1.703125 13.277344 1.703125-9.496094 0-18.988281-.566406-28.4375-1.703125-9.320312-1.121093-13.171875-12.503906-6.457031-19.054687 8.515625-8.308594 16.15625-17.105469 22.898437-26.25 2.984376-4.058594 7.496094-6.085938 11.996094-6.085938-2.097656 0-4.207031 2.027344-5.601562 6.085938-3.148438 9.144531-6.714844 17.941406-10.6875 26.25-3.144532 6.550781-1.339844 17.933594 3.011718 19.054687zm0 0" fill="#17aa3d"/><path d="m243.113281 170.671875h25.769531v46.335937h-25.769531zm0 0" fill="#ab5816"/><path d="m243.113281 170.671875h11.359375v46.335937h-11.359375zm0 0" fill="#8c3e09"/><path d="m268.882812 170.671875v27.492187c-8.59375.308594-17.183593.308594-25.769531 0v-27.492187zm0 0" fill="#8c3e09"/><path d="m311.628906 186.867188c-36.867187 5.75-74.398437 5.75-111.257812 0-9.214844-1.433594-12.617188-12.945313-5.722656-19.226563 5.863281-5.34375 11.480468-10.835937 16.847656-16.464844 13.300781-13.949219 25.054687-28.699219 35.1875-44.011719 4.429687-6.691406 14.199218-6.691406 18.628906 0 10.136719 15.304688 21.878906 30.0625 35.1875 44.003907 5.363281 5.628906 10.980469 11.128906 16.847656 16.472656 6.898438 6.28125 3.496094 17.792969-5.71875 19.226563zm0 0" fill="#21bf4a"/><path d="m230.027344 186.871094c8.601562 2.871094 17.285156 4.3125 25.96875 4.3125-18.589844 0-37.195313-1.441406-55.625-4.3125-9.214844-1.433594-12.621094-12.945313-5.726563-19.230469 20.414063-18.597656 37.824219-38.992187 52.039063-60.476563 2.214844-3.34375 5.765625-5.019531 9.3125-5.019531-1.652344 0-3.308594 1.675781-4.347656 5.019531-6.636719 21.484376-14.769532 41.878907-24.296876 60.476563-3.21875 6.285156-1.632812 17.796875 2.675782 19.230469zm0 0" fill="#17aa3d"/><path d="m300.5 151.167969c-29.515625 4.234375-59.480469 4.234375-89 .007812 13.300781-13.949219 25.050781-28.699219 35.1875-44.011719 4.425781-6.691406 14.195312-6.691406 18.625 0 10.136719 15.304688 21.882812 30.0625 35.1875 44.003907zm0 0" fill="#17aa3d"/><path d="m301.265625 145.363281c-30.019531 4.378907-60.511719 4.378907-90.535156 0-9.246094-1.347656-12.761719-12.824219-5.910157-19.1875 5.417969-5.042969 10.59375-10.234375 15.515626-15.550781 9.84375-10.640625 18.667968-21.804688 26.425781-33.332031 4.417969-6.5625 14.058593-6.5625 18.476562 0 7.757813 11.527343 16.582031 22.691406 26.425781 33.332031 4.917969 5.316406 10.09375 10.507812 15.515626 15.550781 6.84375 6.363281 3.335937 17.839844-5.914063 19.1875zm0 0" fill="#21bf4a"/><path d="m234.863281 145.367188c7.003907 2.183593 14.070313 3.28125 21.132813 3.28125-15.128906 0-30.253906-1.097657-45.265625-3.28125-9.25-1.347657-12.757813-12.824219-5.914063-19.1875 16.277344-15.132813 30.300782-31.589844 41.941406-48.882813 2.207032-3.285156 5.722657-4.921875 9.238282-4.921875-1.644532 0-3.28125 1.636719-4.3125 4.921875-5.433594 17.292969-11.984375 33.75-19.585938 48.882813-3.191406 6.363281-1.554687 17.839843 2.765625 19.1875zm0 0" fill="#17aa3d"/><path d="m291.664062 110.625c-1.699218 2.039062-4.171874 3.515625-7.226562 3.882812-18.890625 2.273438-37.984375 2.273438-56.878906 0-3.054688-.367187-5.523438-1.84375-7.222656-3.882812 9.84375-10.644531 18.667968-21.804688 26.425781-33.332031 4.417969-6.5625 14.058593-6.5625 18.476562 0 7.757813 11.527343 16.582031 22.6875 26.425781 33.332031zm0 0" fill="#17aa3d"/><path d="m244 63.121094c-6.738281 9.148437-14.382812 17.941406-22.898438 26.25-6.714843 6.554687-2.859374 17.933594 6.457032 19.054687 18.890625 2.273438 37.988281 2.273438 56.882812 0 9.316406-1.121093 13.171875-12.5 6.453125-19.054687-8.515625-8.308594-16.15625-17.101563-22.898437-26.25-5.976563-8.113282-18.019532-8.113282-23.996094 0zm0 0" fill="#21bf4a"/><path d="m242.71875 108.425781c4.40625 1.136719 8.84375 1.703125 13.277344 1.703125-9.492188 0-18.988282-.566406-28.4375-1.703125-9.316406-1.121093-13.171875-12.503906-6.457032-19.054687 8.515626-8.308594 16.15625-17.105469 22.902344-26.25 2.984375-4.058594 7.496094-6.085938 11.992188-6.085938-2.097656 0-4.207032 2.027344-5.601563 6.085938-3.144531 9.144531-6.714843 17.941406-10.6875 26.25-3.140625 6.550781-1.339843 17.933594 3.011719 19.054687zm0 0" fill="#17aa3d"/><path d="m338.609375 170.671875h25.769531v46.335937h-25.769531zm0 0" fill="#ab5816"/><path d="m338.613281 170.671875h11.359375v46.335937h-11.359375zm0 0" fill="#8c3e09"/><path d="m364.378906 170.671875v27.492187c-8.59375.308594-17.183594.308594-25.769531 0v-27.492187zm0 0" fill="#8c3e09"/><path d="m407.125 186.867188c-36.867188 5.75-74.398438 5.75-111.257812 0-9.214844-1.433594-12.617188-12.945313-5.722657-19.226563 5.863281-5.34375 11.484375-10.835937 16.851563-16.464844 13.300781-13.949219 25.050781-28.699219 35.183594-44.011719 4.429687-6.691406 14.199218-6.691406 18.628906 0 10.136718 15.304688 21.882812 30.0625 35.1875 44.003907 5.363281 5.628906 10.980468 11.128906 16.851562 16.472656 6.894532 6.28125 3.492188 17.792969-5.722656 19.226563zm0 0" fill="#21bf4a"/><path d="m325.523438 186.871094c8.601562 2.871094 17.285156 4.3125 25.972656 4.3125-18.59375 0-37.199219-1.441406-55.628906-4.3125-9.214844-1.433594-12.621094-12.945313-5.722657-19.230469 20.410157-18.597656 37.820313-38.992187 52.035157-60.476563 2.214843-3.34375 5.765624-5.019531 9.316406-5.019531-1.65625 0-3.3125 1.675781-4.347656 5.019531-6.640626 21.484376-14.769532 41.878907-24.300782 60.476563-3.21875 6.285156-1.632812 17.796875 2.675782 19.230469zm0 0" fill="#17aa3d"/><path d="m395.996094 151.167969c-29.515625 4.234375-59.480469 4.234375-89 .007812 13.300781-13.949219 25.050781-28.699219 35.1875-44.011719 4.429687-6.691406 14.195312-6.691406 18.628906 0 10.132812 15.304688 21.878906 30.0625 35.183594 44.003907zm0 0" fill="#17aa3d"/><path d="m396.761719 145.363281c-30.019531 4.378907-60.511719 4.378907-90.535157 0-9.246093-1.347656-12.761718-12.824219-5.910156-19.1875 5.421875-5.042969 10.59375-10.234375 15.515625-15.550781 9.84375-10.640625 18.667969-21.804688 26.425781-33.332031 4.417969-6.5625 14.058594-6.5625 18.476563 0 7.757813 11.527343 16.582031 22.691406 26.425781 33.332031 4.921875 5.316406 10.09375 10.507812 15.515625 15.550781 6.84375 6.363281 3.335938 17.839844-5.914062 19.1875zm0 0" fill="#21bf4a"/><path d="m330.359375 145.367188c7.007813 2.183593 14.070313 3.28125 21.132813 3.28125-15.128907 0-30.253907-1.097657-45.261719-3.28125-9.253907-1.347657-12.761719-12.824219-5.917969-19.1875 16.28125-15.132813 30.304688-31.589844 41.941406-48.882813 2.210938-3.285156 5.722656-4.921875 9.238282-4.921875-1.644532 0-3.28125 1.636719-4.3125 4.921875-5.433594 17.292969-11.984376 33.75-19.585938 48.882813-3.191406 6.363281-1.554688 17.839843 2.765625 19.1875zm0 0" fill="#17aa3d"/><path d="m387.160156 110.625c-1.699218 2.039062-4.171875 3.515625-7.226562 3.882812-18.890625 2.273438-37.984375 2.273438-56.878906 0-3.054688-.367187-5.519532-1.84375-7.222657-3.882812 9.84375-10.644531 18.667969-21.804688 26.425781-33.332031 4.417969-6.5625 14.058594-6.5625 18.476563 0 7.757813 11.527343 16.582031 22.6875 26.425781 33.332031zm0 0" fill="#17aa3d"/><path d="m339.496094 63.121094c-6.738282 9.148437-14.382813 17.941406-22.898438 26.25-6.71875 6.554687-2.863281 17.933594 6.457032 19.054687 18.890624 2.273438 37.988281 2.273438 56.878906 0 9.320312-1.121093 13.175781-12.5 6.457031-19.054687-8.515625-8.308594-16.15625-17.101563-22.898437-26.25-5.972657-8.113282-18.019532-8.113282-23.996094 0zm0 0" fill="#21bf4a"/><path d="m338.21875 108.425781c4.40625 1.136719 8.839844 1.703125 13.277344 1.703125-9.496094 0-18.992188-.566406-28.4375-1.703125-9.320313-1.121093-13.175782-12.503906-6.460938-19.054687 8.515625-8.308594 16.15625-17.105469 22.902344-26.25 2.984375-4.058594 7.496094-6.085938 11.996094-6.085938-2.101563 0-4.210938 2.027344-5.601563 6.085938-3.148437 9.144531-6.714843 17.941406-10.691406 26.25-3.140625 6.550781-1.339844 17.933594 3.015625 19.054687zm0 0" fill="#17aa3d"/><path d="m434.105469 170.671875h25.769531v46.335937h-25.769531zm0 0" fill="#ab5816"/><path d="m434.109375 170.671875h11.359375v46.335937h-11.359375zm0 0" fill="#8c3e09"/><path d="m459.875 170.671875v27.492187c-8.589844.308594-17.183594.308594-25.769531 0v-27.492187zm0 0" fill="#8c3e09"/><path d="m502.621094 186.867188c-36.867188 5.75-74.394532 5.75-111.253906 0-9.214844-1.433594-12.621094-12.945313-5.726563-19.226563 5.863281-5.34375 11.484375-10.835937 16.851563-16.464844 13.300781-13.949219 25.050781-28.699219 35.1875-44.011719 4.429687-6.691406 14.195312-6.691406 18.625 0 10.136718 15.304688 21.882812 30.0625 35.1875 44.003907 5.363281 5.628906 10.980468 11.128906 16.851562 16.472656 6.898438 6.28125 3.492188 17.792969-5.722656 19.226563zm0 0" fill="#21bf4a"/><path d="m421.019531 186.871094c8.601563 2.871094 17.289063 4.3125 25.972657 4.3125-18.59375 0-37.199219-1.441406-55.628907-4.3125-9.214843-1.433594-12.617187-12.945313-5.722656-19.230469 20.410156-18.597656 37.820313-38.992187 52.035156-60.476563 2.214844-3.34375 5.765625-5.019531 9.316407-5.019531-1.65625 0-3.3125 1.675781-4.347657 5.019531-6.640625 21.484376-14.769531 41.878907-24.300781 60.476563-3.21875 6.285156-1.632812 17.796875 2.675781 19.230469zm0 0" fill="#17aa3d"/><path d="m491.496094 151.167969c-29.519532 4.234375-59.480469 4.234375-89.003906.007812 13.300781-13.949219 25.050781-28.699219 35.1875-44.011719 4.429687-6.691406 14.199218-6.691406 18.628906 0 10.132812 15.304688 21.878906 30.0625 35.1875 44.003907zm0 0" fill="#17aa3d"/><path d="m492.257812 145.363281c-30.015624 4.378907-60.511718 4.378907-90.535156 0-9.246094-1.347656-12.757812-12.824219-5.910156-19.1875 5.421875-5.042969 10.597656-10.234375 15.515625-15.550781 9.84375-10.640625 18.667969-21.804688 26.425781-33.332031 4.417969-6.5625 14.058594-6.5625 18.476563 0 7.757812 11.527343 16.582031 22.691406 26.425781 33.332031 4.921875 5.316406 10.097656 10.507812 15.515625 15.550781 6.84375 6.363281 3.335937 17.839844-5.914063 19.1875zm0 0" fill="#21bf4a"/><path d="m425.855469 145.367188c7.007812 2.183593 14.070312 3.28125 21.136719 3.28125-15.132813 0-30.257813-1.097657-45.265626-3.28125-9.25-1.347657-12.761718-12.824219-5.917968-19.1875 16.28125-15.132813 30.304687-31.589844 41.941406-48.882813 2.210938-3.285156 5.726562-4.921875 9.238281-4.921875-1.644531 0-3.28125 1.636719-4.3125 4.921875-5.433593 17.292969-11.984375 33.75-19.585937 48.882813-3.191406 6.363281-1.550782 17.839843 2.765625 19.1875zm0 0" fill="#17aa3d"/><path d="m482.660156 110.625c-1.703125 2.039062-4.175781 3.515625-7.230468 3.882812-18.890626 2.273438-37.984376 2.273438-56.878907 0-3.054687-.367187-5.519531-1.84375-7.222656-3.882812 9.84375-10.644531 18.671875-21.804688 26.425781-33.332031 4.417969-6.5625 14.0625-6.5625 18.476563 0 7.757812 11.527343 16.582031 22.6875 26.429687 33.332031zm0 0" fill="#17aa3d"/><path d="m434.992188 63.121094c-6.738282 9.148437-14.382813 17.941406-22.898438 26.25-6.714844 6.554687-2.859375 17.933594 6.457031 19.054687 18.890625 2.273438 37.988281 2.273438 56.882813 0 9.316406-1.121093 13.171875-12.5 6.453125-19.054687-8.515625-8.308594-16.15625-17.101563-22.898438-26.25-5.972656-8.113282-18.019531-8.113282-23.996093 0zm0 0" fill="#21bf4a"/><path d="m433.714844 108.425781c4.40625 1.136719 8.839844 1.703125 13.277344 1.703125-9.496094 0-18.992188-.566406-28.4375-1.703125-9.320313-1.121093-13.175782-12.503906-6.460938-19.054687 8.515625-8.308594 16.160156-17.105469 22.902344-26.25 2.984375-4.058594 7.496094-6.085938 11.996094-6.085938-2.097657 0-4.207032 2.027344-5.601563 6.085938-3.148437 9.144531-6.714844 17.941406-10.691406 26.25-3.140625 6.550781-1.339844 17.933594 3.015625 19.054687zm0 0" fill="#17aa3d"/><path d="m100.582031 251.578125h33.496094v60.234375h-33.496094zm0 0" fill="#ab5816"/><path d="m100.585938 251.582031h14.765624v60.226563h-14.765624zm0 0" fill="#8c3e09"/><path d="m134.078125 251.578125v35.738281c-11.167969.402344-22.335937.402344-33.496094 0v-35.738281zm0 0" fill="#8c3e09"/><path d="m189.640625 272.636719c-47.917969 7.46875-96.703125 7.46875-144.617187 0-11.976563-1.867188-16.402344-16.828125-7.4375-24.996094 7.621093-6.949219 14.925781-14.085937 21.902343-21.402344 17.289063-18.132812 32.5625-37.308593 45.738281-57.210937 5.757813-8.695313 18.457032-8.695313 24.214844 0 13.175782 19.898437 28.441406 39.078125 45.738282 57.203125 6.96875 7.316406 14.273437 14.460937 21.902343 21.410156 8.960938 8.167969 4.539063 23.128906-7.441406 24.996094zm0 0" fill="#21bf4a"/><path d="m83.570312 272.636719c11.183594 3.734375 22.472657 5.605469 33.761719 5.605469-24.167969 0-48.351562-1.871094-72.308593-5.605469-11.980469-1.863281-16.402344-16.828125-7.441407-24.996094 26.53125-24.175781 49.164063-50.683594 67.644531-78.613281 2.878907-4.347656 7.492188-6.523438 12.105469-6.523438-2.152343 0-4.300781 2.175782-5.652343 6.523438-8.628907 27.925781-19.199219 54.4375-31.585938 78.613281-4.183594 8.167969-2.121094 23.132813 3.476562 24.996094zm0 0" fill="#17aa3d"/><path d="m175.179688 226.230469c-38.367188 5.5-77.316407 5.5-115.691407.007812 17.289063-18.132812 32.5625-37.308593 45.738281-57.210937 5.757813-8.695313 18.457032-8.695313 24.214844 0 13.175782 19.898437 28.441406 39.078125 45.738282 57.203125zm0 0" fill="#17aa3d"/><path d="m176.171875 218.683594c-39.019531 5.6875-78.65625 5.6875-117.683594 0-12.015625-1.75-16.585937-16.667969-7.683593-24.941406 7.046874-6.554688 13.773437-13.304688 20.167968-20.214844 12.796875-13.832032 24.269532-28.339844 34.351563-43.328125 5.742187-8.53125 18.273437-8.53125 24.019531 0 10.082031 14.988281 21.554688 29.496093 34.347656 43.328125 6.394532 6.910156 13.125 13.660156 20.171875 20.214844 8.890625 8.273437 4.332031 23.191406-7.691406 24.941406zm0 0" fill="#21bf4a"/><path d="m89.859375 218.6875c9.105469 2.839844 18.289063 4.265625 27.472656 4.265625-19.667969 0-39.328125-1.425781-58.839843-4.265625-12.023438-1.75-16.582032-16.667969-7.6875-24.941406 21.160156-19.667969 39.386718-41.0625 54.515624-63.542969 2.875-4.265625 7.441407-6.394531 12.011719-6.394531-2.136719 0-4.265625 2.128906-5.609375 6.394531-7.058594 22.480469-15.574218 43.875-25.457031 63.542969-4.152344 8.273437-2.019531 23.191406 3.59375 24.941406zm0 0" fill="#17aa3d"/><path d="m163.691406 173.527344c-2.210937 2.652344-5.421875 4.570312-9.394531 5.046875-24.554687 2.953125-49.375 2.953125-73.9375 0-3.96875-.476563-7.175781-2.394531-9.386719-5.046875 12.796875-13.832032 24.265625-28.339844 34.351563-43.328125 5.742187-8.53125 18.273437-8.53125 24.015625 0 10.085937 14.988281 21.554687 29.496093 34.351562 43.328125zm0 0" fill="#17aa3d"/><path d="m101.734375 111.777344c-8.757813 11.894531-18.695313 23.328125-29.761719 34.125-8.730468 8.519531-3.722656 23.3125 8.390625 24.769531 24.558594 2.957031 49.382813 2.957031 73.9375 0 12.113281-1.457031 17.125-16.25 8.390625-24.769531-11.066406-10.800782-21-22.230469-29.761718-34.125-7.769532-10.546875-23.425782-10.546875-31.195313 0zm0 0" fill="#21bf4a"/><path d="m100.074219 170.667969c5.726562 1.480469 11.492187 2.214843 17.257812 2.214843-12.34375 0-24.683593-.734374-36.964843-2.214843-12.117188-1.453125-17.125-16.25-8.394532-24.765625 11.066406-10.804688 21-22.234375 29.765625-34.125 3.878907-5.273438 9.746094-7.910156 15.59375-7.910156-2.726562 0-5.472656 2.636718-7.28125 7.910156-4.089843 11.890625-8.726562 23.320312-13.894531 34.125-4.085938 8.515625-1.742188 23.3125 3.917969 24.765625zm0 0" fill="#17aa3d"/><path d="m115.359375 446.511719c-8.765625 1.371093-17.566406 2.53125-26.371094 3.492187-4.296875-3.6875-8.453125-7.523437-12.488281-11.484375l-.011719-.007812c-32.371093-31.851563-56.320312-72.257813-68.15625-117.542969.71875-1.066406 1.429688-2.128906 2.140625-3.195312 7.15625-10.804688 22.9375-10.804688 30.082032 0 16.375 24.722656 35.351562 48.554687 56.832031 71.074218 8.664062 9.097656 17.742187 17.96875 27.21875 26.613282 11.140625 10.144531 5.644531 28.730468-9.246094 31.050781zm0 0" fill="#21bf4a"/><path d="m97.386719 388.847656c-18.976563 2.714844-38.066407 4.355469-57.175781 4.910156-1.921876-2.980468-3.761719-6-5.546876-9.058593-11.484374-19.730469-20.417968-41.117188-26.332031-63.730469.71875-1.066406 1.429688-2.128906 2.140625-3.195312 7.15625-10.804688 22.9375-10.804688 30.082032 0 16.375 24.722656 35.351562 48.554687 56.832031 71.074218zm0 0" fill="#17aa3d"/><path d="m98.628906 379.472656c-21.21875 3.09375-42.589844 4.835938-63.964844 5.222656-11.484374-19.726562-20.417968-41.113281-26.332031-63.726562-3.261719-12.421875-5.601562-25.214844-6.949219-38.296875 3.175782-4.34375 6.238282-8.722656 9.214844-13.144531 7.136719-10.605469 22.707032-10.605469 29.84375 0 12.527344 18.621094 26.78125 36.644531 42.683594 53.835937 7.941406 8.585938 16.300781 16.976563 25.054688 25.117188 11.054687 10.28125 5.382812 28.820312-9.550782 30.992187zm0 0" fill="#21bf4a"/><path d="m83.125 323.363281c-2.75 3.300781-6.738281 5.683594-11.683594 6.269531-19.894531 2.402344-39.925781 3.226563-59.914062 2.496094-1.148438-3.6875-2.214844-7.410156-3.195313-11.160156-3.261719-12.421875-5.601562-25.214844-6.949219-38.296875 3.175782-4.34375 6.238282-8.722656 9.214844-13.144531 7.136719-10.605469 22.707032-10.605469 29.84375 0 12.527344 18.621094 26.78125 36.648437 42.683594 53.835937zm0 0" fill="#17aa3d"/><path d="m71.453125 319.820312c-20.84375 2.507813-41.847656 3.300782-62.796875 2.371094v-.007812c-.117188-.410156-.21875-.804688-.324219-1.214844-.011719-.0625-.03125-.113281-.042969-.175781-3.125-11.921875-5.402343-24.179688-6.761718-36.71875-.050782-.460938-.09375-.929688-.144532-1.398438-.917968-8.769531-1.37890575-17.671875-1.37890575-26.675781 0-.441406 0-.867188.01171875-1.308594 0-.007812 0-.007812 0-.007812 2.097656-2.667969 4.136719-5.351563 6.121094-8.046875 9.65625-13.101563 29.109375-13.101563 38.753906 0 10.890625 14.773437 23.238281 28.984375 36.992187 42.402343 10.84375 10.582032 4.617188 28.964844-10.429687 30.78125zm0 0" fill="#21bf4a"/><path d="m8.289062 320.792969c5.726563 1.179687 11.472657 1.765625 17.21875 1.765625-5.609374 0-11.230468-.125-16.851562-.375-.117188-.410156-.21875-.804688-.324219-1.214844-.011719-.0625-.03125-.113281-.042969-.175781zm0 0" fill="#17aa3d"/><path d="m16.472656 246.636719c-4.464844 12.964843-9.449218 25.484375-14.945312 37.4375-.050782-.460938-.09375-.929688-.144532-1.398438-.917968-8.769531-1.37890575-17.671875-1.37890575-26.675781 0-.441406 0-.878906.01171875-1.316406 2.089844-2.65625 4.125-5.339844 6.121094-8.046875 4.816406-6.550781 12.109375-9.824219 19.371093-9.824219-3.382812 0-6.789062 3.273438-9.035156 9.824219zm0 0" fill="#17aa3d"/><path d="m233.734375 223.257812h98.945313v77.277344h-98.945313zm0 0" fill="#ab5816"/><path d="m233.734375 223.257812h9.25v77.277344h-9.25zm0 0" fill="#8c3e09"/><path d="m233.734375 223.257812h98.945313v7.945313h-98.945313zm0 0" fill="#8c3e09"/><path d="m277.277344 172.554688-51.375 36.242187c-8.207032 5.792969-4.109375 18.703125 5.933594 18.703125h102.746093c10.042969 0 14.140625-12.910156 5.933594-18.703125l-51.371094-36.242187c-3.558593-2.511719-8.3125-2.511719-11.867187 0zm0 0" fill="#ffbb16"/><path d="m282.972656 170.671875c-1.195312.078125-2.375.707031-3.394531 1.878906l-31.453125 36.246094c-5.019531 5.792969-2.515625 18.707031 3.636719 18.707031h-19.925781c-10.042969 0-14.136719-12.914062-5.929688-18.707031l51.371094-36.246094c1.710937-1.199219 3.695312-1.832031 5.695312-1.878906zm0 0" fill="#ff931f"/><path d="m311.585938 178.296875h19.5v31.417969h-19.5zm0 0" fill="#d7d3cd"/><path d="m311.585938 178.296875h6.5v31.417969h-6.5zm0 0" fill="#b3b3b3"/><path d="m271.46875 238.0625h-14.742188c-3.007812 0-5.445312 2.4375-5.445312 5.449219v38.964843h25.636719v-38.964843c0-3.011719-2.4375-5.449219-5.449219-5.449219zm0 0" fill="#2f373b"/><path d="m313.683594 238.0625h-14.742188c-3.011718 0-5.449218 2.4375-5.449218 5.449219v57.023437h25.640624v-57.023437c0-3.011719-2.441406-5.449219-5.449218-5.449219zm0 0" fill="#2f373b"/><path d="m399.554688 284.203125h37.242187v66.96875h-37.242187zm0 0" fill="#ab5816"/><path d="m399.558594 284.203125h16.417968v66.964844h-16.417968zm0 0" fill="#8c3e09"/><path d="m436.796875 284.203125v39.734375c-12.414063.445312-24.832031.445312-37.242187 0v-39.734375zm0 0" fill="#8c3e09"/><path d="m510.421875 284.492188c-.679687 6.1875-1.578125 12.308593-2.707031 18.359374-2.265625 2.425782-5.359375 4.167969-9.132813 4.765626-53.289062 8.296874-107.527343 8.296874-160.796875 0-13.320312-2.082032-18.242187-18.714844-8.273437-27.796876 8.472656-7.71875 16.589843-15.660156 24.355469-23.800781 19.226562-20.15625 36.203124-41.472656 50.855468-63.601562 6.402344-9.675781 20.519532-9.675781 26.914063 0 14.648437 22.121093 31.628906 43.445312 50.855469 63.601562 7.753906 8.128907 15.871093 16.082031 24.355468 23.800781 1.546875 1.402344 2.726563 2.988282 3.574219 4.671876zm0 0" fill="#21bf4a"/><path d="m380.640625 307.613281c12.433594 4.152344 24.984375 6.234375 37.535156 6.234375-26.871093 0-53.761719-2.082031-80.398437-6.234375-13.316406-2.070312-18.234375-18.710937-8.269532-27.792969 29.5-26.878906 54.664063-56.355468 75.207032-87.40625 3.203125-4.835937 8.332031-7.25 13.460937-7.25-2.390625 0-4.78125 2.417969-6.28125 7.25-9.597656 31.050782-21.347656 60.527344-35.121093 87.40625-4.648438 9.082032-2.359376 25.722657 3.867187 27.792969zm0 0" fill="#17aa3d"/><path d="m482.496094 256.015625c-42.65625 6.117187-85.964844 6.117187-128.632813.007813 19.226563-20.15625 36.207031-41.480469 50.855469-63.609376 6.402344-9.667968 20.519531-9.667968 26.921875 0 14.652344 22.121094 31.625 43.449219 50.855469 63.601563zm0 0" fill="#17aa3d"/><path d="m483.601562 247.625c-43.382812 6.328125-87.457031 6.328125-130.851562 0-13.359375-1.945312-18.4375-18.53125-8.539062-27.730469 7.832031-7.289062 15.3125-14.792969 22.421874-22.476562 14.230469-15.382813 26.984376-31.511719 38.195313-48.175781 6.386719-9.484376 20.320313-9.484376 26.703125 0 11.214844 16.664062 23.964844 32.792968 38.195312 48.175781 7.109376 7.683593 14.589844 15.1875 22.425782 22.476562 9.890625 9.195313 4.816406 25.785157-8.550782 27.730469zm0 0" fill="#21bf4a"/><path d="m387.632812 247.628906c10.125 3.15625 20.335938 4.742188 30.542969 4.742188-21.867187 0-43.726562-1.585938-65.417969-4.742188-13.371093-1.945312-18.441406-18.53125-8.550781-27.730468 23.527344-21.871094 43.792969-45.660157 60.617188-70.652344 3.191406-4.742188 8.273437-7.109375 13.351562-7.109375-2.375 0-4.742187 2.367187-6.234375 7.109375-7.851562 24.992187-17.320312 48.78125-28.304687 70.652344-4.613281 9.199218-2.246094 25.785156 3.996093 27.730468zm0 0" fill="#17aa3d"/><path d="m469.726562 197.417969c-2.460937 2.949219-6.03125 5.078125-10.445312 5.609375-27.300781 3.285156-54.898438 3.285156-82.207031 0-4.414063-.53125-7.980469-2.660156-10.4375-5.609375 14.226562-15.382813 26.980469-31.515625 38.191406-48.175781 6.386719-9.488282 20.320313-9.488282 26.703125 0 11.214844 16.660156 23.96875 32.792968 38.195312 48.175781zm0 0" fill="#17aa3d"/><path d="m400.835938 128.761719c-9.738282 13.222656-20.785157 25.933593-33.089844 37.941406-9.710938 9.472656-4.136719 25.917969 9.328125 27.539063 27.304687 3.285156 54.90625 3.285156 82.210937 0 13.46875-1.621094 19.039063-18.066407 9.332032-27.539063-12.308594-12.007813-23.355469-24.71875-33.09375-37.941406-8.640626-11.726563-26.046876-11.726563-34.6875 0zm0 0" fill="#21bf4a"/><path d="m398.988281 194.238281c6.371094 1.644531 12.78125 2.460938 19.191407 2.460938-13.722657 0-27.445313-.816407-41.101563-2.460938-13.46875-1.617187-19.039063-18.070312-9.335937-27.539062 12.308593-12.011719 23.351562-24.722657 33.097656-37.9375 4.316406-5.863281 10.835937-8.796875 17.339844-8.796875-3.035157 0-6.082032 2.933594-8.097657 8.796875-4.550781 13.214843-9.703125 25.925781-15.449219 37.9375-4.539062 9.46875-1.9375 25.921875 4.355469 27.539062zm0 0" fill="#17aa3d"/><path d="m211.992188 451.238281v56.988281c-9.4375-1.632812-18.695313-3.785156-27.742188-6.425781-7.441406-2.164062-14.734375-4.652343-21.871094-7.460937-.011718 0-.011718-.011719-.011718-.011719v-43.089844zm0 0" fill="#ab5816"/><path d="m184.25 451.238281v50.5625c-7.441406-2.164062-14.734375-4.652343-21.871094-7.460937v-43.101563zm0 0" fill="#8c3e09"/><path d="m211.992188 451.238281v52.933594c-5.820313.207031-11.628907.34375-17.449219.40625-3.460938-.867187-6.898438-1.785156-10.292969-2.777344-7.441406-2.164062-14.734375-4.652343-21.871094-7.460937-.011718 0-.011718-.011719-.011718-.011719v-43.089844zm0 0" fill="#8c3e09"/><path d="m294.285156 482.414062c-47.257812 7.367188-95.082031 9.832032-142.710937 7.386719-28.066407-12.558593-53.457031-30.019531-75.085938-51.292969 8.632813-8.097656 16.96875-16.371093 25.015625-24.816406 25.609375-26.851562 48.234375-55.253906 67.75-84.738281 8.527344-12.875 27.335938-12.875 35.863282 0 19.515624 29.476563 42.128906 57.886719 67.75 84.730469 10.324218 10.84375 21.136718 21.417968 32.441406 31.710937 13.28125 12.101563 6.71875 34.261719-11.023438 37.019531zm0 0" fill="#21bf4a"/><path d="m137.175781 482.425781c16.5625 5.527344 33.28125 8.296875 50.007813 8.296875-11.867188 0-23.738282-.304687-35.609375-.921875h-.007813c-28.058594-12.558593-53.4375-30.019531-75.066406-51.28125 36.101562-33.9375 67.125-70.832031 92.746094-109.558593 4.273437-6.445313 11.105468-9.664063 17.9375-9.664063-3.183594 0-6.371094 3.21875-8.378906 9.664063-12.777344 41.359374-28.429688 80.625-46.777344 116.433593-6.199219 12.101563-3.148438 34.261719 5.148437 37.03125zm0 0" fill="#17aa3d"/><path d="m272.867188 413.683594c-56.828126 8.148437-114.523438 8.148437-171.363282.011718 25.609375-26.855468 48.234375-55.257812 67.75-84.738281 8.527344-12.882812 27.335938-12.882812 35.863282 0 19.515624 29.46875 42.128906 57.882813 67.75 84.726563zm0 0" fill="#17aa3d"/><path d="m274.335938 402.507812c-57.792969 8.425782-116.507813 8.425782-174.3125 0-17.796876-2.59375-24.566407-24.691406-11.378907-36.945312 10.4375-9.707031 20.402344-19.703125 29.875-29.9375 18.953125-20.492188 35.941407-41.984375 50.878907-64.179688 8.507812-12.636718 27.070312-12.636718 35.574218 0 14.9375 22.195313 31.925782 43.6875 50.882813 64.179688 9.472656 10.234375 19.4375 20.230469 29.871093 29.9375 13.175782 12.253906 6.421876 34.351562-11.390624 36.945312zm0 0" fill="#21bf4a"/><path d="m146.488281 402.511719c13.488281 4.207031 27.089844 6.320312 40.691407 6.320312-29.132813 0-58.253907-2.109375-87.148438-6.320312-17.8125-2.59375-24.566406-24.6875-11.390625-36.941407 31.34375-29.132812 58.34375-60.824218 80.753906-94.121093 4.253907-6.316407 11.019531-9.472657 17.785157-9.472657-3.164063 0-6.316407 3.15625-8.304688 9.472657-10.457031 33.296875-23.070312 64.988281-37.703125 94.121093-6.152344 12.253907-2.996094 34.347657 5.316406 36.941407zm0 0" fill="#17aa3d"/><path d="m255.855469 335.625c-3.277344 3.925781-8.035157 6.765625-13.917969 7.472656-36.371094 4.378906-73.132812 4.378906-109.515625 0-5.878906-.707031-10.625-3.546875-13.902344-7.472656 18.953125-20.492188 35.941407-41.984375 50.878907-64.179688 8.507812-12.636718 27.070312-12.636718 35.574218 0 14.9375 22.195313 31.925782 43.6875 50.882813 64.179688zm0 0" fill="#17aa3d"/><path d="m164.082031 244.160156c-12.976562 17.613282-27.691406 34.546875-44.085937 50.542969-12.933594 12.621094-5.511719 34.53125 12.429687 36.691406 36.375 4.375 73.144531 4.375 109.519531 0 17.9375-2.160156 25.359376-24.070312 12.425782-36.691406-16.390625-15.996094-31.109375-32.929687-44.082032-50.542969-11.507812-15.625-34.699218-15.625-46.207031 0zm0 0" fill="#21bf4a"/><g fill="#17aa3d"><path d="m161.617188 331.386719c8.484374 2.191406 17.027343 3.277343 25.566406 3.277343-18.28125 0-36.5625-1.085937-54.753906-3.277343-17.941407-2.152344-25.359376-24.070313-12.433594-36.683594 16.394531-16.003906 31.109375-32.9375 44.09375-50.542969 5.742187-7.8125 14.429687-11.714844 23.09375-11.714844-4.039063 0-8.101563 3.902344-10.785156 11.714844-6.058594 17.605469-12.925782 34.539063-20.582032 50.542969-6.046875 12.613281-2.582031 34.53125 5.800782 36.683594zm0 0"/><path d="m445.464844 364.792969h-14.484375v-3.625c0-9.941407-9.640625-13.5625-9.738281-13.597657-1.878907-.683593-2.851563-2.761718-2.167969-4.644531.683593-1.878906 2.765625-2.851562 4.644531-2.164062.542969.195312 12.230469 4.589843 14.222656 16.785156h.5625c1.992188-12.195313 13.679688-16.589844 14.222656-16.785156 1.878907-.683594 3.960938.285156 4.644532 2.164062.679687 1.878907-.28125 3.953125-2.152344 4.640625-.4375.164063-9.753906 3.796875-9.753906 13.605469zm0 0"/><path d="m438.859375 364.792969c-.273437 0-.550781-.03125-.828125-.09375-1.945312-.457031-3.15625-2.402344-2.707031-4.347657.046875-.203124 3.296875-15.074218-5.644531-24.015624-1.414063-1.414063-1.414063-3.710938 0-5.125 1.414062-1.414063 3.710937-1.414063 5.125 0 11.839843 11.835937 7.757812 30.015624 7.582031 30.785156-.390625 1.667968-1.882813 2.796875-3.527344 2.796875zm0 0"/><path d="m338.636719 395.785156h-14.488281v-3.625c0-9.941406-9.640626-13.5625-9.734376-13.597656-1.882812-.683594-2.851562-2.761719-2.167968-4.644531.683594-1.878907 2.761718-2.851563 4.644531-2.167969.542969.199219 12.230469 4.59375 14.222656 16.789062h.5625c1.992188-12.195312 13.679688-16.589843 14.21875-16.789062 1.882813-.683594 3.960938.289062 4.644531 2.167969.683594 1.878906-.28125 3.953125-2.152343 4.640625-.433594.164062-9.75 3.796875-9.75 13.605468zm0 0"/><path d="m332.027344 395.789062c-.273438 0-.550782-.03125-.828125-.097656-1.945313-.453125-3.15625-2.398437-2.707031-4.347656.046874-.199219 3.296874-15.074219-5.644532-24.015625-1.414062-1.414063-1.414062-3.707031 0-5.125 1.414063-1.414063 3.710938-1.414063 5.125 0 11.839844 11.839844 7.757813 30.015625 7.582032 30.785156-.390626 1.671875-1.878907 2.800781-3.527344 2.800781zm0 0"/><path d="m411.609375 417.890625h-14.484375v-3.625c0-9.941406-9.640625-13.5625-9.738281-13.597656-1.882813-.683594-2.851563-2.765625-2.167969-4.644531.683594-1.878907 2.761719-2.851563 4.644531-2.167969.542969.199219 12.226563 4.589843 14.222657 16.785156h.5625c1.992187-12.195313 13.679687-16.585937 14.21875-16.785156 1.882812-.683594 3.960937.285156 4.644531 2.167969.683593 1.875-.277344 3.949218-2.152344 4.640624-.433594.164063-9.75 3.796876-9.75 13.601563zm0 0"/><path d="m405.003906 417.890625c-.273437 0-.550781-.03125-.828125-.097656-1.949219-.453125-3.160156-2.398438-2.707031-4.34375.042969-.203125 3.296875-15.074219-5.644531-24.015625-1.417969-1.417969-1.417969-3.710938 0-5.125 1.414062-1.417969 3.710937-1.417969 5.125 0 11.839843 11.835937 7.757812 30.015625 7.578125 30.78125-.390625 1.671875-1.878906 2.800781-3.523438 2.800781zm0 0"/><path d="m356.820312 458.082031h-14.484374v-3.625c0-9.941406-9.640626-13.5625-9.738282-13.597656-1.878906-.683594-2.851562-2.761719-2.167968-4.644531.683593-1.878906 2.761718-2.851563 4.644531-2.164063.542969.195313 12.230469 4.589844 14.222656 16.785157h.5625c1.992187-12.195313 13.679687-16.589844 14.21875-16.785157 1.882813-.683593 3.960937.285157 4.648437 2.164063.679688 1.878906-.28125 3.949218-2.152343 4.640625-.4375.164062-9.753907 3.796875-9.753907 13.605469zm0 0"/><path d="m350.214844 458.082031c-.273438 0-.550782-.03125-.828125-.09375-1.949219-.457031-3.160157-2.402343-2.707031-4.347656.042968-.203125 3.296874-15.074219-5.644532-24.015625-1.414062-1.414062-1.414062-3.710938 0-5.125 1.414063-1.414062 3.710938-1.414062 5.125 0 11.839844 11.835938 7.757813 30.015625 7.578125 30.785156-.390625 1.671875-1.878906 2.796875-3.523437 2.796875zm0 0"/></g></svg>