<svg height="512pt" viewBox="0 0 511 512" width="512pt" xmlns="http://www.w3.org/2000/svg"><path d="m511.582031 256.457031c0 60.007813-20.683593 115.183594-55.300781 158.78125-22.6875 28.570313-51.378906 52.183594-84.140625 68.921875-34.835937 17.804688-74.296875 27.839844-116.097656 27.839844-141.132813 0-255.542969-114.410156-255.542969-255.542969 0-17.394531 1.742188-34.398437 5.058594-50.8125 23.5625-116.789062 126.75-204.726562 250.484375-204.726562 124.585937 0 228.347656 89.15625 250.972656 207.15625 2.992187 15.664062 4.566406 31.84375 4.566406 48.382812zm0 0" fill="#96d6d4"/><path d="m511.582031 256.457031c0 60.007813-20.683593 115.183594-55.300781 158.78125-22.6875 28.570313-51.378906 52.183594-84.140625 68.921875h-112.304687l24.898437-227.480468c61.707031 51.628906 145.554687-31.898438 222.28125-48.605469 2.992187 15.664062 4.566406 31.84375 4.566406 48.382812zm0 0" fill="#2cce5a"/><path d="m456.28125 415.238281c-11.777344 14.832031-25.167969 28.328125-39.917969 40.21875-43.835937 35.371094-99.609375 56.542969-160.320312 56.542969-101.582031 0-189.3125-59.265625-230.511719-145.105469-16.039062-33.429687-25.03125-70.882812-25.03125-110.4375 0-17.394531 1.742188-34.398437 5.058594-50.8125 299.714844-84.957031 341.070312 194.835938 450.722656 209.59375zm0 0" fill="#21bf4a"/><path d="m416.363281 455.457031c-43.835937 35.371094-99.609375 56.542969-160.320312 56.542969-101.582031 0-189.3125-59.265625-230.511719-145.105469 52.847656-82.542969 163.960938-57.054687 230.226562 9.210938 51.988282 51.984375 96.023438 70.296875 160.605469 79.351562zm0 0" fill="#17aa3d"/><path d="m477.992188 106.292969c0 38.28125-31.035157 69.320312-69.320313 69.320312s-69.320313-31.039062-69.320313-69.320312c0-38.285157 31.035157-69.320313 69.320313-69.320313s69.320313 31.035156 69.320313 69.320313zm0 0" fill="#ffbb16"/><path d="m113.902344 187.753906c-6.5-.542968-11.671875-5.21875-13.140625-11.226562-4.160157 4.582031-10.9375 6.214844-16.914063 3.582031-5.96875-2.632813-9.332031-8.734375-8.761718-14.890625-5.421876 2.972656-12.351563 2.316406-17.140626-2.105469-4.792968-4.425781-5.996093-11.285156-3.464843-16.925781-6.089844 1.066406-12.445313-1.796875-15.546875-7.535156-3.109375-5.746094-2.019532-12.636719 2.214844-17.152344-6.113282-.980469-11.195313-5.757812-12.253907-12.207031-1.058593-6.429688 2.207031-12.578125 7.664063-15.46875-5.453125-2.902344-8.703125-9.054688-7.628906-15.484375 1.074218-6.445313 6.15625-11.214844 12.269531-12.183594-4.222657-4.523438-5.292969-11.410156-2.175781-17.148438 3.113281-5.734374 9.464843-8.582031 15.554687-7.511718-2.519531-5.644532-1.304687-12.496094 3.496094-16.90625 4.804687-4.421875 11.738281-5.058594 17.15625-2.070313-.5625-6.167969 2.8125-12.261719 8.789062-14.886719 5.980469-2.621093 12.757813-.96875 16.914063 3.625 1.476562-6.007812 6.65625-10.679687 13.164062-11.2070308 6.496094-.5273432 12.351563 3.2265628 14.789063 8.9023438 3.34375-5.203125 9.75-7.941406 16.070312-6.34375 6.332031 1.601563 10.667969 7.0625 11.128907 13.238281 4.855468-3.832031 11.804687-4.335937 17.269531-.761718 5.453125 3.574218 7.769531 10.140624 6.207031 16.121093 5.832031-2.050781 12.5625-.277343 16.566406 4.863281 4.015625 5.148438 4.082032 12.117188.660156 17.273438 6.191407-.054688 11.996094 3.8125 14.113282 9.988281 2.121094 6.183594-.085938 12.796875-5.003906 16.554688 5.863281 1.964843 10.085937 7.5 10.085937 14.023437v.085938.121094c-.015625 6.519531-4.246094 12.046874-10.105469 13.996093 4.90625 3.769531 7.09375 10.390625 4.964844 16.558594-2.132812 6.175781-7.945312 10.027344-14.132812 9.964844 3.410156 5.15625 3.324218 12.125-.695313 17.265625-4.015625 5.136718-10.757813 6.894531-16.578125 4.832031 1.550781 5.984375-.777344 12.546875-6.242188 16.105469-5.472656 3.566406-12.421874 3.050781-17.273437-.796875-.46875 6.171875-4.816406 11.632812-11.152344 13.222656-6.328125 1.582031-12.730469-1.167969-16.058593-6.378906-2.289063 5.304687-7.574219 8.921875-13.558594 8.921875-.417969-.003906-.832032-.019532-1.25-.054688zm0 0" fill="#21bf4a"/><path d="m114.042969 7.628906c2.511719-1.097656 5.019531-1.625 7.296875-1.625 3.152344 0 5.875 1.019532 7.550781 2.945313-2.285156-5.316407-7.574219-8.949219-13.578125-8.949219-.402344 0-.808594.0195312-1.214844.0507812-3.25.2617188-6.175781 1.5624998-8.464844 3.5507808-2.292968 1.984376-3.957031 4.652344-4.699218 7.65625-2.8125-3.113281-6.828125-4.875-10.988282-4.875-1.976562 0-3.992187.402344-5.925781 1.246094-5.539062 2.4375-8.851562 7.855469-8.851562 13.550782 0 .441406.023437.890624.0625 1.335937-2.210938-1.21875-4.679688-1.832031-7.144531-1.832031-3.578126 0-7.167969 1.285156-10.007813 3.902344-3.171875 2.914062-4.78125 6.894531-4.78125 10.886718 0 2.050782.425781 4.105469 1.28125 6.023438-.851563-.148438-1.699219-.222656-2.550781-.222656-5.246094 0-10.320313 2.796874-13 7.730468-1.222656 2.246094-1.800782 4.664063-1.800782 7.046875 0 3.71875 1.402344 7.347657 3.972657 10.101563-3.054688.488281-5.855469 1.921875-8.023438 4.039062-2.167969 2.121094-3.710937 4.925782-4.25 8.148438-.132812.820312-.203125 1.636718-.203125 2.449218 0 5.5 3.078125 10.503907 7.835938 13.03125-4.765625 2.527344-7.863282 7.539063-7.863282 13.054688 0 .796875.066407 1.601562.199219 2.414062.53125 3.226563 2.066407 6.03125 4.234375 8.15625 2.164063 2.121094 4.960938 3.5625 8.019532 4.050782-2.585938 2.761718-3.996094 6.402344-3.996094 10.128906 0 2.375.570312 4.789062 1.78125 7.023438 2.671875 4.945312 7.765625 7.757812 13.019531 7.757812.839844 0 1.6875-.070312 2.527344-.21875-.859375 1.921875-1.292969 3.992188-1.292969 6.050781 0 3.984375 1.601562 7.957031 4.757812 10.871094 2.84375 2.625 6.4375 3.921875 10.027344 3.921875 2.457032 0 4.910156-.609375 7.113282-1.816406-.039063.453125-.0625.90625-.0625 1.351562 0 5.683594 3.292968 11.105469 8.828124 13.542969 1.9375.851563 3.96875 1.257813 5.960938 1.257813 4.136719 0 8.140625-1.746094 10.953125-4.839844 1.464844 6.007812 6.636719 10.683594 13.140625 11.226562.417969.035156.835938.050782 1.246094.050782 2.996094 0 5.808594-.90625 8.167968-2.472657.820313-.550781 1.589844-1.179687 2.289063-1.878906-1.148437.316406-2.359375.464844-3.597656.464844-2.667969 0-5.484375-.683594-8.136719-1.851563-5.53125-2.441406-8.828125-9.539062-8.828125-15.464844 0-.46875.023437-.933593.066406-1.382812-2.207031 1.207031-4.660156 1.816406-7.117187 1.816406-3.585938 0-7.183594-1.296875-10.023438-3.921875-3.160156-2.914062-4.757812-6.886719-4.757812-10.871093 0-2.058594.429687-4.128907 1.292968-6.054688-.84375.148438-1.691406.222656-2.53125.222656-5.253906 0-10.34375-2.816406-13.015624-7.757812-1.210938-2.234375-1.785157-4.648438-1.785157-7.023438 0-3.726562 1.414063-7.371094 3.996094-10.128906-3.058594-.488281-5.855469-1.929688-8.015625-4.054688-2.171875-2.121093-3.707031-4.929687-4.234375-8.152343-.136719-.8125-.199219-1.617188-.199219-2.417969 0-5.511719 3.09375-10.527344 7.863282-13.050781-4.757813-2.53125-7.835938-7.53125-7.835938-13.035157 0-.808593.066406-1.625.203125-2.449218.535156-3.21875 2.078125-6.027344 4.246094-8.144532 2.167969-2.121093 4.96875-3.550781 8.023437-4.039062-2.570312-2.75-3.96875-6.382812-3.96875-10.097656 0-2.386719.578125-4.808594 1.796875-7.054688 2.679688-4.933594 7.757813-7.726562 13.003907-7.726562.847656 0 1.699218.070312 2.546874.21875-.855468-1.914063-1.277343-3.96875-1.277343-6.023438 0-3.992187 1.605469-7.972656 4.777343-10.886718 2.84375-2.617188 6.429688-3.902344 10.007813-3.902344 2.464844 0 4.933594.613281 7.148437 1.835937-.042968-.445312-.058593-.890625-.058593-1.335937 0-5.691406 3.300781-11.117188 8.84375-13.554688zm0 0" fill="#17aa3d"/><path d="m148.785156 210.953125h-52.890625c4.015625-4.558594 5.695313-9.859375 5.695313-12.550781v-43.210938c1.554687.960938 3.316406 1.636719 5.234375 1.949219.410156.074219.824219.125 1.234375.15625.414062.042969.832031.054687 1.238281.054687 5.488281 0 10.484375-3.066406 13.019531-7.800781 2.523438 4.785157 7.550782 7.882813 13.078125 7.882813.792969 0 1.585938-.0625 2.386719-.1875 1.941406-.3125 3.734375-.992188 5.3125-1.960938v43.117188c0 2.691406 1.675781 7.992187 5.691406 12.550781zm0 0" fill="#ab5816"/><path d="m114.847656 156.265625v42.136719c0 2.691406-.605468 7.992187-2.046875 12.550781h-16.90625c4.015625-4.558594 5.695313-9.859375 5.695313-12.550781v-43.210938c1.554687.960938 3.316406 1.636719 5.234375 1.949219.417969.074219.824219.125 1.234375.15625.414062.042969.832031.054687 1.238281.054687 1.941406 0 3.828125-.386718 5.550781-1.085937zm0 0" fill="#8c3e09"/><g fill="#f1eee9"><path d="m393.695312 195.230469c0-3.605469-2.921874-6.527344-6.53125-6.527344h-55.019531c-3.605469 0-6.527343 2.921875-6.527343 6.527344s2.921874 6.53125 6.527343 6.53125h17.796875c3.605469 0 6.53125 2.921875 6.53125 6.527343 0 3.605469-2.925781 6.53125-6.53125 6.53125h-1.8125c-3.605468 0-6.53125 2.921876-6.53125 6.527344 0 3.605469 2.925782 6.53125 6.53125 6.53125h52.730469c3.605469 0 6.53125-2.925781 6.53125-6.53125 0-3.605468 2.921875-6.527344 6.527344-6.527344h1.816406c3.605469 0 6.53125-2.925781 6.53125-6.53125 0-3.605468-2.925781-6.527343-6.53125-6.527343h-15.507813c-3.609374 0-6.53125-2.925781-6.53125-6.53125zm0 0"/><path d="m375.269531 85.871094c0-7.347656-5.953125-13.300782-13.300781-13.300782h-89.832031c-7.347657 0-13.300781 5.953126-13.300781 13.300782 0 7.34375 5.953124 13.296875 13.300781 13.296875h21.054687c7.34375 0 13.296875 5.957031 13.296875 13.300781s5.957031 13.300781 13.300781 13.300781h68.777344c7.347656 0 13.300782-5.957031 13.300782-13.300781s-5.953126-13.300781-13.300782-13.300781c-7.34375 0-13.296875-5.953125-13.296875-13.296875zm0 0"/></g></svg>