<svg height="512pt" viewBox="0 0 512 512.00027" width="512pt" xmlns="http://www.w3.org/2000/svg"><path d="m512 256c0 17.847656-1.828125 35.277344-5.308594 52.097656-2.121094 10.242188-4.847656 20.261719-8.148437 30.011719-6 17.742187-13.898438 34.605469-23.4375 50.363281-14.722657 24.304688-33.386719 45.953125-55.085938 64.082032-44.421875 37.117187-101.609375 59.445312-164.019531 59.445312-50.707031 0-97.96875-14.742188-137.738281-40.1875-33.132813-21.191406-61.054688-49.789062-81.429688-83.476562-12.296875-20.300782-21.847656-42.453126-28.128906-65.941407-2.839844-10.566406-5.003906-21.402343-6.46875-32.457031-1.472656-11.105469-2.234375-22.433594-2.234375-33.9375 0-141.386719 114.613281-256 256-256s256 114.613281 256 256zm0 0" fill="#96d6d4"/><path d="m204.019531 257.46875c0 15.007812-2.25 29.476562-6.414062 43.046875-2.753907 1-5.535157 1.945313-8.332031 2.835937-3.539063 1.125-7.128907 2.164063-10.742188 3.117188-1.191406.3125-2.386719.625-3.589844.917969-1.632812.394531-3.273437.777343-4.914062 1.148437-2.421875.539063-4.855469 1.035156-7.292969 1.492188-.835937-2.144532-1.617187-4.320313-2.339844-6.523438-4.773437-14.4375-7.359375-29.925781-7.359375-46.035156 0-24.921875 6.191406-48.34375 17.074219-68.710938 1.796875-3.367187 5.101563-5.054687 8.421875-5.054687 3.300781-.007813 6.613281 1.679687 8.414062 5.046875 5.988282 11.21875 10.566407 23.367188 13.46875 36.183594 2.355469 10.449218 3.605469 21.339844 3.605469 32.535156zm0 0" fill="#21bf4a"/><path d="m178.53125 183.703125v122.765625c-1.191406.3125-2.386719.625-3.585938.917969-1.632812.394531-3.277343.777343-4.917968 1.148437-2.421875.539063-4.855469 1.035156-7.292969 1.492188-.835937-2.144532-1.613281-4.320313-2.339844-6.523438-4.769531-14.4375-7.359375-29.925781-7.359375-46.035156 0-24.921875 6.195313-48.34375 17.074219-68.710938 1.796875-3.367187 5.101563-5.054687 8.421875-5.054687zm0 0" fill="#2cce5a"/><path d="m174.945312 307.386719c-1.632812.394531-3.277343.777343-4.917968 1.148437-4.503906 1-9.054688 1.871094-13.660156 2.59375-1.992188.3125-3.992188.605469-5.992188.863282-3.421875-5.816407-6.679688-12.476563-9.734375-19.972657-9.632813-23.664062-15.863281-52.507812-18.699219-82.882812-.429687-4.589844 4.820313-7.589844 8.480469-4.78125.035156.027343.0625.046875.097656.074219 10.414063 8.015624 20.230469 22.171874 28.488281 42.460937 2.890626 7.109375 5.476563 14.679687 7.753907 22.613281 3.410156 11.910156 6.144531 24.644532 8.183593 37.882813zm0 0" fill="#17aa3d"/><path d="m170.027344 308.535156c-4.507813 1-9.054688 1.871094-13.664063 2.59375-9.035156 1.433594-18.253906 2.3125-27.625 2.625-2.484375-2.386718-4.90625-4.917968-7.238281-7.605468-14.28125-16.449219-23.605469-36.460938-27.953125-57.5625-.808594-3.898438 2.84375-7.273438 6.679687-6.183594 17.925782 5.136718 34.90625 15.769531 48.917969 31.910156 7.542969 8.6875 13.699219 18.359375 18.46875 28.660156.855469 1.835938 1.660157 3.691406 2.414063 5.5625zm0 0" fill="#2cce5a"/><path d="m235.121094 209.144531c-2.835938 30.367188-9.074219 59.214844-18.699219 82.875-.117187.285157-.238281.578125-.355469.863281-6.011718 2.804688-12.167968 5.355469-18.460937 7.632813-2.75 1-5.53125 1.941406-8.332031 2.832031-2.265626.726563-4.550782 1.40625-6.851563 2.046875 3.414063-21.3125 8.625-41.285156 15.632813-58.503906 8.257812-20.285156 18.066406-34.445313 28.488281-42.460937 3.695312-2.84375 9.007812.0625 8.578125 4.714843zm0 0" fill="#17aa3d"/><path d="m263.515625 248.585938c-1.300781 6.324218-3.054687 12.535156-5.246094 18.589843-20.480469 15.808594-43.773437 28.15625-68.992187 36.175781 4.796875-10.441406 11.007812-20.242187 18.640625-29.039062 14.011719-16.140625 30.992187-26.773438 48.921875-31.910156 3.824218-1.089844 7.484375 2.285156 6.675781 6.183594zm0 0" fill="#21bf4a"/><path d="m156.363281 311.128906c-11.496093 1.816406-23.273437 2.753906-35.285156 2.753906-10.328125 0-20.503906-.699218-30.46875-2.046874-9.769531-6.871094-16.917969-14.441407-21.429687-22.339844-2.175782-3.796875 1-8.421875 5.339843-7.878906 24 2.988281 46.761719 9.382812 65.488281 19.199218 6.15625 3.230469 11.613282 6.6875 16.355469 10.3125zm0 0" fill="#21bf4a"/><path d="m301.835938 322.722656-27.640626-12.980468-19.652343-9.226563c28.503906-60.707031 38.039062-114.441406 41.023437-148.832031 3.238282-37.433594-.34375-60.769532-.382812-61.007813l18.242187-2.984375 33.320313-5.453125c.714844 4.371094 16.996094 108.621094-44.910156 240.484375zm0 0" fill="#ab5816"/><path d="m274.195312 309.742188-19.652343-9.226563c28.503906-60.707031 38.039062-114.441406 41.023437-148.832031 3.238282-37.433594-.34375-60.769532-.382812-61.007813l18.242187-2.984375c2.53125 20.875 9.40625 110.28125-39.230469 222.050782zm0 0" fill="#8c3e09"/><path d="m303.253906 95.492188c-14.867187-3.730469-29.941406 5.300781-33.671875 20.164062-3.726562 14.867188 5.300781 29.941406 20.167969 33.671875 14.863281 3.726563 29.9375-5.300781 33.667969-20.167969 3.730469-14.863281-5.300781-29.9375-20.164063-33.667968zm0 0" fill="#37323a"/><path d="m351.402344 96.800781c-14.863282-3.730469-29.9375 5.300781-33.667969 20.164063-3.730469 14.867187 5.296875 29.941406 20.164063 33.671875 14.867187 3.726562 29.941406-5.300781 33.667968-20.167969 3.730469-14.863281-5.296875-29.9375-20.164062-33.667969zm0 0" fill="#37323a"/><path d="m326.175781 106.757812c-17.03125-43.535156-18.847656-83.355468 24.757813-100.675781 28.21875-11.210937 58.839844-6.390625 81.792968 10.109375 7.578126 5.449219 5.367188 17.195313-3.675781 19.511719-55.710937 14.257813-63.539062 70.925781-102.875 71.054687zm0 0" fill="#17aa3d"/><path d="m326.175781 106.757812c11.140625-45.402343 7.6875-85.113281-37.820312-96.53125-29.453125-7.386718-59.171875 1.429688-79.746094 20.816407-6.792969 6.398437-3.050781 17.75 6.21875 18.851562 57.105469 6.785157 72.339844 61.925781 111.347656 56.863281zm0 0" fill="#21bf4a"/><path d="m326.175781 106.761719c-8.75 15.324219-24.273437 19.519531-42.339843 23.230469-5.058594 1.039062-10.191407-1.308594-12.746094-5.796876-4.355469-7.648437-12.152344-16.554687-25.621094-19.933593 0 0 4.382812 11.554687 5.980469 23.738281.703125 5.347656-2.351563 10.441406-7.332031 12.515625-10.496094 4.371094-20.878907 10.722656-30.484376 20.707031-6.472656 6.726563-17.78125 2.855469-18.78125-6.425781-3.042968-28.105469 7.859376-57.117187 31.53125-76.140625 36.570313-29.398438 70.3125-8.179688 99.792969 28.105469zm0 0" fill="#2cce5a"/><path d="m451.179688 109.1875c-2.285157-.898438-4.546876-1.679688-6.78125-2.355469-3.910157-1.183593-6.835938-4.40625-7.679688-8.40625-1.1875-5.65625-3.210938-11.789062-6.597656-17.445312 0 .28125.046875 5.152343-.410156 11.675781-.410157 5.824219-5.210938 10.410156-11.050782 10.402344-37.574218-.058594-67.335937 21.679687-92.484375 3.703125 11.609375-45.285157 33.394531-78.664063 78.910157-67.25 29.453124 7.390625 51.488281 29.1875 60.472656 55.992187 2.96875 8.847656-5.683594 17.09375-14.378906 13.683594zm0 0" fill="#21bf4a"/><path d="m326.175781 106.757812c41.410157-21.699218 80.789063-27.871093 102.785157 13.574219 14.238281 26.824219 12.800781 57.785157-1.085938 82.410157-4.585938 8.132812-16.503906 7.21875-19.796875-1.515626-20.277344-53.8125-77.460937-55.382812-81.902344-94.46875zm0 0" fill="#2cce5a"/><path d="m506.691406 308.097656c-2.121094 10.242188-4.847656 20.261719-8.148437 30.011719-6 17.742187-13.898438 34.605469-23.4375 50.363281-14.722657 24.304688-33.386719 45.953125-55.085938 64.082032-44.421875 37.117187-101.609375 59.445312-164.019531 59.445312-50.707031 0-97.96875-14.742188-137.738281-40.1875-33.132813-21.191406-61.054688-49.789062-81.429688-83.476562-12.296875-20.300782-21.847656-42.453126-28.128906-65.941407-2.839844-10.566406-5.003906-21.402343-6.46875-32.457031 38.285156 3.824219 43.972656 20.09375 92.265625 20.09375 54.742188 0 54.742188-20.898438 109.484375-20.898438 54.734375 0 54.734375 20.898438 109.476563 20.898438 54.742187 0 54.742187-20.898438 109.484374-20.898438 44.480469 0 52.816407 13.792969 83.746094 18.964844zm0 0" fill="#69b8d4"/><path d="m432.128906 353.300781c0 37.566407-55.183594 69.171875-130.175781 78.503907-14.648437 1.828124-30.058594 2.800781-45.953125 2.800781-97.269531 0-176.128906-36.40625-176.128906-81.304688 0-44.886719 78.859375-81.292969 176.128906-81.292969 15.894531 0 31.304688.972657 45.953125 2.800782 74.992187 9.332031 130.175781 40.9375 130.175781 78.492187zm0 0" fill="#ff931f"/><path d="m432.128906 353.300781c0 37.566407-55.183594 69.171875-130.175781 78.503907-74.992187-9.332032-130.171875-40.9375-130.171875-78.503907 0-37.554687 55.179688-69.160156 130.171875-78.492187 74.992187 9.332031 130.175781 40.9375 130.175781 78.492187zm0 0" fill="#ffbb16"/><path d="m498.542969 338.109375c-6 17.742187-13.898438 34.605469-23.4375 50.363281-14.722657 24.304688-33.386719 45.953125-55.085938 64.082032-44.421875 37.117187-101.609375 59.445312-164.019531 59.445312-50.707031 0-97.96875-14.742188-137.738281-40.1875-33.132813-21.191406-61.054688-49.789062-81.429688-83.476562-12.296875-20.300782-21.847656-42.453126-28.128906-65.941407 32.644531 4.890625 40.355469 19.296875 85.796875 19.296875 54.742188 0 54.742188-20.898437 109.484375-20.898437 54.734375 0 54.734375 20.898437 109.476563 20.898437 54.742187 0 54.742187-20.898437 109.484374-20.898437 40.308594 0 50.9375 11.328125 75.597657 17.316406zm0 0" fill="#0084a6"/><path d="m36.832031 388.335938c14.734375 5.570312 28.347657 11.566406 57.667969 11.566406 54.742188 0 54.742188-20.898438 109.484375-20.898438 54.734375 0 54.734375 20.898438 109.476563 20.898438 54.742187 0 54.742187-20.898438 109.484374-20.898438 25.652344 0 39.277344 4.589844 52.160157 9.46875-14.722657 24.304688-33.386719 45.953125-55.085938 64.082032-44.421875 37.117187-101.609375 59.445312-164.019531 59.445312-50.707031 0-97.96875-14.742188-137.738281-40.1875-33.132813-21.191406-61.054688-49.789062-81.429688-83.476562zm0 0" fill="#00657c"/><path d="m168.527344 426.179688-11.539063-17.613282c-2.804687-4.28125-8.550781-5.476562-12.828125-2.671875l-.636718.414063c-4.28125 2.804687-5.476563 8.546875-2.671876 12.828125l11.539063 17.613281c-6.261719 4.492188-7.9375 13.152344-3.675781 19.65625l22.769531 34.753906c4.375 6.679688 13.335937 8.546875 20.015625 4.171875l15.109375-9.894531c6.679687-4.378906 8.546875-13.339844 4.167969-20.019531l-22.765625-34.753907c-4.261719-6.507812-12.867188-8.429687-19.484375-4.484374zm0 0" fill="#2cce5a"/><path d="m161.066406 448.316406 22.769532 34.753906c4.375 6.679688 9.933593 10.78125 12.414062 9.152344l-4.742188 3.109375c-6.679687 4.375-15.648437 2.507813-20.023437-4.171875l-22.765625-34.75c-4.265625-6.511718-2.589844-15.167968 3.671875-19.660156l-11.535156-17.609375c-2.804688-4.285156-1.609375-10.027344 2.671875-12.832031l.191406-.128906c-1.582031 1.039062-.601562 5.355468 2.207031 9.640624l11.535157 17.609376c-2.21875 1.839843-.65625 8.375 3.605468 14.886718zm0 0" fill="#17aa3d"/><path d="m167.199219 444.398438 13.40625-7.742188 16.339843 28.300781-13.40625 7.742188zm0 0" fill="#17aa3d"/><path d="m420.019531 452.554688c-44.421875 37.117187-101.609375 59.445312-164.019531 59.445312-50.707031 0-97.96875-14.742188-137.738281-40.1875 32.570312-4.898438 40.3125-19.277344 85.722656-19.277344 54.734375 0 54.734375 20.898438 109.476563 20.898438 53.746093 0 54.71875-20.144532 106.558593-20.878906zm0 0" fill="#69b8d4"/><g fill="#ff931f"><path d="m358.582031 291.472656c0-6.175781-16.867187-11.179687-37.671875-11.179687-20.808594 0-37.671875 5.003906-37.671875 11.179687 0 6.171875 16.863281 11.175782 37.671875 11.175782 20.804688 0 37.671875-5.003907 37.671875-11.175782zm0 0"/><path d="m255.320312 304.691406c0 4.136719-3.351562 7.488282-7.488281 7.488282-4.132812 0-7.488281-3.351563-7.488281-7.488282 0-4.136718 3.355469-7.488281 7.488281-7.488281 4.136719 0 7.488281 3.351563 7.488281 7.488281zm0 0"/><path d="m277.6875 294.792969c0 4.136719-3.355469 7.488281-7.492188 7.488281-4.132812 0-7.488281-3.351562-7.488281-7.488281s3.355469-7.488281 7.488281-7.488281c4.136719 0 7.492188 3.351562 7.492188 7.488281zm0 0"/><path d="m275.84375 315.882812c0 4.136719-3.351562 7.488282-7.488281 7.488282s-7.488281-3.351563-7.488281-7.488282c0-4.136718 3.351562-7.488281 7.488281-7.488281s7.488281 3.351563 7.488281 7.488281zm0 0"/></g><path d="m372.414062 273.496094c0 12.644531-8.472656 23.320312-20.039062 26.65625-2.445312.71875-5.039062 1.097656-7.710938 1.097656-15.328124 0-27.753906-12.4375-27.753906-27.753906 0-15.328125 12.425782-27.753906 27.753906-27.753906 2.671876 0 5.265626.378906 7.710938 1.097656 11.566406 3.335937 20.039062 14.003906 20.039062 26.65625zm0 0" fill="#37323a"/><path d="m372.414062 273.496094c0 12.644531-8.472656 23.320312-20.039062 26.65625-11.566406-3.335938-20.042969-14.011719-20.042969-26.65625 0-12.652344 8.476563-23.320313 20.042969-26.65625 11.566406 3.335937 20.039062 14.003906 20.039062 26.65625zm0 0" fill="#5b565e"/><path d="m359.75 264.699219c0 2.035156-1.652344 3.6875-3.6875 3.6875-2.039062 0-3.6875-1.652344-3.6875-3.6875 0-2.039063 1.648438-3.6875 3.6875-3.6875 2.035156 0 3.6875 1.648437 3.6875 3.6875zm0 0" fill="#37323a"/><path d="m367.191406 273.035156c0 2.035156-1.652344 3.6875-3.6875 3.6875s-3.6875-1.652344-3.6875-3.6875c0-2.039062 1.652344-3.6875 3.6875-3.6875s3.6875 1.648438 3.6875 3.6875zm0 0" fill="#37323a"/><path d="m356.765625 275.527344c0 2.039062-1.652344 3.6875-3.6875 3.6875s-3.6875-1.648438-3.6875-3.6875c0-2.035156 1.652344-3.6875 3.6875-3.6875s3.6875 1.652344 3.6875 3.6875zm0 0" fill="#37323a"/><path d="m172.136719 92.347656c0 23.832032-19.320313 43.152344-43.15625 43.152344-23.832031 0-43.152344-19.320312-43.152344-43.152344 0-23.835937 19.320313-43.15625 43.152344-43.15625 23.835937 0 43.15625 19.320313 43.15625 43.15625zm0 0" fill="#ffbb16"/></svg>