<svg height="512pt" viewBox="0 0 512 512" width="512pt" xmlns="http://www.w3.org/2000/svg"><path d="m512 256c0 6.875-.273438 13.699219-.804688 20.4375-10.417968 131.835938-120.6875 235.5625-255.195312 235.5625-77.1875 0-146.390625-34.15625-193.335938-88.1875-34.847656-40.117188-57.417968-91.191406-61.859374-147.363281-.53125-6.75-.804688-13.5625-.804688-20.449219 0-141.386719 114.613281-256 256-256s256 114.613281 256 256zm0 0" fill="#96d6d4"/><path d="m511.886719 121.21875-.691407 155.21875-229.847656-95.796875 22.757813-29.539063c1.703125-2.214843 4.171875-3.574218 6.804687-3.9375 1.648438-.230468 3.375-.0625 5.015625.554688l32.890625 12.234375c2.488282.917969 5.226563.855469 7.660156-.179687l31.660157-13.445313c1.988281-.847656 4.148437-1.046875 6.199219-.605469 1.386718.292969 2.726562.867188 3.90625 1.722656l28.984374 21.011719c4.117188 2.988281 9.800782 2.539063 13.40625-1.0625l53.5625-53.554687c6.539063-6.550782 17.730469-1.878906 17.691407 7.378906zm0 0" fill="#2f373b"/><path d="m225.832031 180.988281-54.773437 23.238281-170.253906 72.222657-.804688-124.25 9.707031-91.617188c.355469-3.332031 1.996094-6.101562 4.316407-7.992187 3.550781-2.90625 8.691406-3.71875 13.226562-1.304688l14.972656 7.980469 37.566406-46.382813c3.1875-3.929687 8.179688-5.222656 12.558594-3.992187 2.6875.742187 5.140625 2.4375 6.8125 5.046875l48.234375 75.128906c3.050781 4.652344 8.921875 6.574219 14.15625 4.640625l8.359375-3.09375c3.5-1.296875 7.261719-.855469 10.273438.929688 1.953125 1.160156 3.59375 2.882812 4.648437 5.066406zm0 0" fill="#2f373b"/><path d="m54.476562 196.492188v-18.917969c0-3.980469 3.851563-6.828125 7.652344-5.65625l24.34375 7.488281c2.097656.644531 4.375.078125 5.925782-1.46875l7.59375-7.597656c2.3125-2.308594 6.054687-2.308594 8.367187 0l11.691406 11.695312c3.371094 3.367188 1.578125 9.132813-3.105469 10l-55.476562 10.273438c-3.636719.675781-6.992188-2.117188-6.992188-5.816406zm0 0" fill="#757177"/><path d="m225.832031 180.988281-54.25 25.335938-.523437-2.097657-10.964844-43.847656c-1.972656-7.882812 2.457031-15.953125 10.164062-18.519531 6.457032-2.152344 10.761719-8.253906 10.625-15.058594l-.699218-35.257812c1.953125 1.160156 3.59375 2.882812 4.648437 5.066406zm0 0" fill="#757177"/><path d="m198.875 169.761719 6.046875 13.417969-15.640625 8.167968 4.398438-21.023437c.546874-2.601563 4.101562-2.988281 5.195312-.5625zm0 0" fill="#2f373b"/><path d="m228.617188 216.707031c.140624-.800781.210937-1.597656.226562-2.386719 6.507812.652344 12.511719-3.820312 13.652344-10.367187 1.109375-6.355469-2.75-12.421875-8.78125-14.230469.046875-.183594.09375-.363281.128906-.554687.769531-4.425781-2.1875-8.636719-6.613281-9.410157-2.941407-.511718-5.785157.632813-7.589844 2.753907-1.90625-2.722657-4.855469-4.71875-8.390625-5.335938-5.363281-.9375-10.523438 1.574219-13.234375 5.929688-1.84375-.960938-3.988281-1.398438-6.214844-1.132813-5.898437.699219-10.113281 6.046875-9.414062 11.945313.25 2.097656 1.085937 3.976562 2.324219 5.503906-1.21875 1.988281-1.804688 4.382813-1.511719 6.882813.34375 2.890624 1.804687 5.371093 3.898437 7.074218-.050781.210938-.09375.421875-.128906.636719-1.160156 6.632813 3.28125 12.949219 9.914062 14.109375 3.019532.527344 5.972657-.109375 8.402344-1.582031 1.722656 1.179687 3.71875 2.023437 5.910156 2.40625 8.191407 1.429687 15.992188-4.050781 17.421876-12.242188zm0 0" fill="#17aa3d"/><path d="m181.59375 211.480469c.140625-.800781.210938-1.597657.226562-2.386719 6.503907.652344 12.511719-3.820312 13.652344-10.367188 1.109375-6.351562-2.75-12.421874-8.78125-14.226562.046875-.183594.09375-.367188.128906-.558594.769532-4.421875-2.1875-8.632812-6.613281-9.40625-2.941406-.515625-5.785156.628906-7.589843 2.753906-1.90625-2.726562-4.855469-4.71875-8.390626-5.335937-5.363281-.9375-10.523437 1.570313-13.234374 5.925781-1.84375-.957031-3.988282-1.394531-6.214844-1.132812-5.898438.699218-10.113282 6.046875-9.414063 11.949218.25 2.09375 1.085938 3.976563 2.324219 5.503907-1.21875 1.988281-1.804688 4.382812-1.511719 6.878906.34375 2.890625 1.804688 5.375 3.898438 7.074219-.050781.210937-.09375.421875-.128907.636718-1.160156 6.632813 3.28125 12.949219 9.914063 14.109376 3.019531.527343 5.972656-.109376 8.402344-1.582032 1.722656 1.183594 3.71875 2.023438 5.910156 2.40625 8.191406 1.433594 15.992187-4.046875 17.421875-12.242187zm0 0" fill="#17aa3d"/><path d="m334.226562 216.011719c.140626-.800781.210938-1.601563.226563-2.386719 6.507813.652344 12.511719-3.820312 13.652344-10.367188 1.109375-6.355468-2.75-12.421874-8.777344-14.230468.042969-.183594.089844-.367188.125-.554688.773437-4.425781-2.1875-8.636718-6.613281-9.410156-2.941406-.511719-5.785156.632812-7.589844 2.753906-1.90625-2.722656-4.855469-4.71875-8.390625-5.335937-5.363281-.9375-10.519531 1.574219-13.230469 5.925781-1.847656-.957031-3.992187-1.394531-6.214844-1.128906-5.898437.699218-10.113281 6.046875-9.417968 11.945312.25 2.097656 1.085937 3.976563 2.324218 5.503906-1.21875 1.988282-1.804687 4.382813-1.507812 6.878907.339844 2.890625 1.800781 5.375 3.894531 7.078125-.050781.207031-.089843.417968-.128906.632812-1.160156 6.632813 3.28125 12.953125 9.914063 14.109375 3.019531.527344 5.972656-.105469 8.402343-1.578125 1.722657 1.179688 3.71875 2.023438 5.910157 2.402344 8.191406 1.433594 15.996093-4.046875 17.421874-12.238281zm0 0" fill="#17aa3d"/><path d="m373.132812 220.125c.140626-.800781.210938-1.597656.222657-2.386719 6.507812.652344 12.511719-3.820312 13.652343-10.367187 1.109376-6.351563-2.75-12.421875-8.777343-14.226563.046875-.183593.09375-.367187.125-.558593.773437-4.425782-2.1875-8.636719-6.609375-9.40625-2.945313-.515626-5.789063.628906-7.59375 2.75-1.90625-2.722657-4.855469-4.71875-8.390625-5.335938-5.363281-.933594-10.519531 1.574219-13.230469 5.929688-1.847656-.960938-3.992188-1.394532-6.214844-1.132813-5.898437.699219-10.113281 6.046875-9.414062 11.945313.246094 2.097656 1.082031 3.980468 2.324218 5.503906-1.21875 1.988281-1.808593 4.386718-1.511718 6.882812.34375 2.890625 1.800781 5.375 3.894531 7.074219-.046875.210937-.089844.421875-.128906.636719-1.15625 6.632812 3.28125 12.949218 9.914062 14.109375 3.023438.527343 5.972657-.109375 8.40625-1.582031 1.722657 1.183593 3.71875 2.023437 5.910157 2.40625 8.191406 1.433593 15.992187-4.050782 17.421874-12.242188zm0 0" fill="#17aa3d"/><path d="m139.796875 227.15625c.140625-.800781.210937-1.597656.222656-2.386719 6.507813.652344 12.511719-3.820312 13.65625-10.367187 1.109375-6.351563-2.753906-12.421875-8.78125-14.226563.046875-.183593.09375-.367187.125-.558593.773438-4.425782-2.1875-8.636719-6.609375-9.40625-2.941406-.515626-5.785156.628906-7.59375 2.75-1.90625-2.722657-4.855468-4.71875-8.390625-5.335938-5.359375-.933594-10.519531 1.574219-13.230469 5.929688-1.847656-.960938-3.992187-1.394532-6.214843-1.132813-5.898438.699219-10.113281 6.046875-9.414063 11.945313.246094 2.097656 1.085938 3.980468 2.324219 5.503906-1.21875 1.988281-1.808594 4.386718-1.511719 6.882812.34375 2.890625 1.804688 5.371094 3.894532 7.074219-.046876.210937-.089844.421875-.128907.632813-1.15625 6.636718 3.28125 12.953124 9.917969 14.109374 3.019531.53125 5.96875-.105468 8.402344-1.578124 1.722656 1.179687 3.71875 2.023437 5.910156 2.40625 8.191406 1.433593 15.992188-4.050782 17.421875-12.242188zm0 0" fill="#17aa3d"/><path d="m511.195312 276.4375c-10.417968 131.835938-120.6875 235.5625-255.195312 235.5625-77.1875 0-146.390625-34.15625-193.335938-88.1875-10.535156-12.121094-19.949218-25.257812-28.078124-39.226562-18.753907-32.234376-30.679688-68.941407-33.78125-108.136719 60.917968-53.90625 139.023437-88.804688 225.039062-95.453125 5.507812-.4375 11.046875-.75 16.613281-.9375 4.496094-.167969 9.007813-.242188 13.542969-.242188 5.539062 0 11.042969.113282 16.519531.355469 91.398438 3.855469 174.550781 39.539063 238.675781 96.265625zm0 0" fill="#17aa3d"/><path d="m34.585938 384.585938c-18.753907-32.234376-30.679688-68.941407-33.78125-108.136719 60.917968-53.90625 139.023437-88.804688 225.039062-95.453125 55.859375 55.894531-104.53125 165.167968-191.257812 203.589844zm0 0" fill="#21bf4a"/><path d="m256 512c-25.859375 0-50.835938-3.835938-74.367188-10.972656-12.621093-3.824219-24.835937-8.597656-36.558593-14.242188-31.628907-15.234375-59.632813-36.769531-82.410157-62.972656 15.011719-75.894531 108.34375-105.148438 155.207032-105.148438 51.066406 0 105.859375-44.648437 38.128906-62.664062-65.640625-17.449219-74.386719-51.554688-13.542969-75.941406 2.445313-.097656 4.902344-.160156 7.355469-.191406.722656-.019532 1.433594-.019532 2.152344-.03125 1.339844-.007813 2.6875-.019532 4.035156-.019532 5.539062 0 11.042969.113282 16.519531.355469-22.644531 0-48.148437 11.503906-42.046875 35.347656 6.363282 24.847657 201.863282-11.230469 201.863282 78.640625 0 89.859375-275.078126 119.109375-176.335938 217.839844zm0 0" fill="#757177"/><g fill="#d7d3cd"><path d="m181.636719 501.027344c-.003907 0 0 0-.003907 0-12.621093-3.824219-24.835937-8.597656-36.558593-14.242188-.003907 0-.003907 0-.003907-.003906-3.304687-11.25-5.835937-23.164062-6.730468-35.140625-.414063-5.5625 4.617187-9.984375 10.09375-8.921875l11.550781 2.242188c3.539063.683593 6.296875 3.527343 6.78125 7.101562 1.027344 7.574219 2.8125 15.058594 4.960937 22.382812 1.703126 5.789063 3.742188 11.484376 5.9375 17.105469 1.242188 3.191407 2.5625 6.367188 3.972657 9.476563zm0 0"/><path d="m193.285156 367.058594 14.773438 9.933594c3.019531 2.03125 2.476562 6.621093-.929688 7.890624-2.875 1.074219-5.726562 2.199219-8.546875 3.398438-5.152343 2.1875-10.15625 4.695312-14.597656 8.140625-3.824219 2.980469-7.167969 6.550781-9.839844 10.597656-2.878906 4.335938-4.871093 9.074219-6.183593 14.011719-.597657 2.246094-2.867188 3.621094-5.152344 3.179688l-17.710938-3.429688c-2.589844-.5-4.15625-3.15625-3.351562-5.664062l.578125-1.800782c3.09375-9.570312 7.984375-18.421875 14.652343-25.964844 7.511719-8.496093 17.25-14.878906 27.742188-19.058593 1.519531-.609375 3.050781-1.191407 4.589844-1.742188 1.328125-.476562 2.804687-.277343 3.976562.507813zm0 0"/><path d="m273.242188 344.972656 9.457031 5.941406c2.953125 1.851563 2.625 6.28125-.582031 7.648438-15.335938 6.539062-31.257813 11.761719-47.0625 16.933594-1.328126-.183594-2.449219-.339844-3.777344-.523438l-13.65625-9.1875c-3.109375-2.089844-2.277344-6.886718 1.359375-7.800781.464843-.113281.925781-.230469 1.390625-.347656 12.234375-3.074219 24.5-6.050781 36.664062-9.425781 4.214844-1.167969 8.425782-2.386719 12.605469-3.699219 1.210937-.378907 2.527344-.214844 3.601563.460937zm0 0"/><path d="m325.082031 317.828125 7.203125 2.5625c1.90625.679687 2.578125 3.066406 1.265625 4.605469-8.550781 10.011718-20.085937 17.84375-31.472656 24-.003906.003906-.007813.003906-.011719.007812-.917968.496094-2.035156.453125-2.921875-.101562l-10.015625-6.289063c-2-1.253906-1.753906-4.261719.4375-5.152343.742188-.300782 1.484375-.609376 2.222656-.921876 10.730469-4.5 21.390626-10.007812 30.070313-17.855468.09375-.082032.183594-.167969.273437-.25.796876-.734375 1.929688-.96875 2.949219-.605469zm0 0"/><path d="m327.984375 250.398438-6.039063 4.378906c-7.347656-5.433594-16.324218-8.628906-25.078124-10.910156-12.207032-3.175782-24.753907-4.679688-37.21875-6.414063-6.136719-.855469-12.277344-1.753906-18.328126-3.101563-5.84375-1.296874-11.964843-2.90625-16.96875-6.324218-4.722656-3.226563-7.617187-8.160156-7.398437-13.96875.21875-5.644532 2.359375-11.128906 5.671875-15.675782 6.574219-9.003906 17.03125-14.46875 27.1875-18.515624.722656-.019532 1.433594-.019532 2.152344-.03125-7.0625 2.65625-13.84375 6.074218-19.789063 10.667968-4.210937 3.25-8.003906 7.210938-10.488281 11.957032-2.46875 4.679687-4.023438 10.792968-2.40625 15.984374 1.621094 5.203126 6.28125 8.246094 11.117188 10.148438 5.589843 2.191406 11.621093 3.207031 17.546874 4 5.871094.785156 11.785157 1.296875 17.6875 1.871094 17.640626 1.714844 35.839844 2.957031 52.246094 10.175781 3.574219 1.570313 6.980469 3.492187 10.105469 5.757813zm0 0"/><path d="m345.046875 274.671875v.011719l-6.144531 1.339844c-1.507813.328124-2.976563-.585938-3.414063-2.0625-1.167969-3.914063-4.960937-9.699219-7.125-12.808594-.84375-1.210938-.566406-2.875.628907-3.742188l1.964843-1.425781c1.1875-.859375 2.835938-.707031 3.839844.359375 2.628906 2.796875 4.902344 5.933594 6.71875 9.417969 1.472656 2.820312 2.652344 5.816406 3.53125 8.910156zm0 0"/><path d="m346.183594 299.675781c-.707032 3.707031-1.816406 7.214844-3.261719 10.539063-.609375 1.402344-2.207031 2.082031-3.644531 1.570312l-5.445313-1.933594c-1.667969-.59375-2.453125-2.539062-1.601562-4.09375 2.648437-4.835937 4.355469-10.160156 4.824219-15.894531.015624-.199219.027343-.398437.042968-.601562.089844-1.292969 1.011719-2.375 2.28125-2.652344l4.210938-.917969c1.777344-.386718 3.492187.929688 3.53125 2.746094.082031 3.792969-.230469 7.574219-.9375 11.238281zm0 0"/></g><path d="m147.933594 105.355469-13.660156 24.757812c-3.179688 5.765625-11.789063 4.601563-13.324219-1.804687l-2.078125-8.683594c-.46875-1.960938-.484375-4.007812-.042969-5.976562l2.816406-12.558594c.988281-4.421875-.351562-9.042969-3.554687-12.25l-6.03125-6.035156c-1.726563-1.726563-2.9375-3.898438-3.507813-6.269532l-16.203125-67.644531c2.6875.742187 5.140625 2.4375 6.8125 5.046875l48.234375 75.128906c3.152344 4.917969 3.359375 11.171875.539063 16.289063zm0 0" fill="#757177"/><path d="m62.539062 126.253906c-.796874 0-1.621093-.09375-2.46875-.292968-3.480468-.835938-7.136718.210937-9.664062 2.738281l-.816406.816406c-5.652344 5.652344-15.308594 2.988281-17.269532-4.753906l-18.296874-72.171875c3.550781-2.90625 8.691406-3.71875 13.226562-1.304688l14.972656 7.980469 29.207032 51.597656c4 7.074219-1.359376 15.390625-8.890626 15.390625zm0 0" fill="#757177"/><path d="m349.25 163.683594-9.492188 6.324218c-1.988281 1.324219-4.636718 1.070313-6.335937-.609374l-22.511719-22.234376c1.648438-.230468 3.375-.0625 5.015625.554688l32.890625 12.234375c1.613282.601563 1.867188 2.777344.433594 3.730469zm0 0" fill="#757177"/><path d="m428.011719 179.785156-10.035157 9.660156c-.972656.9375-2.582031.644532-3.160156-.578124l-5.933594-12.507813c-.371093-.777344-1.203124-1.226563-2.054687-1.113281l-10.363281 1.40625c-1.398438.1875-2.539063-1.105469-2.183594-2.46875l4.65625-17.679688c.117188-.449218.074219-.929687-.128906-1.351562l-4.472656-9.429688c1.386718.292969 2.726562.867188 3.90625 1.722656l28.984374 21.011719c3.730469 2.707031 4.109376 8.128907.785157 11.328125zm0 0" fill="#757177"/><path d="m427.382812 337.839844h8.132813v33.355468h-8.132813zm0 0" fill="#ab5816"/><path d="m450.457031 351.289062c36.832031-7.125-2.375-137.8125-19.007812-137.8125-16.632813 0-55.839844 130.6875-19.007813 137.8125zm0 0" fill="#2cce5a"/><path d="m422.796875 351.292969h-10.355469c-36.832031-7.128907 2.367188-137.816407 19.007813-137.816407-7.566407 0-25.410157 130.6875-8.652344 137.816407zm0 0" fill="#21bf4a"/><path d="m364.140625 381.984375h15.09375v41.6875h-15.09375zm0 0" fill="#ab5816"/><path d="m395.441406 398.792969c46.027344-8.90625-2.96875-172.222657-23.753906-172.222657s-69.78125 163.316407-23.753906 172.222657zm0 0" fill="#2cce5a"/><path d="m360.875 398.800781h-12.941406c-46.027344-8.910156 2.960937-172.230469 23.753906-172.230469-9.457031 0-31.753906 163.320313-10.8125 172.230469zm0 0" fill="#21bf4a"/><path d="m473.191406 65.394531c0 22.558594-18.289062 40.851563-40.851562 40.851563s-40.851563-18.292969-40.851563-40.851563c0-22.5625 18.289063-40.851562 40.851563-40.851562s40.851562 18.289062 40.851562 40.851562zm0 0" fill="#ffbb16"/></svg>