<svg height="512pt" viewBox="0 0 512 512" width="512pt" xmlns="http://www.w3.org/2000/svg"><path d="m512 256c0 29.851562-5.109375 58.503906-14.503906 85.148438-.332032.949218-.679688 1.902343-1.023438 2.84375-6.332031 17.300781-14.472656 33.738281-24.210937 49.054687-45.398438 71.503906-125.292969 118.953125-216.261719 118.953125-117.75 0-216.929688-79.507812-246.792969-187.757812-.011719 0-.011719-.011719-.011719-.011719-5.996093-21.722657-9.195312-44.605469-9.195312-68.230469 0-141.386719 114.613281-256 256-256s256 114.613281 256 256zm0 0" fill="#0084a6"/><path d="m512 256c0 29.851562-5.109375 58.503906-14.503906 85.148438-.332032.949218-.679688 1.902343-1.023438 2.84375-6.332031 17.300781-14.472656 33.738281-24.210937 49.054687-45.398438 71.503906-125.292969 118.953125-216.261719 118.953125-117.75 0-216.929688-79.507812-246.792969-187.757812-.011719 0-.011719-.011719-.011719-.011719-5.996093-21.722657-9.195312-44.605469-9.195312-68.230469zm0 0" fill="#69b8d4"/><path d="m277.746094 73.570312c0 8.988282-1.882813 17.535157-5.289063 25.265626-9.726562 22.195312-31.890625 37.691406-57.667969 37.691406-34.761718 0-62.945312-28.183594-62.945312-62.957032 0-34.761718 28.183594-62.945312 62.945312-62.945312 3 0 5.933594.210938 8.820313.617188h.007813c30.585937 4.296874 54.128906 30.5625 54.128906 62.328124zm0 0" fill="#bfbab2"/><path d="m277.746094 73.570312c0 8.988282-1.882813 17.535157-5.289063 25.265626-9.800781 11.503906-24.398437 18.789062-40.699219 18.789062-29.550781 0-53.507812-23.949219-53.507812-53.5 0-26.78125 19.675781-48.964844 45.359375-52.882812h.007813c30.585937 4.296874 54.128906 30.5625 54.128906 62.328124zm0 0" fill="#d7d3cd"/><path d="m512 256h-512v-36.199219c0-16.011719 6.363281-31.375 17.6875-42.699219l46.230469-46.226562c4.210937-4.210938 10.8125-4.839844 15.746093-1.507812l37.84375 25.632812c4.921876 3.332031 11.535157 2.707031 15.746094-1.503906l11.863282-11.871094c1.722656-1.722656 3.84375-2.839844 6.089843-3.332031l.011719-.011719c3.332031-.742188 6.9375-.09375 9.894531 2.007812l82.265625 58.605469c6.695313 4.777344 16.101563 1.839844 18.890625-5.902343l27.105469-75.304688c2.289062-6.34375 9.214844-9.707031 15.621094-7.574219l26.140625 8.710938c2.019531.679687 4.140625.804687 6.15625.441406 2.433593-.441406 4.734375-1.609375 6.550781-3.4375l27.617188-27.617187c2.089843-2.078126 4.710937-3.261719 7.410156-3.5625 4.085937-.449219 8.328125 1.117187 11.105468 4.617187l40.542969 51.042969c1.871094 2.363281 4.398438 3.835937 7.09375 4.421875l.019531.007812c3.960938.835938 8.277344-.25 11.402344-3.375l20.132813-20.132812c3.847656-3.847657 9.175781-4.484375 13.53125-2.695313v.007813c3.710937 1.515625 6.71875 4.808593 7.492187 9.382812zm0 0" fill="#2f373b"/><path d="m145.117188 141.625-54.589844 56.332031c-5.703125 5.886719-15.648438 1.457031-15.089844-6.71875l4.222656-61.871093 37.847656 25.632812c4.921876 3.332031 11.535157 2.707031 15.746094-1.503906zm0 0" fill="#757177"/><path d="m243.378906 198.894531-35.988281-17.078125c-2.785156-1.324218-5.832031-2.011718-8.917969-2.011718h-9.34375c-7.097656 0-13.703125-3.617188-17.523437-9.597657l-20.398438-31.914062.011719-.011719c3.332031-.742188 6.9375-.09375 9.894531 2.007812zm0 0" fill="#757177"/><path d="m293.328125 156.507812c4.140625 4.136719 3.621094 10.992188-1.09375 14.457032l-29.964844 22.027344 27.105469-75.304688c2.289062-6.34375 9.214844-9.707031 15.621094-7.574219l-13.839844 36.226563c-1.34375 3.519531-.492188 7.503906 2.171875 10.167968zm0 0" fill="#757177"/><path d="m378.871094 84.648438-2.191406 28.820312c-.550782 7.265625-7.355469 12.394531-14.492188 10.925781l-24.894531-5.128906c2.433593-.441406 4.734375-1.609375 6.550781-3.4375l27.617188-27.617187c2.089843-2.078126 4.710937-3.261719 7.410156-3.5625zm0 0" fill="#757177"/><path d="m482.699219 118.535156v.007813l-6.632813 17.402343c-4.117187 10.804688-16.042968 16.410157-26.988281 12.6875l-11.445313-3.894531c3.960938.835938 8.277344-.25 11.402344-3.375l20.132813-20.132812c3.847656-3.847657 9.175781-4.484375 13.53125-2.695313zm0 0" fill="#757177"/><path d="m179.601562 221.605469 20.84375-15.339844c3.796876-2.792969 8.949219-2.871094 12.832032-.195313l22.476562 15.503907c2.019532 1.390625.554688 4.539062-1.808594 3.894531l-22.164062-6.046875c-1.933594-.527344-3.972656-.546875-5.917969-.0625l-24.445312 6.113281c-2.3125.578125-3.738281-2.453125-1.816407-3.867187zm0 0" fill="#757177"/><path d="m512 256-14.503906 85.148438c-.332032.949218-.679688 1.902343-1.023438 2.84375-6.332031 17.300781-14.472656 33.738281-24.210937 49.054687-1.097657-.574219-2.140625-1.324219-3.09375-2.277344l-20.132813-20.132812c-3.125-3.125-7.441406-4.210938-11.402344-3.375l-.019531.007812c-2.695312.585938-5.222656 2.058594-7.09375 4.421875l-40.542969 51.042969c-2.777343 3.5-7.019531 5.066406-11.105468 4.617187-2.699219-.300781-5.320313-1.484374-7.410156-3.5625l-27.617188-27.617187c-1.816406-1.828125-4.117188-2.996094-6.550781-3.4375-2.015625-.363281-4.136719-.238281-6.15625.441406l-26.140625 8.710938c-6.40625 2.132812-13.332032-1.230469-15.621094-7.574219l-27.105469-75.304688c-2.789062-7.742187-12.195312-10.679687-18.890625-5.902343l-82.265625 58.605469c-2.957031 2.101562-6.5625 2.75-9.894531 2.007812l-.011719-.011719c-2.246093-.492187-4.367187-1.609375-6.089843-3.332031l-11.863282-11.871094c-4.210937-4.210937-10.824218-4.835937-15.746094-1.503906l-37.84375 25.632812c-4.933593 3.332032-11.535156 2.703126-15.746093-1.507812l-46.226563-46.226562c-3.25-3.246094-6.082031-6.820313-8.484375-10.65625-.011719 0-.011719-.011719-.011719-.011719-5.996093-21.722657-9.195312-44.605469-9.195312-68.230469zm0 0" fill="#757177"/><path d="m145.117188 370.375-54.589844-56.332031c-5.703125-5.886719-15.648438-1.457031-15.089844 6.71875l4.222656 61.871093 37.847656-25.632812c4.921876-3.332031 11.535157-2.707031 15.746094 1.503906zm0 0" fill="#99979b"/><path d="m243.378906 313.105469-35.988281 17.078125c-2.785156 1.324218-5.832031 2.011718-8.917969 2.011718h-9.34375c-7.097656 0-13.703125 3.617188-17.523437 9.597657l-20.398438 31.914062.011719.011719c3.332031.742188 6.9375.09375 9.894531-2.007812zm0 0" fill="#99979b"/><path d="m293.328125 355.492188c4.140625-4.136719 3.621094-10.992188-1.09375-14.457032l-29.964844-22.027344 27.105469 75.304688c2.289062 6.34375 9.214844 9.707031 15.621094 7.574219l-13.839844-36.226563c-1.34375-3.519531-.492188-7.503906 2.171875-10.167968zm0 0" fill="#99979b"/><path d="m378.871094 427.351562-2.191406-28.820312c-.550782-7.265625-7.355469-12.394531-14.492188-10.925781l-24.894531 5.128906c2.433593.441406 4.734375 1.609375 6.550781 3.4375l27.617188 27.617187c2.089843 2.078126 4.710937 3.261719 7.410156 3.5625zm0 0" fill="#99979b"/><path d="m478.554688 382.578125c-2.007813 3.542969-4.109376 7.03125-6.292969 10.46875-1.097657-.574219-2.140625-1.324219-3.09375-2.277344l-20.132813-20.132812c-3.125-3.125-7.441406-4.210938-11.402344-3.375l11.445313-3.898438c10.949219-3.71875 22.871094 1.890625 26.988281 12.683594zm0 0" fill="#99979b"/><path d="m179.601562 290.394531 20.84375 15.339844c3.796876 2.792969 8.949219 2.871094 12.832032.195313l22.476562-15.503907c2.019532-1.390625.554688-4.539062-1.808594-3.894531l-22.164062 6.046875c-1.933594.527344-3.972656.546875-5.917969.0625l-24.445312-6.113281c-2.3125-.578125-3.738281 2.453125-1.816407 3.867187zm0 0" fill="#99979b"/><g fill="#d7d3cd"><path d="m216.472656 375.59375c-44.398437 0-60.515625 5.285156-60.515625 16.121094 0 10.835937 39.894531-4.132813 39.894531 10.835937s-59.878906 1.761719-59.878906 16.730469c0 14.972656 39.613282-6.347656 41.386719 9.148438 1.773437 15.5-23.777344 6.679687-23.777344 15.5 0 8.816406 31.703125.011718 31.703125 8.816406 0 8.808594-23.777344 4.402344-23.777344 13.210937 0 8.804688 110.957032 7.042969 110.957032-5.285156s-32.582032 5.285156-36.105469-7.042969 44.03125-2.644531 44.03125-17.613281-44.910156-2.640625-44.910156-13.210937c0-10.566407 46.671875 1.761718 46.671875-10.566407s-53.714844-3.519531-53.714844-12.328125c0-8.804687 41.386719-1.761718 41.386719-14.96875 0-13.210937-53.351563-9.347656-53.351563-9.347656zm0 0"/><path d="m252.796875 483.859375c0-3.726563-15.574219-6.75-34.78125-6.75-19.210937 0-34.785156 3.023437-34.785156 6.75 0 3.730469 15.574219 6.753906 34.785156 6.753906 19.207031 0 34.78125-3.023437 34.78125-6.753906zm0 0"/><path d="m350.675781 307.097656c0-1.863281-7.789062-3.375-17.394531-3.375s-17.390625 1.511719-17.390625 3.375c0 1.867188 7.785156 3.378906 17.390625 3.378906s17.394531-1.511718 17.394531-3.378906zm0 0"/><path d="m452.492188 338.472656c0-1.863281-7.789063-3.375-17.394532-3.375-9.605468 0-17.390625 1.511719-17.390625 3.375 0 1.867188 7.785157 3.378906 17.390625 3.378906 9.605469 0 17.394532-1.511718 17.394532-3.378906zm0 0"/><path d="m92.832031 324.136719c0-1.867188-7.789062-3.378907-17.394531-3.378907s-17.390625 1.511719-17.390625 3.378907c0 1.863281 7.785156 3.375 17.390625 3.375s17.394531-1.511719 17.394531-3.375zm0 0"/><path d="m328.269531 297.726562c0-1.863281-7.789062-3.375-17.394531-3.375s-17.390625 1.511719-17.390625 3.375c0 1.867188 7.785156 3.378907 17.390625 3.378907s17.394531-1.511719 17.394531-3.378907zm0 0"/><path d="m389.609375 474.40625c-7 4.292969-14.230469 8.261719-21.660156 11.867188-.3125.011718-.625.011718-.9375.011718-19.207031 0-34.777344-3.019531-34.777344-6.75 0-3.730468 15.570313-6.75 34.777344-6.75 8.628906 0 16.527343.605469 22.597656 1.621094zm0 0"/><path d="m348.40625 55.105469 16.980469-5.835938c5.101562-1.753906 5.101562-8.96875 0-10.71875l-16.980469-5.835937c-1.652344-.570313-2.949219-1.867188-3.519531-3.519532l-5.835938-16.984374c-1.75-5.097657-8.964843-5.097657-10.71875 0l-5.835937 16.984374c-.566406 1.652344-1.863282 2.949219-3.515625 3.519532l-16.984375 5.835937c-5.101563 1.75-5.101563 8.964844 0 10.71875l16.984375 5.835938c1.652343.566406 2.949219 1.863281 3.515625 3.515625l5.835937 16.984375c1.753907 5.097656 8.96875 5.097656 10.71875 0l5.835938-16.984375c.570312-1.652344 1.867187-2.949219 3.519531-3.515625zm0 0"/><path d="m81.402344 93.34375 16.984375-5.835938c5.101562-1.753906 5.101562-8.964843 0-10.71875l-16.984375-5.835937c-1.652344-.566406-2.949219-1.863281-3.515625-3.515625l-5.835938-16.984375c-1.753906-5.101563-8.96875-5.101563-10.71875 0l-5.835937 16.984375c-.566406 1.648438-1.867188 2.949219-3.519532 3.515625l-16.980468 5.835937c-5.101563 1.753907-5.101563 8.964844 0 10.71875l16.980468 5.835938c1.652344.566406 2.953126 1.867188 3.519532 3.519531l5.835937 16.980469c1.753907 5.101562 8.964844 5.101562 10.71875 0l5.835938-16.980469c.566406-1.652343 1.863281-2.949219 3.515625-3.519531zm0 0"/></g><path d="m235.101562 49.683594c0 6.347656-5.144531 11.488281-11.488281 11.488281s-11.488281-5.140625-11.488281-11.488281c0-6.34375 5.144531-11.488282 11.488281-11.488282s11.488281 5.144532 11.488281 11.488282zm0 0" fill="#bfbab2"/><path d="m228.464844 101.003906c0 8.742188-7.089844 15.828125-15.832032 15.828125-8.742187 0-15.828124-7.085937-15.828124-15.828125 0-8.742187 7.085937-15.832031 15.828124-15.832031 8.742188 0 15.832032 7.089844 15.832032 15.832031zm0 0" fill="#bfbab2"/></svg>