<svg height="512pt" viewBox="0 0 512 512" width="512pt" xmlns="http://www.w3.org/2000/svg"><path d="m512 256c0 141.386719-114.613281 256-256 256s-256-114.613281-256-256c0-3.167969.0625-6.320312.175781-9.464844 4.976563-137 117.605469-246.535156 255.824219-246.535156s250.847656 109.535156 255.824219 246.535156c.113281 3.144532.175781 6.296875.175781 9.464844zm0 0" fill="#96d6d4"/><path d="m424.953125 168.953125c0 13.359375-1.550781 26.355469-4.484375 38.824219-17.542969 74.59375-84.515625 130.128906-164.46875 130.128906s-146.925781-55.535156-164.46875-130.128906c-2.933594-12.46875-4.484375-25.46875-4.484375-38.824219 0-93.3125 75.644531-168.953125 168.953125-168.953125s168.953125 75.640625 168.953125 168.953125zm0 0" fill="#bdefec"/><path d="m364.683594 186.332031c0 8.589844-1 16.953125-2.882813 24.972657-11.285156 47.984374-54.367187 83.707031-105.800781 83.707031-51.429688 0-94.511719-35.722657-105.796875-83.707031-1.886719-8.019532-2.882813-16.382813-2.882813-24.972657 0-60.023437 48.660157-108.683593 108.683594-108.683593 60.019532 0 108.679688 48.660156 108.679688 108.683593zm0 0" fill="#ffbb16"/><path d="m512 256c0 141.386719-114.613281 256-256 256s-256-114.613281-256-256c0-3.167969.0625-6.320312.175781-9.464844h511.648438c.113281 3.144532.175781 6.296875.175781 9.464844zm0 0" fill="#0084a6"/><path d="m283.949219 426.914062c4.085937 27.917969 99.183593 6.375 99.183593 28.839844s-67.457031 14.054688-65.140624 31.074219c.765624 5.589844 8.976562 9.351563 19.65625 11.878906-25.640626 8.621094-53.101563 13.292969-81.648438 13.292969-49.871094 0-96.414062-14.261719-135.761719-38.933594 20.164063-9.382812 75.890625-2.621094 75.890625-18.234375 0-19.058593-72.171875-.667969-72.171875-21.773437 0-21.097656 87.824219-9.539063 90.550781-28.609375 2.726563-19.058594-65.359374 4.085937-68.765624-15.652344-3.40625-19.75 72.851562-9.539063 72.851562-26.5625 0-17.019531-52.390625-2.515625-53.5-15.84375-1.132812-13.617187 52.140625-7.300781 46.007812-24.320313-6.125-17.023437-54.460937-1.871093-54.460937-19.574218 0-17.699219 63.988281-5.621094 63.988281-21.273438 0-15.660156-44.25-3.828125-44.25-17.441406 0-13.617188 53.792969-15.921875 79.621094-15.921875s64.722656-.652344 64.722656 14.332031c0 14.972656-39.511718 3.371094-39.511718 15.625 0 12.257813 59.925781 2.71875 59.925781 16.34375 0 13.613282-68.074219 0-68.074219 19.058594s86.464844 3.1875 86.464844 24.285156c0 21.105469-94.636719 7.03125-90.550782 30.183594 4.085938 23.144531 131.398438-1.816406 131.398438 26.101562 0 27.910157-120.507812 5.214844-116.425781 33.125zm0 0" fill="#ffdd17"/><path d="m298.929688 472.363281c0-4.792969-15.316407-8.679687-34.210938-8.679687s-34.210938 3.886718-34.210938 8.679687c0 4.796875 15.316407 8.683594 34.210938 8.683594s34.210938-3.886719 34.210938-8.683594zm0 0" fill="#0084a6"/><path d="m259.128906 342.613281c0-3.238281-10.355468-5.867187-23.132812-5.867187s-23.132813 2.628906-23.132813 5.867187c0 3.242188 10.355469 5.871094 23.132813 5.871094s23.132812-2.628906 23.132812-5.871094zm0 0" fill="#0084a6"/><path d="m152.917969 329c0-3.242188-10.355469-5.871094-23.132813-5.871094s-23.132812 2.628906-23.132812 5.871094c0 3.238281 10.355468 5.867188 23.132812 5.867188s23.132813-2.628907 23.132813-5.867188zm0 0" fill="#ffdd17"/><path d="m131.429688 410.15625c0-5.121094-15.085938-9.273438-33.691407-9.273438-18.609375 0-33.695312 4.152344-33.695312 9.273438s15.085937 9.273438 33.695312 9.273438c18.605469 0 33.691407-4.152344 33.691407-9.273438zm0 0" fill="#ffdd17"/><path d="m431 356.371094c0-5.121094-15.085938-9.273438-33.695312-9.273438-18.609376 0-33.695313 4.152344-33.695313 9.273438s15.085937 9.273437 33.695313 9.273437c18.609374 0 33.695312-4.152343 33.695312-9.273437zm0 0" fill="#ffdd17"/><g fill="#0084a6"><path d="m298.730469 257.503906c0-1.816406-7.683594-3.289062-17.164063-3.289062-9.480468 0-17.167968 1.472656-17.167968 3.289062s7.6875 3.289063 17.167968 3.289063c9.480469 0 17.164063-1.472657 17.164063-3.289063zm0 0"/><path d="m261.460938 270.328125c0-1.816406-7.6875-3.289063-17.167969-3.289063s-17.164063 1.472657-17.164063 3.289063 7.683594 3.289063 17.164063 3.289063 17.167969-1.472657 17.167969-3.289063zm0 0"/><path d="m331.609375 392.195312c0-3.242187-15.691406-5.867187-35.054687-5.867187-19.359376 0-35.054688 2.625-35.054688 5.867187 0 3.242188 15.695312 5.871094 35.054688 5.871094 19.363281 0 35.054687-2.628906 35.054687-5.871094zm0 0"/></g></svg>