<svg height="512pt" viewBox="0 0 512.00015 512" width="512pt" xmlns="http://www.w3.org/2000/svg"><path d="m512 256c0 48.722656-13.613281 94.269531-37.238281 133.046875-11.390625 18.671875-25.089844 35.765625-40.710938 50.898437-29.519531 28.566407-65.902343 50.113282-106.421875 61.898438-22.726562 6.613281-46.761718 10.15625-71.628906 10.15625-66.652344 0-127.363281-25.472656-172.898438-67.207031-9.246093-8.464844-17.859374-17.605469-25.769531-27.335938-5.203125-6.394531-10.101562-13.050781-14.691406-19.9375-26.945313-40.539062-42.640625-89.203125-42.640625-141.519531 0-141.386719 114.613281-256 256-256 49.707031 0 96.097656 14.167969 135.378906 38.671875 4.335938 2.707031 8.578125 5.539063 12.726563 8.484375 11.460937 8.148438 22.222656 17.210938 32.171875 27.09375 6.644531 6.59375 12.925781 13.542969 18.816406 20.824219 17.148438 21.183593 30.984375 45.160156 40.710938 71.136719 10.46875 27.941406 16.195312 58.191406 16.195312 89.789062zm0 0" fill="#b3b3b3"/><path d="m327.628906 202.175781v299.667969c-11.640625 3.386719-23.636718 5.964844-35.902344 7.667969-4.054687.578125-8.128906 1.046875-12.246093 1.421875-7.734375.710937-15.558594 1.066406-23.480469 1.066406-80.175781 0-151.738281-36.851562-198.667969-94.542969-5.203125-6.394531-10.101562-13.050781-14.691406-19.9375l65.265625-149.878906zm0 0" fill="#ccc"/><path d="m327.628906 202.175781v46.5625c0 8.394531-5.085937 15.953125-12.867187 19.113281l-34.265625 13.929688c-4.195313 1.703125-7.71875 4.746094-10.015625 8.652344l-42.125 71.617187c-5.082031 8.640625-15.640625 12.378907-25.03125 8.859375-9.476563-3.554687-20.136719.292969-25.160157 9.082032l-24.769531 43.355468c-2.949219 5.160156-7.984375 8.800782-13.8125 9.984375l-56.480469 11.460938c-9.246093-8.464844-17.859374-17.605469-25.769531-27.335938l175.847657-172.53125zm0 0" fill="#ab5816"/><path d="m436.277344 74.25c-2.238282 3.71875-5.652344 6.707031-9.855469 8.410156l-34.273437 13.929688c-4.1875 1.703125-7.710938 4.753906-10.007813 8.652344l-42.128906 71.617187c-5.078125 8.640625-15.644531 12.382813-25.027344 8.859375-2.371094-.886719-4.828125-1.316406-7.242187-1.316406-7.21875 0-14.15625 3.8125-17.917969 10.398437l-24.773438 43.351563c-2.949219 5.171875-7.984375 8.808594-13.816406 9.988281l-56.476563 11.464844c-9.246093-8.464844-17.855468-17.609375-25.765624-27.335938l175.84375-172.53125 46.542968-21.066406c4.335938 2.707031 8.578125 5.539063 12.726563 8.484375 11.460937 8.148438 22.222656 17.210938 32.171875 27.09375zm0 0" fill="#ab5816"/><path d="m308.15625 177.117188 2.796875 1.539062c21.363281 11.769531 23.097656 41.816406 3.226563 55.960938l-256.847657 182.839843c-36.976562-45.425781-58.667969-103.792969-57.269531-167.246093 3.074219-139.175782 117.917969-250.839844 257.125-250.20703175 54.738281.24609375 105.410156 17.67187475 146.917969 47.15234375l-99.777344 74.4375c-19.292969 14.390625-17.257813 43.910156 3.828125 55.523438zm0 0" fill="#17aa3d"/><path d="m382.542969 33.414062-95.296875 71.097657c-19.292969 14.390625-17.257813 43.910156 3.824218 55.523437l2.789063 1.535156c-5.902344-13.390624-2.65625-30.183593 10.46875-39.976562l99.777344-74.4375c-6.9375-4.925781-14.136719-9.511719-21.5625-13.742188zm0 0" fill="#0a9327"/><path d="m310.953125 178.65625-2.777344-1.527344c5.992188 13.617188 2.515625 30.730469-11.078125 40.40625l-253.921875 180.757813c4.429688 6.609375 9.148438 13.011719 14.15625 19.164062l256.847657-182.839843c19.871093-14.144532 18.136718-44.191407-3.226563-55.960938zm0 0" fill="#0a9327"/><path d="m234.730469 426.304688 5.628906 47.828124c1.070313 9.117188-7.886719 16.132813-16.480469 12.910157l-39.390625-14.769531c-8.398437-3.152344-10.683593-13.960938-4.269531-20.238282l33.761719-33.058594c7.277343-7.125 19.5625-2.789062 20.75 7.328126zm0 0" fill="#b3b3b3"/><path d="m479.675781 318.15625c-.984375 14.21875-2.9375 42.320312-4.917969 70.890625-11.386718 18.671875-25.085937 35.765625-40.707031 50.898437l-.011719-125.0625c0-9.09375-4.324218-17.644531-11.652343-23.035156l-21.335938-15.691406c-8.230469-6.050781-12.605469-16.035156-11.476562-26.1875l10.421875-93.882812c0-.011719.011718-.011719.011718-.011719l6.058594-.445313c16.574219-1.226562 30.699219 11.890625 30.699219 28.511719v49.210937c0 5.554688 1.617187 10.984376 4.652344 15.632813l33.671875 51.570313c3.40625 5.214843 5.019531 11.390624 4.585937 17.601562zm0 0" fill="#ccc"/><path d="m495.804688 166.210938-3.125 44.984374c-.742188 10.71875-9.65625 17.542969-18.890626 17.542969-4.652343 0-9.375-1.722656-13.1875-5.539062-3.519531-3.53125-5.507812-8.316407-5.507812-13.308594v-114.816406c17.148438 21.179687 30.984375 45.160156 40.710938 71.136719zm0 0" fill="#ccc"/><g fill="#21bf4a"><path d="m73.8125 330.261719h-20.878906v-5.226563c0-14.332031-13.894532-19.546875-14.035156-19.601562-2.710938-.984375-4.113282-3.984375-3.125-6.695313.984374-2.710937 3.984374-4.109375 6.695312-3.121093.78125.28125 17.625 6.617187 20.5 24.195312h.808594c2.875-17.578125 19.71875-23.914062 20.5-24.195312 2.710937-.988282 5.707031.410156 6.695312 3.121093.984375 2.707031-.40625 5.695313-3.105468 6.6875-.625.238281-14.054688 5.476563-14.054688 19.609375zm0 0"/><path d="m64.289062 330.261719c-.390624 0-.792968-.042969-1.191406-.136719-2.808594-.65625-4.550781-3.460938-3.902344-6.265625.066407-.289063 4.753907-21.726563-8.136718-34.617187-2.039063-2.039063-2.039063-5.347657 0-7.386719 2.039062-2.042969 5.351562-2.042969 7.390625 0 17.0625 17.0625 11.183593 43.261719 10.921875 44.371093-.5625 2.410157-2.710938 4.035157-5.082032 4.035157zm0 0"/><path d="m119.152344 186.316406h-20.878906v-5.222656c0-14.332031-13.898438-19.550781-14.039063-19.601562-2.710937-.984376-4.109375-3.984376-3.121094-6.695313.984375-2.710937 3.980469-4.109375 6.695313-3.125.777344.285156 17.625 6.617187 20.496094 24.195313h.8125c2.871093-17.574219 19.714843-23.910157 20.496093-24.195313 2.714844-.984375 5.710938.414063 6.695313 3.125.984375 2.703125-.402344 5.695313-3.101563 6.6875-.628906.238281-14.058593 5.476563-14.058593 19.609375v5.222656zm0 0"/><path d="m109.628906 186.320312c-.394531 0-.792968-.046874-1.195312-.140624-2.804688-.65625-4.550782-3.457032-3.898438-6.265626.066406-.289062 4.753906-21.726562-8.136718-34.613281-2.039063-2.042969-2.039063-5.347656 0-7.390625 2.039062-2.039062 5.347656-2.039062 7.386718 0 17.066406 17.0625 11.183594 43.265625 10.925782 44.371094-.5625 2.410156-2.710938 4.039062-5.082032 4.039062zm0 0"/><path d="m286.785156 75.628906h-20.878906v-5.226562c0-14.328125-13.894531-19.546875-14.035156-19.597656-2.714844-.988282-4.113282-3.984376-3.125-6.699219.984375-2.710938 3.984375-4.109375 6.695312-3.121094.78125.28125 17.625 6.617187 20.5 24.195313h.808594c2.875-17.578126 19.71875-23.914063 20.5-24.195313 2.710938-.988281 5.707031.410156 6.695312 3.121094.980469 2.707031-.40625 5.695312-3.105468 6.6875-.625.238281-14.054688 5.476562-14.054688 19.609375zm0 0"/><path d="m277.261719 75.628906c-.394531 0-.792969-.046875-1.191407-.136718-2.808593-.65625-4.550781-3.460938-3.902343-6.265626.066406-.292968 4.753906-21.726562-8.136719-34.617187-2.039062-2.039063-2.039062-5.347656 0-7.386719 2.039062-2.042968 5.351562-2.042968 7.386719 0 17.066406 17.0625 11.183593 43.261719 10.925781 44.371094-.5625 2.40625-2.710938 4.035156-5.082031 4.035156zm0 0"/><path d="m242.277344 206.386719h-20.878906v-5.226563c0-14.328125-13.894532-19.546875-14.039063-19.597656-2.710937-.988281-4.109375-3.984375-3.121094-6.695312.984375-2.710938 3.984375-4.109376 6.695313-3.125.78125.285156 17.625 6.617187 20.496094 24.195312h.8125c2.871093-17.578125 19.71875-23.910156 20.496093-24.195312 2.714844-.984376 5.710938.414062 6.699219 3.125.980469 2.703124-.40625 5.691406-3.105469 6.6875-.628906.234374-14.054687 5.472656-14.054687 19.605468zm0 0"/><path d="m232.753906 206.386719c-.394531 0-.792968-.042969-1.195312-.136719-2.804688-.65625-4.550782-3.460938-3.898438-6.265625.066406-.289063 4.753906-21.726563-8.136718-34.617187-2.039063-2.039063-2.039063-5.347657 0-7.386719 2.039062-2.039063 5.347656-2.039063 7.386718 0 17.066406 17.0625 11.183594 43.265625 10.925782 44.371093-.5625 2.410157-2.710938 4.035157-5.082032 4.035157zm0 0"/></g><path d="m387.726562 458.703125c-3.382812 0-6.125-2.742187-6.125-6.128906v-138.890625c0-3.382813 2.742188-6.128906 6.125-6.128906 3.386719 0 6.128907 2.746093 6.128907 6.128906v138.890625c0 3.386719-2.742188 6.128906-6.128907 6.128906zm0 0" fill="#ccc"/><path d="m311.023438 447.808594c-3.382813 0-6.128907-2.742188-6.128907-6.128906v-138.890626c0-3.382812 2.746094-6.125 6.128907-6.125 3.382812 0 6.128906 2.742188 6.128906 6.125v138.890626c0 3.386718-2.746094 6.128906-6.128906 6.128906zm0 0" fill="#b3b3b3"/><path d="m291.726562 391.304688v118.207031c-4.054687.578125-8.128906 1.046875-12.246093 1.421875v-119.628906c0-3.386719 2.734375-6.132813 6.121093-6.132813 1.691407 0 3.230469.6875 4.335938 1.796875 1.109375 1.105469 1.789062 2.640625 1.789062 4.335938zm0 0" fill="#b3b3b3"/></svg>