<svg height="512pt" viewBox="0 0 512 512" width="512pt" xmlns="http://www.w3.org/2000/svg"><path d="m512 256c0 7.117188-.292969 14.167969-.867188 21.136719-10.742187 131.503906-120.863281 234.863281-255.132812 234.863281s-244.390625-103.359375-255.132812-234.863281c-.574219-6.96875-.867188-14.019531-.867188-21.136719 0-141.386719 114.613281-256 256-256s256 114.613281 256 256zm0 0" fill="#ffbb16"/><path d="m478.160156 256c0 3.234375-.132812 6.441406-.394531 9.609375-4.882813 59.789063-54.949219 106.785156-116 106.785156-61.046875 0-111.117187-46.996093-116-106.785156-.261719-3.167969-.394531-6.375-.394531-9.609375 0-64.28125 52.113281-116.394531 116.394531-116.394531 64.285156 0 116.394531 52.113281 116.394531 116.394531zm0 0" fill="#ff931f"/><path d="m433.226562 256c0 1.988281-.082031 3.953125-.242187 5.902344-3 36.707031-33.738281 65.558594-71.21875 65.558594-37.476563 0-68.21875-28.851563-71.214844-65.558594-.164062-1.949219-.242187-3.914063-.242187-5.902344 0-39.464844 31.992187-71.460938 71.457031-71.460938 39.46875 0 71.460937 31.996094 71.460937 71.460938zm0 0" fill="#f73e3e"/><g fill="#2f373b"><path d="m450.363281 100.65625c0-17.890625-52.660156-20.988281-117.621093-20.988281-25.421876 0-48.960938.472656-68.199219 2.125 1.949219-2.339844 2.980469-4.777344 2.980469-7.277344 0-17.890625-52.660157-20.988281-117.617188-20.988281-64.960938 0-117.621094 3.097656-117.621094 20.988281 0 7.261719 8.679688 13.964844 23.332032 19.367187 4.011718 1.480469 6.640624 5.355469 6.640624 9.632813 0 30.691406 44.601563 46.789063 88.035157 57.164063-.378907-.003907-.757813-.011719-1.136719-.011719-32.632812 0-59.085938 8.527343-59.085938 19.050781 0 5.171875 6.40625 9.859375 16.792969 13.292969.226563 3.363281 1.34375 6.066406 2.53125 8.042969 8.769531 14.601562 37.589844 19.257812 74.351563 23.832031 11.082031 1.378906 25.375 3.15625 32.492187 5.285156v57.296875h33.941407v-70.164062c5.292968-13.949219 17.164062-22.785157 35.890624-26.808594 49.878907-10.003906 123.214844-25.199219 124.117188-64.179688l.335938-1.359375c24.429687-5.9375 39.839843-14.625 39.839843-24.300781zm-200.179687 83.515625v-5.664063c5.695312-8.015624 12.554687-20.371093 12.945312-33.734374 4.03125 1.777343 9.785156 4.378906 11.339844 6.121093-.15625.230469-.421875.558594-.851562.988281l.011718.011719c-6.730468 7.398438-13.359375 16.535157-18.535156 28.28125-1.730469 1.289063-3.375 2.617188-4.910156 3.996094zm32.414062-41.25c-3.527344-3.597656-9.347656-6.164063-15.773437-8.984375-2.457031-1.078125-5.363281-2.355469-8.082031-3.746094-2.246094-1.148437-1.046876-4.574218 1.425781-4.042968 9.1875 1.988281 19.472656 3.605468 30.566406 4.773437 1.882813.199219 2.621094 2.546875 1.191406 3.78125-.421875.363281-.847656.730469-1.28125 1.105469-2.511719 2.160156-5.234375 4.519531-8.046875 7.113281zm-65.660156-36.574219c-3.464844 2.070313-7.832031 3.992188-11.304688 5.515625-6.425781 2.824219-12.25 5.386719-15.773437 8.984375-2.816406-2.59375-5.539063-4.949218-8.046875-7.113281-.03125-.027344-.066406-.054687-.097656-.082031-3.125-2.695313-1.441406-7.808594 2.671875-8.152344 8.609375-.726562 16.804687-1.71875 24.449219-2.941406 3.207031-.515625 6.324218 1.003906 8.070312 3.742187zm-18.953125 22.472656c1.679687-1.875 8.21875-4.75 12.234375-6.511718 5.382812-2.363282 11.101562-4.882813 15.609375-8.136719 3.347656 2.003906 7.414063 3.898437 12.109375 5.65625l.328125 2.777344c.183594 7.667969 5.96875 12.675781 13.128906 16.621093 2.078125 12.699219-5.527343 25.859376-11.222656 33.625h-8.769531c-.613282-1.011718-1.261719-2.003906-1.972656-2.972656-.3125-.527344-.6875-1.023437-1.152344-1.488281-2.984375-3.726563-6.6875-7.136719-10.914063-10.292969-5.175781-11.742187-11.800781-20.882812-18.535156-28.277344l.011719-.011718c-.429688-.425782-.695313-.757813-.855469-.988282zm100.109375 15.625c2.109375-1.816406 4.152344-3.582031 6.066406-5.339843 4.484375-4.113281 10.34375-6.398438 16.425782-6.226563 3.996093.113282 8.054687.171875 12.160156.171875h.046875c3.566406 0 6.925781 1.78125 8.816406 4.804688.738281 1.1875 1.152344 2.230469 1.113281 3.027343-.03125.6875-1.070312 1.410157-1.792968 1.835938-8.285157 3.59375-17.855469 7.03125-26.929688 10.289062-13.132812 4.71875-26.972656 9.6875-39.289062 15.617188 7.457031-10.433594 16.023437-17.835938 23.382812-24.179688zm55.34375-7.984374c-.394531-1.257813-.953125-2.535157-1.6875-3.832032 2.554688-.113281 5.082031-.25 7.578125-.40625-1.585937 1.429688-3.578125 2.84375-5.890625 4.238282zm-203.4375-29.546876c5.328125-.003906 10.433594 2.140626 14.09375 6.015626 2.96875 3.144531 6.519531 6.210937 10.269531 9.445312 7.359375 6.339844 15.925781 13.742188 23.382813 24.175781-12.316406-5.925781-26.15625-10.898437-39.289063-15.613281-9.074219-3.257812-18.644531-6.699219-26.925781-10.292969-.722656-.421875-1.765625-1.148437-1.796875-1.832031-.042969-.914062.5-2.144531 1.445313-3.539062 3.644531-5.363282 9.835937-8.40625 16.316406-8.367188.800781.003906 1.605468.007812 2.410156.007812zm-40.652344-1.980468c4.6875.476562 9.519532.871094 14.46875 1.179687-2.375 2.859375-3.964844 5.605469-4.796875 8.273438-5.082031-3.0625-8.625-6.214844-9.671875-9.453125zm-35.683594-1.417969c0-2.207031 2.027344-3.855469 4.1875-3.394531 5.707032 1.21875 11.835938 2.300781 18.3125 3.21875l2.09375 4.375c4.261719 15.25 28.425782 23.929687 56.347657 33.957031 14.441406 5.1875 29.808593 10.714844 42.496093 17.269531-2.054687-.417968-4.222656-.851562-6.535156-1.316406-40.855468-8.1875-116.902344-23.425781-116.902344-54.109375zm55.332032 98.785156c-2.507813-1.082031-1.53125-4.839843 1.1875-4.542969 5.953125.652344 12.332031 1.007813 18.972656 1.007813.589844 0 1.179688-.003906 1.765625-.007813 4.667969-.046874 8.207031 4.019532 7.730469 8.664063-.085938.828125-.105469 1.640625-.054688 2.445313-11.132812-1.863282-21.953125-4.269532-29.601562-7.566407zm56.15625 11.265625c-3.867188-.480468-8.0625-1.003906-12.402344-1.589844-1.738281-.851562-2.675781-1.753906-2.769531-2.683593-.3125-3.109375 3.785156-8.425781 8.527343-13.046875 17.761719-3.285156 29.734376-9.453125 29.734376-16.527344 0-1.070312-.285157-2.113281-.808594-3.132812 6.683594 4.972656 8.378906 10.425781 8.808594 15.335937v26.449219c-7.628907-1.886719-18.074219-3.1875-31.089844-4.804688zm96.738281-33.867187c-2.3125.460937-4.480469.898437-6.535156 1.316406 12.6875-6.558594 28.054687-12.082031 42.5-17.269531 24.0625-8.640625 45.324219-16.285156 53.46875-27.996094 2.167969-3.113281 5.652343-5.046875 9.417969-5.511719.085937-.007812.171874-.019531.257812-.03125 8.425781-1.042969 12.820312 9.683594 6.15625 14.9375-22.878906 18.042969-74.226562 28.332031-105.265625 34.554688zm0 0"/><path d="m511.132812 277.136719c-10.742187 131.503906-120.863281 234.863281-255.132812 234.863281s-244.390625-103.359375-255.132812-234.863281zm0 0"/><path d="m117.105469 276.507812-5.90625 4.242188c-.390625.28125-.859375.429688-1.34375.429688h-37.433594c-.484375 0-.953125-.152344-1.34375-.429688l-5.90625-4.242188c-1.972656-1.417968-.6875-4.53125 1.714844-4.140624l1.757812.289062c1.96875.320312 3.386719-1.847656 2.296875-3.523438l-4.550781-7.019531c-1.320313-2.035156 1-4.464843 3.09375-3.238281l4.707031 2.761719c1.792969 1.050781 3.953125-.628907 3.375-2.625l-1.914062-6.589844c-.714844-2.46875 2.539062-4.074219 4.0625-2.003906l3.703125 5.035156c1.175781 1.597656 3.683593 1.0625 4.101562-.875l1.371094-6.371094c.523437-2.421875 3.976563-2.417969 4.5 0l1.367187 6.367188c.417969 1.941406 2.929688 2.476562 4.101563.878906l3.703125-5.035156c1.523438-2.070313 4.777344-.464844 4.0625 2.003906l-1.914062 6.589844c-.578126 2 1.578124 3.675781 3.375 2.625l4.707031-2.757813c2.09375-1.226562 4.414062 1.199219 3.09375 3.234375l-4.554688 7.019531c-1.085937 1.675782.332031 3.84375 2.300781 3.523438l1.757813-.289062c2.402344-.390626 3.6875 2.722656 1.714844 4.140624zm0 0"/><path d="m286.054688 281.730469-5.90625 4.242187c-.390626.28125-.859376.433594-1.339844.433594h-37.433594c-.484375 0-.953125-.152344-1.34375-.433594l-5.90625-4.242187c-1.972656-1.417969-.6875-4.53125 1.710938-4.136719l1.761718.285156c1.96875.324219 3.386719-1.847656 2.296875-3.519531l-4.550781-7.019531c-1.320312-2.035156 1-4.464844 3.089844-3.238282l4.710937 2.761719c1.792969 1.050781 3.953125-.628906 3.371094-2.625l-1.910156-6.589843c-.71875-2.472657 2.539062-4.078126 4.0625-2.003907l3.703125 5.035157c1.171875 1.597656 3.683594 1.0625 4.101562-.878907l1.371094-6.367187c.523438-2.421875 3.976562-2.421875 4.496094 0l1.371094 6.367187c.417968 1.9375 2.929687 2.476563 4.101562.878907l3.703125-5.035157c1.519531-2.070312 4.777344-.464843 4.0625 2.003907l-1.914063 6.589843c-.578124 1.996094 1.578126 3.675781 3.375 2.625l4.707032-2.761719c2.09375-1.226562 4.414062 1.203126 3.09375 3.238282l-4.554688 7.019531c-1.085937 1.675781.332032 3.84375 2.300782 3.523437l1.757812-.289062c2.398438-.394531 3.6875 2.71875 1.710938 4.136719zm0 0"/></g></svg>