<svg height="512pt" viewBox="0 0 512 512" width="512pt" xmlns="http://www.w3.org/2000/svg"><path d="m512 256c0 3.699219-.082031 7.378906-.242188 11.035156-.070312 1.796875-.15625 3.582032-.269531 5.371094-.417969 6.425781-1.054687 12.777344-1.933593 19.058594-.554688 4.054687-1.210938 8.066406-1.964844 12.058594-1.671875 8.910156-3.804688 17.636718-6.363282 26.195312-13.582031 45.234375-39.328124 85.199219-73.457031 116.097656-15.265625 13.824219-32.203125 25.820313-50.46875 35.671875-14.492187 7.816407-29.832031 14.273438-45.839843 19.207031-23.851563 7.355469-49.183594 11.304688-75.460938 11.304688-102.683594 0-191.238281-60.449219-232.039062-147.707031-13.1875-28.210938-21.378907-59.214844-23.4375-91.886719-.347657-5.425781-.523438-10.898438-.523438-16.40625 0-141.386719 114.613281-256 256-256 22.808594 0 44.921875 2.976562 65.953125 8.578125 18.683594 4.964844 36.507813 11.984375 53.238281 20.804687 70.414063 37.105469 121.425782 106.078126 133.871094 187.726563 1.933594 12.683594 2.9375 25.671875 2.9375 38.890625zm0 0" fill="#2f373b"/><path d="m89.511719 74.457031 16.980469-5.835937c5.101562-1.75 5.101562-8.964844 0-10.71875l-16.980469-5.835938c-1.652344-.566406-2.949219-1.863281-3.519531-3.515625l-5.832032-16.984375c-1.753906-5.101562-8.96875-5.101562-10.71875 0l-5.839844 16.984375c-.566406 1.648438-1.863281 2.949219-3.515624 3.515625l-16.984376 5.835938c-5.101562 1.753906-5.101562 8.96875 0 10.71875l16.984376 5.835937c1.652343.566407 2.949218 1.867188 3.515624 3.519531l5.835938 16.980469c1.753906 5.101563 8.96875 5.101563 10.71875 0l5.835938-16.980469c.570312-1.652343 1.867187-2.953124 3.519531-3.519531zm0 0" fill="#d7d3cd"/><path d="m55.9375 186.0625 13.625-4.683594c4.09375-1.40625 4.09375-7.195312 0-8.601562l-13.625-4.683594c-1.328125-.453125-2.367188-1.496094-2.824219-2.820312l-4.683593-13.628907c-1.40625-4.09375-7.195313-4.09375-8.601563 0l-4.683594 13.628907c-.453125 1.324218-1.496093 2.367187-2.820312 2.820312l-13.628907 4.683594c-4.09375 1.40625-4.09375 7.195312 0 8.601562l13.628907 4.683594c1.324219.457031 2.367187 1.496094 2.820312 2.824219l4.683594 13.625c1.40625 4.09375 7.195313 4.09375 8.601563 0l4.683593-13.625c.457031-1.328125 1.5-2.367188 2.824219-2.824219zm0 0" fill="#d7d3cd"/><path d="m512 256c0 5.515625-.175781 10.980469-.511719 16.40625-.417969 6.425781-1.054687 12.777344-1.933593 19.058594h-132.304688s-242.039062-35.738282-261.445312-97.019532c-19.402344-61.273437 137.351562-35.734374 77.617187-89.871093-59.738281-54.117188 80.632813-95.984375 128.53125-95.996094 18.683594 4.964844 36.507813 11.984375 53.238281 20.804687 70.414063 37.105469 121.425782 106.078126 133.871094 187.726563 1.933594 12.683594 2.9375 25.671875 2.9375 38.890625zm0 0" fill="#3e4649"/><path d="m511.488281 272.40625c-.679687 10.5625-1.984375 20.949219-3.898437 31.117188-43.726563 15.128906-174.714844-3.40625-174.714844-3.40625l-113.246094-46.769532c77.613282-6.8125 230.136719-42.664062 291.859375 19.058594zm0 0" fill="#e6e6e6"/><path d="m511.488281 272.40625c-1.265625 19.800781-4.765625 38.984375-10.261719 57.3125-13.582031 45.234375-39.328124 85.199219-73.457031 116.097656-27.375 24.785156-60.121093 43.730469-96.308593 54.878906-23.851563 7.355469-49.183594 11.304688-75.460938 11.304688-102.683594 0-191.238281-60.449219-232.039062-147.707031-13.1875-28.210938-21.378907-59.214844-23.4375-91.886719zm0 0" fill="#fff"/><path d="m501.226562 329.71875c-13.582031 45.234375-39.328124 85.199219-73.457031 116.097656-27.375 24.785156-60.121093 43.730469-96.308593 54.878906l-79.046876-141.847656c56.886719 31.597656 173.289063-46.035156 248.8125-29.128906zm0 0" fill="#e6e6e6"/><path d="m427.769531 445.816406c-45.421875 41.125-105.660156 66.183594-171.769531 66.183594-102.683594 0-191.238281-60.449219-232.039062-147.707031 39.078124-26.175781 158.90625-61.933594 290.992187 29.300781 35.042969 24.203125 67.960937 48.242188 112.816406 52.222656zm0 0" fill="#f2f2f2"/><path d="m.523438 272.40625c78.855468-9.535156 123.792968-46.296875 171.449218-36.765625 47.660156 9.53125 141.613282 36.765625 201.527344 36.765625s-70.808594 36.761719-70.808594 36.761719" fill="#fff"/><path d="m509.0625 217.109375c-89.945312-50-355.359375 10.980469-360.238281-40.019531-5.453125-57.011719 296.84375-10.898438 283.230469-57.199219-13.613282-46.289063-187.914063 35.414063-187.914063-21.785156 0-47.636719 79.359375-60.3125 131.050781-68.722657 7.261719 3.824219 14.324219 7.992188 21.160156 12.484376 52.527344 34.492187 91.585938 87.792968 107.625 150.320312 2.097657 8.152344 3.800782 16.46875 5.085938 24.921875zm0 0" fill="#21bf4a"/><path d="m503.976562 192.1875c-40.167968-12.507812-89.421874-7.949219-130.8125-7.949219-48.003906 0-59.234374-20.429687 6.125-27.578125 65.355469-7.144531 73.527344-20.425781 66.378907-50.039062-7.144531-29.613282-129.703125-27.574219-129.703125-41.867188 0-12.152344 43.5-20.617187 80.386718-22.886718 40.949219 26.886718 73.707032 65.203124 93.757813 110.40625 2.277344 5.152343 4.398437 10.375 6.34375 15.695312 2.894531 7.898438 5.410156 15.976562 7.523437 24.21875zm0 0" fill="#17aa3d"/><path d="m310.863281 170.449219c0-6.488281-25.832031-11.746094-57.699219-11.746094-31.867187 0-57.703124 5.257813-57.703124 11.746094 0 6.484375 25.835937 11.746093 57.703124 11.746093 31.867188 0 57.699219-5.261718 57.699219-11.746093zm0 0" fill="#17aa3d"/><path d="m496.453125 167.96875c-4.691406 1.230469-10.628906 1.972656-17.085937 1.972656-15.222657 0-27.574219-4.117187-27.574219-9.195312s12.351562-9.195313 27.574219-9.195313c3.816406 0 7.441406.261719 10.742187.722657 2.277344 5.152343 4.398437 10.375 6.34375 15.695312zm0 0" fill="#3e4649"/><path d="m511.757812 267.035156c-.070312 1.796875-.15625 3.582032-.269531 5.371094-.417969 6.425781-1.054687 12.777344-1.933593 19.058594-.554688 4.054687-1.210938 8.066406-1.964844 12.058594-1.671875 8.910156-3.804688 17.636718-6.363282 26.195312-13.582031 45.234375-39.328124 85.199219-73.457031 116.097656-15.265625 13.824219-32.203125 25.820313-50.46875 35.671875-1.054687-19.457031-7.363281-43.039062-29.714843-54.136719l-38.765626-132.140624c20.417969-42.671876 106.4375-67.289063 202.9375-28.175782zm0 0" fill="#bfbab2"/><path d="m444.804688 290.289062c0 14.042969-11.382813 25.429688-25.425782 25.429688-14.046875 0-25.429687-11.386719-25.429687-25.429688 0-14.042968 11.382812-25.429687 25.429687-25.429687 14.042969 0 25.425782 11.386719 25.425782 25.429687zm0 0" fill="#d7d3cd"/><path d="m432.09375 292.101562c0 8.027344-6.503906 14.53125-14.53125 14.53125-8.023438 0-14.527344-6.503906-14.527344-14.53125 0-8.023437 6.503906-14.527343 14.527344-14.527343 8.027344 0 14.53125 6.503906 14.53125 14.527343zm0 0" fill="#2f373b"/><path d="m301.566406 290.289062c0 14.042969-11.382812 25.429688-25.425781 25.429688-14.046875 0-25.429687-11.386719-25.429687-25.429688 0-14.042968 11.382812-25.429687 25.429687-25.429687 14.042969 0 25.425781 11.386719 25.425781 25.429687zm0 0" fill="#bfbab2"/><path d="m292.480469 292.101562c0 8.027344-6.503907 14.53125-14.527344 14.53125s-14.527344-6.503906-14.527344-14.53125c0-8.023437 6.503907-14.527343 14.527344-14.527343s14.527344 6.503906 14.527344 14.527343zm0 0" fill="#2f373b"/><path d="m359.878906 446.921875c-8.195312.535156-16.390625.535156-24.585937 0-44.6875-2.914063-77.570313-55.441406-69.625-112.226563.429687-3.042968.925781-6.085937 1.492187-9.128906 4.078125-21.898437 17.769532-38.757812 34.9375-42.902344 30.328125-7.320312 60.652344-7.320312 90.976563 0 17.167969 4.144532 30.859375 21.003907 34.941406 42.902344.566406 3.042969 1.0625 6.085938 1.488281 9.128906 7.945313 56.785157-24.9375 109.3125-69.625 112.226563zm0 0" fill="#d7d3cd"/><path d="m376.835938 398.101562c0-16.152343-13.097657-46.160156-29.25-46.160156-16.15625 0-29.25 30.003906-29.25 46.160156s13.09375 29.25 29.25 29.25 29.25-13.09375 29.25-29.25zm0 0" fill="#bfbab2"/><path d="m347.585938 277.167969c-15.164063 0-30.324219 1.832031-45.488282 5.492187-17.167968 4.144532-30.863281 21-34.9375 42.90625-.566406 3.042969-1.066406 6.085938-1.492187 9.128906-7.945313 56.78125 24.9375 109.308594 69.625 112.226563 3.761719.242187 7.523437.378906 11.289062.394531-2.34375-.027344-4.691406-.164062-7.035156-.394531-29.21875-2.917969-50.722656-55.441406-45.527344-112.226563.28125-3.042968.605469-6.085937.976563-9.128906 2.667968-21.90625 11.617187-38.761718 22.847656-42.90625 9.914062-3.660156 19.828125-5.492187 29.742188-5.492187zm0 0" fill="#bfbab2"/><path d="m368.007812 394.4375c0 7.402344-9.144531 17.65625-20.421874 17.65625-11.277344 0-20.421876-10.253906-20.421876-17.65625s9.144532-9.148438 20.421876-9.148438c11.277343 0 20.421874 1.746094 20.421874 9.148438zm0 0" fill="#2f373b"/><path d="m363.328125 393.6875c0 3.011719-2.4375 5.449219-5.449219 5.449219-3.007812 0-5.449218-2.4375-5.449218-5.449219 0-3.007812 2.441406-5.449219 5.449218-5.449219 3.011719 0 5.449219 2.441407 5.449219 5.449219zm0 0" fill="#e6e6e6"/><path d="m395.71875 387.855469c-8.011719 0-14.527344-6.519531-14.527344-14.53125 0-6.558594 4.417969-12.328125 10.746094-14.03125 1.238281-.332031 2.511719-.5 3.785156-.5 8.011719 0 14.53125 6.519531 14.53125 14.53125 0 1.273437-.171875 2.542969-.503906 3.78125-1.703125 6.328125-7.472656 10.75-14.03125 10.75zm0 0" fill="#bfbab2"/><path d="m299.449219 387.855469c-8.011719 0-14.527344-6.519531-14.527344-14.53125 0-6.558594 4.417969-12.328125 10.746094-14.03125 1.238281-.332031 2.511719-.5 3.785156-.5 8.011719 0 14.53125 6.519531 14.53125 14.53125 0 1.273437-.171875 2.542969-.503906 3.78125-1.703125 6.328125-7.46875 10.75-14.03125 10.75zm0 0" fill="#bfbab2"/><path d="m403.589844 370.296875c0 .707031-.097656 1.398437-.273438 2.050781-.898437 3.355469-3.957031 5.820313-7.597656 5.820313-4.347656 0-7.871094-3.523438-7.871094-7.871094 0-3.640625 2.464844-6.699219 5.820313-7.601563.652343-.175781 1.34375-.269531 2.050781-.269531 4.347656 0 7.871094 3.523438 7.871094 7.871094zm0 0" fill="#0f0f0e"/><path d="m307.320312 370.296875c0 4.347656-3.523437 7.871094-7.871093 7.871094-4.34375 0-7.871094-3.523438-7.871094-7.871094s3.527344-7.871094 7.871094-7.871094c4.347656 0 7.871093 3.523438 7.871093 7.871094zm0 0" fill="#0f0f0e"/><path d="m403.589844 370.296875c0 .707031-.097656 1.398437-.273438 2.050781-.925781.429688-1.964844.671875-3.054687.671875-4.015625 0-7.265625-3.25-7.265625-7.265625 0-1.089844.242187-2.128906.671875-3.054687.652343-.175781 1.34375-.273438 2.050781-.273438 4.347656 0 7.871094 3.523438 7.871094 7.871094zm0 0" fill="#efefef"/><path d="m307.320312 370.296875c0 .707031-.09375 1.398437-.269531 2.050781-.929687.429688-1.96875.671875-3.058593.671875-4.015626 0-7.265626-3.25-7.265626-7.265625 0-1.089844.242188-2.128906.671876-3.054687.65625-.175781 1.34375-.273438 2.050781-.273438 4.347656 0 7.871093 3.523438 7.871093 7.871094zm0 0" fill="#efefef"/><g fill="#fff"><path d="m68.484375 377.933594c0 3.761718-3.046875 6.808594-6.808594 6.808594-3.757812 0-6.808593-3.046876-6.808593-6.808594 0-3.757813 3.050781-6.808594 6.808593-6.808594 3.761719 0 6.808594 3.050781 6.808594 6.808594zm0 0"/><path d="m75.972656 399.039062c0 3.761719-3.046875 6.808594-6.808594 6.808594-3.757812 0-6.808593-3.046875-6.808593-6.808594 0-3.757812 3.050781-6.808593 6.808593-6.808593 3.761719 0 6.808594 3.050781 6.808594 6.808593zm0 0"/><path d="m92.5625 383.167969c0 3.761719-3.046875 6.808593-6.808594 6.808593-3.761718 0-6.808594-3.046874-6.808594-6.808593s3.046876-6.808594 6.808594-6.808594c3.761719 0 6.808594 3.046875 6.808594 6.808594zm0 0"/></g></svg>