<svg height="512pt" viewBox="0 0 512 512" width="512pt" xmlns="http://www.w3.org/2000/svg"><path d="m512 256c0 38.964844-8.703125 75.878906-24.273438 108.929688-3.164062 6.730468-6.613281 13.292968-10.332031 19.675781-2.039062 3.511719-4.171875 6.96875-6.375 10.367187-7.972656 12.339844-17 23.949219-26.925781 34.6875-13.929688 15.078125-29.644531 28.476563-46.8125 39.863282-1.777344 1.171874-3.5625 2.332031-5.359375 3.460937-5.371094 3.363281-10.867187 6.539063-16.488281 9.507813-7.460938 3.949218-15.140625 7.523437-23.011719 10.730468-1.324219.542969-2.664063 1.066406-4 1.589844-28.671875 11.097656-59.832031 17.1875-92.421875 17.1875-141.386719 0-256-114.613281-256-256s114.613281-256 256-256 256 114.613281 256 256zm0 0" fill="#f2f2f2"/><path d="m122.304688 402.140625c-1.304688-3.824219-5.453126-5.863281-9.277344-4.558594-5.789063 1.976563-11.820313 3.804688-17.929688 5.457031-3.898437 1.042969-6.207031 5.054688-5.164062 8.953126.878906 3.269531 3.835937 5.421874 7.0625 5.421874.628906 0 1.265625-.082031 1.902344-.25 6.425781-1.734374 12.769531-3.65625 18.851562-5.734374 3.824219-1.308594 5.863281-5.464844 4.554688-9.289063zm68.066406-40.910156c-2.65625-3.039063-7.285156-3.363281-10.324219-.699219-4.503906 3.929688-9.382813 7.710938-14.515625 11.253906-3.320312 2.289063-4.15625 6.84375-1.867188 10.167969 1.417969 2.058594 3.707032 3.164063 6.027344 3.164063 1.429688 0 2.882813-.417969 4.148438-1.292969 5.578125-3.859375 10.910156-7.984375 15.828125-12.269531 3.042969-2.664063 3.355469-7.28125.703125-10.324219zm39.703125-68.1875c-3.863281-1.203125-7.960938.960937-9.152344 4.816406l-.394531 1.261719c-1.695313 5.425781-3.730469 10.742187-6.050782 15.8125-1.683593 3.675781-.074218 8.011718 3.605469 9.695312.980469.449219 2.015625.667969 3.039063.667969 2.769531 0 5.421875-1.585937 6.65625-4.273437 2.570312-5.632813 4.835937-11.523438 6.71875-17.53125l.398437-1.308594c1.199219-3.855469-.960937-7.949219-4.820312-9.140625zm18.496093-77.742188c-3.949218-.855469-7.835937 1.652344-8.691406 5.601563l-.878906 4.0625c-1.054688 4.851562-2.109375 9.75-3.199219 14.691406-.867187 3.953125 1.621094 7.847656 5.570313 8.714844.535156.125 1.054687.179687 1.578125.179687 3.363281 0 6.382812-2.332031 7.136719-5.746093 1.097656-4.953126 2.152343-9.875 3.207031-14.746094l.878906-4.0625c.855469-3.949219-1.652344-7.839844-5.601563-8.695313zm22.339844-76.601562c-3.738281-1.515625-8.003906.292969-9.519531 4.035156-2.351563 5.789063-4.523437 11.878906-6.664063 18.628906-1.214843 3.84375.917969 7.960938 4.761719 9.175781.734375.238282 1.484375.34375 2.21875.34375 3.101563 0 5.976563-1.984374 6.96875-5.097656 2.015625-6.386718 4.074219-12.121094 6.269531-17.554687 1.523438-3.742188-.285156-8.003907-4.035156-9.53125zm52.097656-58.492188c-2.121093-3.4375-6.632812-4.503906-10.0625-2.371093-5.839843 3.601562-11.335937 7.71875-16.363281 12.222656-3.007812 2.695312-3.257812 7.324218-.5625 10.335937 1.441407 1.609375 3.4375 2.421875 5.445313 2.421875 1.742187 0 3.488281-.613281 4.878906-1.859375 4.386719-3.9375 9.195312-7.53125 14.304688-10.6875 3.425781-2.121093 4.492187-6.636719 2.359374-10.0625zm77.050782-18.128906c-.292969-4.023437-3.792969-7.0625-7.8125-6.78125-6.792969.488281-13.40625 1.199219-19.636719 2.128906-4 .597657-6.75 4.328125-6.152344 8.320313.542969 3.625 3.667969 6.238281 7.21875 6.238281.367188 0 .730469-.03125 1.097657-.085937 5.863281-.875 12.078124-1.554688 18.503906-2.003907 4.023437-.285156 7.066406-3.785156 6.78125-7.816406zm0 0" fill="#ccc"/><path d="m154.121094 423.550781c-1.492188-3.753906-5.746094-5.582031-9.496094-4.097656-5.839844 2.320313-11.976562 4.492187-18.222656 6.457031-3.855469 1.203125-6 5.308594-4.785156 9.164063.96875 3.125 3.855468 5.128906 6.96875 5.128906.730468 0 1.460937-.113281 2.195312-.332031 6.589844-2.070313 13.070312-4.367188 19.246094-6.824219 3.75-1.484375 5.578125-5.734375 4.09375-9.496094zm66.78125-47.398437c-2.945313-2.757813-7.574219-2.613282-10.335938.335937-4.21875 4.503907-8.859375 8.847657-13.792968 12.925781-3.113282 2.570313-3.550782 7.175782-.96875 10.300782 1.441406 1.746094 3.53125 2.65625 5.640624 2.65625 1.640626 0 3.292969-.554688 4.648438-1.683594 5.414062-4.460938 10.503906-9.246094 15.140625-14.199219 2.769531-2.949219 2.613281-7.578125-.332031-10.335937zm33.863281-74.332032c-3.894531-1.058593-7.917969 1.242188-8.972656 5.140626-1.757813 6.457031-3.511719 12.464843-5.351563 18.335937l-.136718.441406c-1.210938 3.855469.921874 7.960938 4.777343 9.171875.730469.230469 1.472657.34375 2.203125.34375 3.105469 0 5.988282-1.996094 6.96875-5.117187l.148438-.449219c1.902344-6.070312 3.699218-12.246094 5.503906-18.882812 1.058594-3.898438-1.242188-7.921876-5.140625-8.984376zm18.253906-80.519531c-3.9375-.902343-7.855469 1.566407-8.753906 5.503907-1.496094 6.53125-2.945313 13.21875-4.304687 19.46875-.859376 3.949218 1.648437 7.847656 5.601562 8.703124.519531.113282 1.042969.167969 1.554688.167969 3.363281 0 6.394531-2.34375 7.136718-5.769531 1.347656-6.207031 2.800782-12.839844 4.273438-19.308594.898437-3.941406-1.566406-7.859375-5.507813-8.765625zm28.832031-76.925781c-3.5-2.027344-7.972656-.828125-9.992187 2.671875-3.269531 5.675781-6.363281 11.914063-9.183594 18.558594-1.578125 3.71875.148438 8.015625 3.867188 9.59375.929687.40625 1.902343.59375 2.863281.59375 2.839844 0 5.546875-1.671875 6.726562-4.460938 2.601563-6.101562 5.425782-11.808593 8.402344-16.96875 2.015625-3.5.816406-7.972656-2.683594-9.988281zm65.03125-47.773438c-1.378906-3.792968-5.566406-5.757812-9.371093-4.390624-6.738281 2.4375-13.15625 5.308593-19.070313 8.558593-3.542968 1.933594-4.835937 6.382813-2.902344 9.925781 1.335938 2.425782 3.832032 3.804688 6.425782 3.804688 1.191406 0 2.390625-.292969 3.511718-.910156 5.242188-2.871094 10.96875-5.441406 17.007813-7.617188 3.804687-1.378906 5.769531-5.570312 4.398437-9.371094zm81.648438-9.59375c-.15625-3.699218-3.019531-6.625-6.589844-6.96875h-.011718c-.335938-.03125-.667969-.03125-1.015626-.019531-6.382812.269531-13.082031.59375-19.902343.949219-4.035157.21875-7.128907 3.65625-6.917969 7.691406.207031 3.90625 3.4375 6.925782 7.304688 6.925782.125 0 .257812 0 .386718-.007813 6.769532-.355469 13.425782-.671875 19.757813-.953125 3.9375-.167969 7.019531-3.425781 7-7.335938 0-.09375-.011719-.1875-.011719-.28125zm0 0" fill="#ccc"/><path d="m391.738281 194.078125h39.785157v71.539063h-39.785157zm0 0" fill="#ab5816"/><path d="m391.742188 194.082031h17.539062v71.53125h-17.539062zm0 0" fill="#8c3e09"/><path d="m431.523438 194.078125v42.445313c-13.265626.476562-26.53125.476562-39.785157 0v-42.445313zm0 0" fill="#8c3e09"/><path d="m497.519531 219.085938c-56.917969 8.871093-114.859375 8.871093-171.769531 0-14.226562-2.214844-19.480469-19.988282-8.835938-29.6875 9.050782-8.253907 17.726563-16.730469 26.015626-25.421876 20.535156-21.535156 38.675781-44.3125 54.324218-67.953124 6.839844-10.328126 21.921875-10.328126 28.761719 0 15.648437 23.632812 33.78125 46.417968 54.328125 67.941406 8.277344 8.695312 16.953125 17.179687 26.015625 25.433594 10.644531 9.699218 5.390625 27.472656-8.839844 29.6875zm0 0" fill="#21bf4a"/><path d="m371.535156 219.085938c13.28125 4.4375 26.6875 6.660156 40.097656 6.660156-28.707031 0-57.429687-2.222656-85.886718-6.660156-14.226563-2.214844-19.480469-19.984376-8.835938-29.6875 31.515625-28.714844 58.394532-60.203126 80.34375-93.371094 3.417969-5.164063 8.898438-7.75 14.378906-7.75-2.554687 0-5.113281 2.585937-6.714843 7.75-10.25 33.167968-22.800781 64.65625-37.515625 93.371094-4.96875 9.703124-2.519532 27.472656 4.132812 29.6875zm0 0" fill="#17aa3d"/><path d="m480.339844 163.964844c-45.566406 6.535156-91.832032 6.535156-137.410156.011718 20.535156-21.535156 38.675781-44.3125 54.324218-67.953124 6.839844-10.328126 21.921875-10.328126 28.761719 0 15.648437 23.632812 33.78125 46.417968 54.324219 67.941406zm0 0" fill="#17aa3d"/><path d="m497.519531 193.535156c-56.917969 8.875-114.859375 8.875-171.769531 0-14.226562-2.214844-19.480469-19.988281-8.835938-29.6875 9.050782-8.25 17.726563-16.730468 26.015626-25.421875 20.535156-21.535156 38.675781-44.308593 54.324218-67.949219 6.839844-10.332031 21.921875-10.332031 28.761719 0 15.648437 23.628907 33.78125 46.414063 54.328125 67.941407 8.277344 8.691406 16.953125 17.179687 26.015625 25.429687 10.644531 9.703125 5.390625 27.472656-8.839844 29.6875zm0 0" fill="#e6e6e6"/><path d="m371.535156 193.535156c13.28125 4.4375 26.6875 6.660156 40.097656 6.660156-28.707031 0-57.429687-2.222656-85.886718-6.660156-14.226563-2.210937-19.480469-19.984375-8.835938-29.6875 31.515625-28.714844 58.394532-60.199218 80.34375-93.371094 3.417969-5.164062 8.898438-7.746093 14.378906-7.746093-2.554687 0-5.113281 2.582031-6.714843 7.746093-10.25 33.171876-22.800781 64.65625-37.515625 93.371094-4.96875 9.703125-2.519532 27.476563 4.132812 29.6875zm0 0" fill="#ccc"/><path d="m481.519531 155.003906c-46.34375 6.757813-93.425781 6.757813-139.777343 0-14.273438-2.078125-19.699219-19.796875-9.125-29.625 8.367187-7.78125 16.359374-15.800781 23.957031-24.007812 15.199219-16.433594 28.820312-33.664063 40.800781-51.464844 6.820312-10.132812 21.703125-10.132812 28.527344 0 11.976562 17.800781 25.601562 35.03125 40.800781 51.464844 7.59375 8.207031 15.585937 16.226562 23.953125 24.007812 10.5625 9.828125 5.144531 27.546875-9.136719 29.625zm0 0" fill="#21bf4a"/><path d="m379.003906 155.007812c10.816406 3.375 21.722656 5.066407 32.628906 5.066407-23.359374 0-46.714843-1.691407-69.886718-5.066407-14.28125-2.078124-19.695313-19.796874-9.132813-29.625 25.132813-23.359374 46.785157-48.773437 64.757813-75.472656 3.410156-5.066406 8.835937-7.59375 14.261718-7.59375-2.539062 0-5.066406 2.527344-6.660156 7.59375-8.386718 26.699219-18.5 52.113282-30.234375 75.472656-4.933593 9.828126-2.40625 27.546876 4.265625 29.625zm0 0" fill="#17aa3d"/><path d="m466.699219 101.371094c-2.628907 3.148437-6.441407 5.425781-11.15625 5.992187-29.167969 3.511719-58.648438 3.511719-87.824219 0-4.714844-.566406-8.519531-2.84375-11.148438-5.992187 15.199219-16.433594 28.824219-33.664063 40.800782-51.464844 6.824218-10.132812 21.707031-10.132812 28.527344 0 11.976562 17.800781 25.601562 35.03125 40.800781 51.464844zm0 0" fill="#17aa3d"/><path d="m481.519531 135.84375c-46.34375 6.757812-93.425781 6.757812-139.777343 0-14.273438-2.082031-19.699219-19.800781-9.125-29.625 8.367187-7.785156 16.359374-15.800781 23.957031-24.007812 15.199219-16.433594 28.820312-33.667969 40.800781-51.464844 6.820312-10.132813 21.703125-10.132813 28.527344 0 11.976562 17.796875 25.601562 35.03125 40.800781 51.464844 7.59375 8.207031 15.585937 16.222656 23.953125 24.007812 10.5625 9.824219 5.144531 27.542969-9.136719 29.625zm0 0" fill="#e6e6e6"/><path d="m379.003906 135.847656c10.816406 3.375 21.722656 5.066406 32.628906 5.066406-23.359374 0-46.714843-1.691406-69.886718-5.066406-14.28125-2.078125-19.695313-19.800781-9.132813-29.625 25.132813-23.359375 46.785157-48.773437 64.757813-75.472656 3.410156-5.066406 8.835937-7.597656 14.261718-7.597656-2.539062 0-5.066406 2.53125-6.660156 7.597656-8.386718 26.699219-18.5 52.113281-30.234375 75.472656-4.933593 9.824219-2.40625 27.542969 4.265625 29.625zm0 0" fill="#ccc"/><path d="m393.109375 28.027344c-10.40625 14.125-22.207031 27.703125-35.351563 40.53125-10.371093 10.117187-4.421874 27.6875 9.964844 29.421875 29.167969 3.507812 58.652344 3.507812 87.824219 0 14.382813-1.730469 20.335937-19.304688 9.964844-29.421875-13.144531-12.828125-24.945313-26.40625-35.351563-40.53125-9.226562-12.527344-27.824218-12.527344-37.050781 0zm0 0" fill="#21bf4a"/><path d="m391.132812 97.976562c6.804688 1.753907 13.652344 2.625 20.5 2.625-14.660156 0-29.316406-.871093-43.90625-2.625-14.386718-1.730468-20.335937-19.304687-9.96875-29.417968 13.144532-12.832032 24.945313-26.414063 35.355469-40.53125 4.605469-6.261719 11.574219-9.394532 18.519531-9.394532-3.238281 0-6.496093 3.132813-8.648437 9.394532-4.859375 14.121094-10.363281 27.699218-16.503906 40.53125-4.847657 10.113281-2.070313 27.6875 4.652343 29.417968zm0 0" fill="#17aa3d"/><path d="m393.109375 9.398438c-10.40625 14.125-22.207031 27.703124-35.351563 40.53125-10.371093 10.117187-4.421874 27.6875 9.964844 29.417968 29.167969 3.511719 58.652344 3.511719 87.824219 0 14.382813-1.726562 20.335937-19.300781 9.964844-29.417968-13.144531-12.828126-24.945313-26.40625-35.351563-40.53125-9.226562-12.527344-27.824218-12.527344-37.050781 0zm0 0" fill="#e6e6e6"/><path d="m391.132812 79.34375c6.804688 1.757812 13.652344 2.628906 20.5 2.628906-14.660156 0-29.316406-.871094-43.90625-2.628906-14.386718-1.726562-20.335937-19.300781-9.96875-29.414062 13.144532-12.832032 24.945313-26.414063 35.355469-40.53125 4.605469-6.265626 11.574219-9.39453175 18.519531-9.39453175-3.238281 0-6.496093 3.12890575-8.648437 9.39453175-4.859375 14.117187-10.363281 27.699218-16.503906 40.53125-4.847657 10.113281-2.070313 27.6875 4.652343 29.414062zm0 0" fill="#ccc"/><path d="m391.921875 395.453125v77.53125c-5.371094 3.363281-10.867187 6.539063-16.488281 9.507813h-31.921875v-87.039063zm0 0" fill="#ab5816"/><path d="m343.519531 395.457031h21.339844v87.035157h-21.339844zm0 0" fill="#8c3e09"/><path d="m391.917969 395.449219v51.648437c-16.136719.578125-32.277344.578125-48.40625 0v-51.648437zm0 0" fill="#8c3e09"/><path d="m477.394531 384.605469c-9.449219 16.238281-20.636719 31.347656-33.300781 45.054687-60.144531 6.816406-120.980469 5.550782-180.875-3.78125-17.300781-2.695312-23.695312-24.3125-10.75-36.121094 11.023438-10.042968 21.578125-20.355468 31.660156-30.929687 24.984375-26.207031 47.050782-53.917969 66.101563-82.683594 8.316406-12.558593 26.664062-12.558593 34.992187 0 19.039063 28.757813 41.097656 56.476563 66.101563 82.671875 8.359375 8.777344 17.050781 17.378906 26.070312 25.789063zm0 0" fill="#21bf4a"/><path d="m318.929688 425.878906c16.160156 5.398438 32.472656 8.105469 48.789062 8.105469-34.929688 0-69.878906-2.707031-104.5-8.105469-17.308594-2.691406-23.703125-24.316406-10.75-36.121094 38.34375-34.9375 71.046875-73.246093 97.753906-113.605468 4.160156-6.285156 10.828125-9.425782 17.496094-9.425782-3.109375 0-6.21875 3.140626-8.167969 9.425782-12.472656 40.359375-27.746093 78.667968-45.648437 113.605468-6.042969 11.804688-3.0625 33.429688 5.027344 36.121094zm0 0" fill="#17aa3d"/><path d="m451.316406 358.816406c-55.445312 7.949219-111.734375 7.949219-167.191406.011719 24.984375-26.203125 47.058594-53.914063 66.101562-82.679687 8.320313-12.566407 26.671876-12.566407 34.992188 0 19.039062 28.753906 41.101562 56.476562 66.097656 82.667968zm0 0" fill="#17aa3d"/><path d="m487.726562 364.929688c-3.164062 6.730468-6.613281 13.292968-10.332031 19.675781-2.039062 3.511719-4.171875 6.96875-6.375 10.367187-68.871093 10.613282-138.949219 10.550782-207.800781-.179687-17.300781-2.695313-23.695312-24.3125-10.75-36.121094 11.023438-10.042969 21.578125-20.355469 31.660156-30.929687 24.984375-26.207032 47.050782-53.917969 66.101563-82.683594 8.316406-12.570313 26.664062-12.570313 34.992187 0 19.039063 28.757812 41.097656 56.476562 66.101563 82.671875 10.070312 10.574219 20.625 20.898437 31.648437 30.941406 2.058594 1.878906 3.625 4 4.753906 6.257813zm0 0" fill="#e6e6e6"/><path d="m318.929688 394.792969c16.160156 5.398437 32.472656 8.101562 48.789062 8.101562-34.929688 0-69.878906-2.703125-104.5-8.101562-17.308594-2.691407-23.703125-24.316407-10.75-36.121094 38.34375-34.9375 71.046875-73.25 97.753906-113.605469 4.160156-6.285156 10.828125-9.429687 17.496094-9.429687-3.109375 0-6.21875 3.144531-8.167969 9.429687-12.472656 40.355469-27.746093 78.667969-45.648437 113.605469-6.042969 11.804687-3.0625 33.429687 5.027344 36.121094zm0 0" fill="#ccc"/><path d="m452.753906 347.910156c-56.390625 8.222656-113.675781 8.222656-170.074218 0-17.363282-2.527344-23.96875-24.089844-11.101563-36.042968 10.183594-9.472657 19.90625-19.226563 29.148437-29.210938 18.492188-19.996094 35.066407-40.960938 49.640626-62.621094 8.300781-12.328125 26.410156-12.328125 34.710937 0 14.570313 21.660156 31.148437 42.625 49.640625 62.621094 9.242188 9.984375 18.964844 19.738281 29.148438 29.210938 12.851562 11.953124 6.261718 33.515624-11.113282 36.042968zm0 0" fill="#21bf4a"/><path d="m328.015625 347.914062c13.160156 4.105469 26.429687 6.164063 39.703125 6.164063-28.425781 0-56.835938-2.058594-85.03125-6.164063-17.375-2.527343-23.96875-24.085937-11.113281-36.042968 30.582031-28.421875 56.925781-59.34375 78.789062-91.828125 4.148438-6.164063 10.753907-9.242188 17.355469-9.242188-3.089844 0-6.164062 3.078125-8.105469 9.242188-10.203125 32.484375-22.507812 63.40625-36.785156 91.828125-6 11.957031-2.925781 33.515625 5.1875 36.042968zm0 0" fill="#17aa3d"/><path d="m434.71875 282.65625c-3.195312 3.832031-7.839844 6.601562-13.574219 7.289062-35.488281 4.273438-71.355469 4.273438-106.851562 0-5.738281-.6875-10.371094-3.457031-13.566407-7.289062 18.492188-19.996094 35.070313-40.960938 49.640626-62.621094 8.300781-12.328125 26.410156-12.328125 34.710937 0 14.570313 21.660156 31.148437 42.625 49.640625 62.621094zm0 0" fill="#17aa3d"/><path d="m452.753906 324.59375c-56.390625 8.222656-113.675781 8.222656-170.074218 0-17.363282-2.527344-23.96875-24.085938-11.101563-36.042969 10.183594-9.46875 19.90625-19.226562 29.148437-29.210937 18.492188-19.992188 35.066407-40.960938 49.640626-62.617188 8.300781-12.328125 26.410156-12.328125 34.710937 0 14.570313 21.65625 31.148437 42.625 49.640625 62.617188 9.242188 9.984375 18.964844 19.742187 29.148438 29.210937 12.851562 11.957031 6.261718 33.515625-11.113282 36.042969zm0 0" fill="#e6e6e6"/><path d="m328.015625 324.601562c13.160156 4.105469 26.429687 6.164063 39.703125 6.164063-28.425781 0-56.835938-2.058594-85.03125-6.164063-17.375-2.53125-23.96875-24.089843-11.113281-36.042968 30.582031-28.425782 56.925781-59.34375 78.789062-91.832032 4.148438-6.164062 10.753907-9.242187 17.355469-9.242187-3.089844 0-6.164062 3.078125-8.105469 9.242187-10.203125 32.488282-22.507812 63.40625-36.785156 91.832032-6 11.953125-2.925781 33.511718 5.1875 36.042968zm0 0" fill="#ccc"/><path d="m345.179688 193.414062c-12.660157 17.1875-27.019532 33.710938-43.011719 49.316407-12.621094 12.3125-5.378907 33.691406 12.125 35.796875 35.488281 4.269531 71.367187 4.269531 106.855469 0 17.503906-2.105469 24.742187-23.484375 12.125-35.796875-15.996094-15.605469-30.351563-32.128907-43.011719-49.316407-11.226563-15.238281-33.855469-15.238281-45.082031 0zm0 0" fill="#21bf4a"/><path d="m342.777344 278.523438c8.277344 2.132812 16.609375 3.195312 24.941406 3.195312-17.835938 0-35.671875-1.0625-53.421875-3.195312-17.507813-2.101563-24.746094-23.484376-12.128906-35.792969 15.996093-15.613281 30.351562-32.136719 43.015625-49.3125 5.609375-7.621094 14.082031-11.433594 22.535156-11.433594-3.941406 0-7.90625 3.8125-10.523438 11.433594-5.910156 17.179687-12.613281 33.699219-20.078124 49.3125-5.902344 12.308593-2.519532 33.691406 5.660156 35.792969zm0 0" fill="#17aa3d"/><path d="m345.179688 170.75c-12.660157 17.183594-27.019532 33.707031-43.011719 49.3125-12.621094 12.3125-5.378907 33.691406 12.125 35.796875 35.488281 4.269531 71.367187 4.269531 106.855469 0 17.503906-2.105469 24.742187-23.484375 12.125-35.796875-15.996094-15.605469-30.351563-32.128906-43.011719-49.3125-11.226563-15.242188-33.855469-15.242188-45.082031 0zm0 0" fill="#e6e6e6"/><path d="m342.777344 255.855469c8.277344 2.136719 16.609375 3.199219 24.941406 3.199219-17.835938 0-35.671875-1.0625-53.421875-3.199219-17.507813-2.101563-24.746094-23.484375-12.128906-35.792969 15.996093-15.613281 30.351562-32.132812 43.015625-49.3125 5.609375-7.621094 14.082031-11.429688 22.535156-11.429688-3.941406 0-7.90625 3.808594-10.523438 11.429688-5.910156 17.179688-12.613281 33.699219-20.078124 49.3125-5.902344 12.308594-2.519532 33.691406 5.660156 35.792969zm0 0" fill="#ccc"/><path d="m105.277344 239.707031h43.167968v77.625h-43.167968zm0 0" fill="#ab5816"/><path d="m105.28125 239.710938h19.027344v77.621093h-19.027344zm0 0" fill="#8c3e09"/><path d="m148.445312 239.707031v46.058594c-14.394531.515625-28.785156.515625-43.167968 0v-46.058594zm0 0" fill="#8c3e09"/><path d="m220.054688 266.84375c-61.757813 9.625-124.632813 9.625-186.378907 0-15.4375-2.402344-21.140625-21.6875-9.589843-32.214844 9.820312-8.953125 19.234374-18.152344 28.226562-27.582031 22.285156-23.367187 41.96875-48.082031 58.949219-73.730469 7.417969-11.210937 23.785156-11.210937 31.207031 0 16.976562 25.640625 36.652344 50.363282 58.945312 73.71875 8.984376 9.433594 18.394532 18.640625 28.230469 27.59375 11.550781 10.527344 5.847657 29.8125-9.589843 32.214844zm0 0" fill="#21bf4a"/><path d="m83.351562 266.84375c14.414063 4.8125 28.960938 7.226562 43.507813 7.226562-31.148437 0-62.3125-2.414062-93.1875-7.226562-15.4375-2.402344-21.140625-21.6875-9.589844-32.210938 34.195313-31.160156 63.359375-65.324218 87.175781-101.316406 3.710938-5.605468 9.65625-8.40625 15.601563-8.40625-2.769531 0-5.542969 2.800782-7.28125 8.40625-11.121094 35.992188-24.742187 70.15625-40.707031 101.316406-5.390625 10.523438-2.734375 29.808594 4.480468 32.210938zm0 0" fill="#17aa3d"/><path d="m201.414062 207.035156c-49.445312 7.089844-99.644531 7.089844-149.101562.007813 22.285156-23.363281 41.96875-48.078125 58.949219-73.730469 7.417969-11.207031 23.785156-11.207031 31.207031 0 16.976562 25.644531 36.652344 50.367188 58.945312 73.722656zm0 0" fill="#17aa3d"/><path d="m220.054688 239.117188c-61.757813 9.628906-124.632813 9.628906-186.378907 0-15.4375-2.402344-21.140625-21.683594-9.589843-32.210938 9.820312-8.953125 19.234374-18.152344 28.226562-27.585938 22.285156-23.363281 41.96875-48.078124 58.949219-73.726562 7.417969-11.210938 23.785156-11.210938 31.207031 0 16.976562 25.640625 36.652344 50.363281 58.945312 73.71875 8.984376 9.433594 18.394532 18.640625 28.230469 27.59375 11.550781 10.527344 5.847657 29.8125-9.589843 32.210938zm0 0" fill="#e6e6e6"/><path d="m83.351562 239.121094c14.414063 4.8125 28.960938 7.226562 43.507813 7.226562-31.148437 0-62.3125-2.414062-93.1875-7.226562-15.4375-2.402344-21.140625-21.6875-9.589844-32.210938 34.195313-31.160156 63.359375-65.324218 87.175781-101.316406 3.710938-5.605469 9.65625-8.40625 15.601563-8.40625-2.769531 0-5.542969 2.800781-7.28125 8.40625-11.121094 35.992188-24.742187 70.15625-40.707031 101.316406-5.390625 10.523438-2.734375 29.808594 4.480468 32.210938zm0 0" fill="#ccc"/><path d="m202.695312 197.308594c-50.289062 7.335937-101.375 7.335937-151.667968 0-15.488282-2.253906-21.375-21.480469-9.902344-32.144532 9.082031-8.445312 17.75-17.144531 25.992188-26.050781 16.492187-17.828125 31.273437-36.527343 44.269531-55.839843 7.402343-10.996094 23.550781-10.996094 30.953125 0 12.996094 19.3125 27.78125 38.011718 44.273437 55.839843 8.242188 8.90625 16.910157 17.605469 25.992188 26.050781 11.460937 10.664063 5.582031 29.890626-9.910157 32.144532zm0 0" fill="#21bf4a"/><path d="m91.453125 197.3125c11.738281 3.664062 23.574219 5.5 35.40625 5.5-25.347656 0-50.683594-1.835938-75.828125-5.5-15.496094-2.253906-21.375-21.480469-9.910156-32.140625 27.269531-25.351563 50.761718-52.921875 70.261718-81.894531 3.703126-5.496094 9.589844-8.242188 15.476563-8.242188-2.753906 0-5.496094 2.746094-7.226563 8.242188-9.097656 28.972656-20.074218 56.542968-32.804687 81.894531-5.351563 10.660156-2.609375 29.886719 4.625 32.140625zm0 0" fill="#17aa3d"/><path d="m186.613281 139.117188c-2.851562 3.417968-6.992187 5.886718-12.109375 6.5-31.644531 3.808593-63.632812 3.808593-95.289062 0-5.117188-.613282-9.246094-3.085938-12.097656-6.5 16.492187-17.832032 31.273437-36.53125 44.269531-55.84375 7.402343-10.992188 23.550781-10.992188 30.953125 0 12.996094 19.3125 27.78125 38.011718 44.273437 55.84375zm0 0" fill="#17aa3d"/><path d="m202.695312 176.519531c-50.289062 7.332031-101.375 7.332031-151.667968 0-15.488282-2.257812-21.375-21.480469-9.902344-32.144531 9.082031-8.445312 17.75-17.144531 25.992188-26.050781 16.492187-17.832031 31.273437-36.53125 44.269531-55.84375 7.402343-10.992188 23.550781-10.992188 30.953125 0 12.996094 19.316406 27.78125 38.011719 44.273437 55.84375 8.242188 8.902343 16.910157 17.605469 25.992188 26.050781 11.460937 10.660156 5.582031 29.886719-9.910157 32.144531zm0 0" fill="#e6e6e6"/><path d="m91.453125 176.523438c11.738281 3.660156 23.574219 5.496093 35.40625 5.496093-25.347656 0-50.683594-1.835937-75.828125-5.496093-15.496094-2.257813-21.375-21.480469-9.910156-32.144532 27.269531-25.347656 50.761718-52.921875 70.261718-81.894531 3.703126-5.496094 9.589844-8.238281 15.476563-8.238281-2.753906 0-5.496094 2.742187-7.226563 8.238281-9.097656 28.972656-20.074218 56.546875-32.804687 81.894531-5.351563 10.660156-2.609375 29.886719 4.625 32.144532zm0 0" fill="#ccc"/><path d="m106.761719 59.53125c-11.289063 15.328125-24.09375 30.0625-38.359375 43.980469-11.25 10.980469-4.792969 30.046875 10.816406 31.921875 31.648438 3.808594 63.640625 3.808594 95.289062 0 15.609376-1.875 22.066407-20.941406 10.816407-31.921875-14.265625-13.917969-27.070313-28.652344-38.359375-43.980469-10.011719-13.589844-30.191406-13.589844-40.203125 0zm0 0" fill="#21bf4a"/><path d="m104.617188 135.429688c7.382812 1.90625 14.8125 2.851562 22.242187 2.851562-15.90625 0-31.808594-.945312-47.636719-2.851562-15.613281-1.871094-22.070312-20.941407-10.820312-31.917969 14.265625-13.925781 27.066406-28.660157 38.363281-43.980469 5-6.792969 12.554687-10.191406 20.09375-10.191406-3.515625 0-7.050781 3.398437-9.382813 10.191406-5.273437 15.320312-11.25 30.054688-17.90625 43.980469-5.261718 10.976562-2.246093 30.042969 5.046876 31.917969zm0 0" fill="#17aa3d"/><path d="m106.761719 39.320312c-11.289063 15.324219-24.09375 30.058594-38.359375 43.976563-11.25 10.980469-4.792969 30.046875 10.816406 31.925781 31.648438 3.804688 63.640625 3.804688 95.289062 0 15.609376-1.878906 22.066407-20.945312 10.816407-31.925781-14.265625-13.917969-27.070313-28.652344-38.359375-43.976563-10.011719-13.59375-30.191406-13.59375-40.203125 0zm0 0" fill="#e6e6e6"/><path d="m104.617188 115.214844c7.382812 1.90625 14.8125 2.851562 22.242187 2.851562-15.90625 0-31.808594-.945312-47.636719-2.851562-15.613281-1.871094-22.070312-20.941406-10.820312-31.917969 14.265625-13.925781 27.066406-28.65625 38.363281-43.976563 5-6.796874 12.554687-10.195312 20.09375-10.195312-3.515625 0-7.050781 3.398438-9.382813 10.195312-5.273437 15.320313-11.25 30.050782-17.90625 43.976563-5.261718 10.976563-2.246093 30.046875 5.046876 31.917969zm0 0" fill="#ccc"/><path d="m166.011719 329.644531h-78.292969c0-21.617187 17.523438-39.140625 39.140625-39.140625 4.210937 0 8.265625.667969 12.070313 1.898438 15.714843 5.082031 27.082031 19.835937 27.082031 37.242187zm0 0" fill="#ccc"/><path d="m166.011719 329.644531h-54.164063c0-17.40625 11.367188-32.160156 27.082032-37.242187 15.714843 5.082031 27.082031 19.835937 27.082031 37.242187zm0 0" fill="#e6e6e6"/><path d="m397.28125 469.523438c-15.226562 10.085937-31.585938 18.601562-48.859375 25.289062h-20.15625c0-21.621094 17.523437-39.144531 39.140625-39.144531 4.210938 0 8.265625.671875 12.070312 1.902343 7.011719 2.269532 13.152344 6.457032 17.804688 11.953126zm0 0" fill="#ccc"/><path d="m397.28125 469.523438c-14.042969 9.300781-29.058594 17.273437-44.859375 23.699218.671875-16.71875 11.820313-30.730468 27.054687-35.652344 7.011719 2.269532 13.152344 6.457032 17.804688 11.953126zm0 0" fill="#e6e6e6"/></svg>