<svg height="448pt" viewBox="-7 0 448 448" width="448pt" xmlns="http://www.w3.org/2000/svg"><path d="m153.761719 304.078125c2.78125.296875 5.210937 2.027344 6.398437 4.5625l30.640625 65.597656 17.199219-35.117187-56.238281-115.199219-151.761719 224.078125h36.960938l109.597656-140.878906c1.683594-2.230469 4.429687-3.386719 7.203125-3.042969zm0 0"/><path d="m249.921875 120h-41.042969v32h41.042969l-7.683594-11.601562c-1.839843-2.644532-1.839843-6.152344 0-8.796876zm0 0"/><path d="m282 223.921875-84.238281 172.398437c-1.40625 2.707032-4.15625 4.445313-7.203125 4.558594-3.089844-.039062-5.886719-1.839844-7.199219-4.640625l-32.160156-69.039062-94 120.800781h376.5625zm0 0"/><path d="m26.160156 223.199219 56.71875 7.121093c3.011719.433594 5.535156 2.496094 6.5625 5.359376 1.828125 5.332031 3.992188 10.542968 6.480469 15.601562 1.328125 2.738281.984375 5.996094-.882813 8.398438l-35.039062 45.039062c-.460938.570312-.425781 1.390625.078125 1.921875l9.683594 9.757813 4.636719-6.878907c-2.429688-2.828125-2.53125-6.976562-.238282-9.917969l33.359375-42.882812-4.480469-9.039062c-2.335937-4.71875-4.367187-9.582032-6.078124-14.558594l-3.199219-9.519532-53.839844-6.800781c-4.011719-.484375-7.03125-3.882812-7.042969-7.921875v-33.757812c.011719-4.039063 3.03125-7.4375 7.042969-7.921875l53.839844-6.800781 3.199219-9.519532c1.710937-4.976562 3.742187-9.839844 6.078124-14.558594l4.480469-9.039062-33.359375-42.882812c-2.457031-3.183594-2.183594-7.691407.640625-10.558594l23.917969-23.917969c2.867188-2.824219 7.375-3.097656 10.5625-.640625l42.878906 33.359375 9.039063-4.480469c4.726562-2.324218 9.585937-4.355468 14.5625-6.082031l9.519531-3.199219 6.796875-53.839844c.488281-4.007812 3.882813-7.027343 7.921875-7.039062h33.761719c4.035156.011719 7.433593 3.03125 7.917969 7.039062l6.800781 53.839844 9.519531 3.199219c4.972656 1.726563 9.835938 3.757813 14.558594 6.082031l9.042968 4.480469 42.878907-33.359375c3.183593-2.457031 7.695312-2.183594 10.558593.640625l23.921876 23.917969c2.820312 2.867187 3.09375 7.375.640624 10.558594l-33.363281 42.882812 4.480469 9.039062c2.339844 4.71875 4.367188 9.582032 6.082031 14.558594l3.199219 9.519532 53.839844 6.800781c4.007812.484375 7.027344 3.882812 7.039062 7.921875v33.757812c-.011718 4.039063-3.03125 7.4375-7.039062 7.921875l-53.839844 6.800781-3.199219 9.519532c-1.714843 4.976562-3.742187 9.839844-6.082031 14.558594l-4.480469 9.039062 33.363281 42.882812c2.289063 2.941407 2.191407 7.089844-.242187 9.917969l4.640625 6.878907 9.601562-9.679688c.5625-.492188.632813-1.339844.160157-1.917969l-35.042969-45.121093c-1.867188-2.402344-2.207031-5.660157-.878906-8.398438 2.484375-5.058594 4.648437-10.269531 6.480468-15.601562 1.027344-2.863282 3.550782-4.925782 6.558594-5.359376l56.640625-7.121093c.773438-.089844 1.355469-.742188 1.359375-1.519531v-59.359376c0-.75-.539062-1.390624-1.277344-1.519531l-56.722656-7.121093c-3.007812-.433594-5.53125-2.496094-6.558594-5.359376-1.832031-5.332031-3.996093-10.542968-6.480468-15.601562-1.328125-2.738281-.988282-5.996094.878906-8.398438l35.042969-45.039062c.457031-.570312.421875-1.390625-.082031-1.921875l-42.078126-42.078125c-.492187-.5625-1.34375-.636719-1.921874-.160156l-45.121094 35.039062c-2.386719 1.90625-5.667969 2.25-8.398438.878906-5.042968-2.519531-10.257812-4.683593-15.601562-6.480468-2.875-1.003906-4.949219-3.539063-5.359375-6.558594l-7.121094-56.640625c-.089844-.769531-.742187-1.3515625-1.519531-1.359375h-59.359375c-.75 0-1.390625.539062-1.519531 1.28125l-7.121094 56.71875c-.410156 3.019531-2.480469 5.554688-5.359375 6.558594-5.34375 1.796875-10.554688 3.960937-15.597657 6.480468-2.734374 1.371094-6.011718 1.027344-8.402343-.878906l-45.039063-35.039062c-.554687-.503906-1.410156-.46875-1.921875.078125l-42.078125 42.082031c-.5625.492188-.632812 1.339844-.160156 1.917969l35.039062 45.121093c1.867188 2.402344 2.210938 5.660157.882813 8.398438-2.488281 5.058594-4.652344 10.269531-6.480469 15.601562-1.027344 2.863282-3.550781 4.925782-6.5625 5.359376l-56.640625 7.121093c-.769531.089844-1.351562.742188-1.359375 1.519531v59.359376c0 .75.542969 1.390624 1.28125 1.519531zm0 0"/><path d="m208.878906 304h-.238281l8.238281 16.878906 56.800782-116.398437c1.25-2.578125 3.785156-4.289063 6.640624-4.484375 2.859376-.199219 5.605469 1.144531 7.199219 3.523437l27.28125 40.242188 1.519531-3.121094c2.054688-4.085937 3.820313-8.308594 5.28125-12.640625l4.796876-14.238281c.984374-2.894531 3.53125-4.972657 6.5625-5.363281l51.917968-6.558594v-19.679688l-51.917968-6.558594c-3.03125-.390624-5.578126-2.46875-6.5625-5.363281l-4.796876-14.238281c-1.460937-4.332031-3.226562-8.554688-5.28125-12.640625l-6.640624-13.519531c-1.328126-2.738282-.988282-5.996094.878906-8.398438l32.082031-41.28125-13.921875-13.921875-41.277344 32.082031c-2.40625 1.867188-5.660156 2.207032-8.402344.878907l-13.519531-6.640625c-4.089843-2.039063-8.3125-3.804688-12.640625-5.277344l-14.238281-4.800781c-2.894531-.984375-4.972656-3.53125-5.359375-6.558594l-6.5625-51.921875h-19.679688l-6.558593 51.921875c-.386719 3.027344-2.46875 5.574219-5.359375 6.558594l-14.242188 4.800781c-4.324218 1.472656-8.550781 3.238281-12.640625 5.277344l-13.519531 6.640625c-2.738281 1.328125-5.996094.988281-8.398438-.878907l-41.28125-32.082031-13.917968 13.921875 32.078125 41.28125c1.867187 2.402344 2.210937 5.660156.878906 8.398438l-6.636719 13.519531c-2.058594 4.085937-3.820312 8.308594-5.28125 12.640625l-4.800781 14.238281c-.984375 2.894531-3.527344 4.972657-6.558594 5.363281l-51.921875 6.558594v19.679688l51.921875 6.558594c3.03125.390624 5.574219 2.46875 6.558594 5.363281l4.800781 14.238281c1.460938 4.332031 3.222656 8.554688 5.28125 12.640625l1.519532 3.121094 27.277343-40.242188c1.589844-2.390625 4.339844-3.734375 7.203125-3.519531 2.847656.222656 5.367188 1.921875 6.636719 4.480469l32.800781 67.199219v-175.679688h16v8h56c2.957032-.019531 5.675782 1.617188 7.042969 4.238281 1.4375 2.574219 1.28125 5.742188-.402344 8.160157l-13.039062 19.601562 13.039062 19.601562c1.683594 2.417969 1.839844 5.585938.402344 8.160157-1.367187 2.621093-4.085937 4.257812-7.042969 4.238281h-56zm0 0"/></svg>